%TF.GenerationSoftware,KiCad,Pcbnew,5.99.0-unknown-6252493~100~ubuntu19.10.1*%
%TF.CreationDate,2020-03-05T21:14:28+01:00*%
%TF.ProjectId,TDR_gen3_pod,5444525f-6765-46e3-935f-706f642e6b69,rev?*%
%TF.SameCoordinates,PX82bfae0PY6cf5110*%
%TF.FileFunction,Copper,L2,Inr*%
%TF.FilePolarity,Positive*%
%FSLAX46Y46*%
G04 Gerber Fmt 4.6, Leading zero omitted, Abs format (unit mm)*
G04 Created by KiCad (PCBNEW 5.99.0-unknown-6252493~100~ubuntu19.10.1) date 2020-03-05 21:14:28*
%MOMM*%
%LPD*%
G01*
G04 APERTURE LIST*
%TA.AperFunction,ViaPad*%
%ADD10C,5.600000*%
%TD*%
%TA.AperFunction,ViaPad*%
%ADD11C,0.500000*%
%TD*%
%TA.AperFunction,ViaPad*%
%ADD12C,3.000000*%
%TD*%
%TA.AperFunction,ViaPad*%
%ADD13C,0.310000*%
%TD*%
%TA.AperFunction,ViaPad*%
%ADD14C,0.450000*%
%TD*%
%TA.AperFunction,Conductor*%
%ADD15C,0.200000*%
%TD*%
G04 APERTURE END LIST*
D10*
%TO.N,GND*%
%TO.C,H103*%
X33400000Y30500000D03*
%TD*%
D11*
%TO.N,GND*%
%TO.C,J101*%
X36900000Y23050000D03*
X36900000Y21850000D03*
X33900000Y23950000D03*
X33300000Y23650000D03*
X33300000Y23050000D03*
X33300000Y22450000D03*
X33300000Y21850000D03*
X33300000Y21250000D03*
X36900000Y23650000D03*
X37500000Y23650000D03*
X37500000Y23050000D03*
X37500000Y22450000D03*
X37500000Y21850000D03*
X36900000Y21250000D03*
X37500000Y21250000D03*
X36900000Y20650000D03*
X37500000Y20650000D03*
X36300000Y20650000D03*
X33300000Y20650000D03*
X33900000Y20650000D03*
X34500000Y20050000D03*
X35100000Y20050000D03*
X36900000Y20050000D03*
X37500000Y20050000D03*
X35700000Y20050000D03*
X36300000Y20050000D03*
X33300000Y20050000D03*
X33900000Y20050000D03*
X34500000Y19450000D03*
X35100000Y19450000D03*
X36900000Y19450000D03*
X37500000Y19450000D03*
X35700000Y19450000D03*
X36300000Y19450000D03*
X33300000Y19450000D03*
X33900000Y19450000D03*
X33900000Y11050000D03*
X33300000Y11350000D03*
X33300000Y11950000D03*
X33300000Y12550000D03*
X33300000Y13150000D03*
X33300000Y13750000D03*
X36900000Y11350000D03*
X37500000Y11350000D03*
X36900000Y11950000D03*
X37500000Y11950000D03*
X37500000Y12550000D03*
X37500000Y13150000D03*
X36900000Y13150000D03*
X36900000Y13750000D03*
X37500000Y13750000D03*
X33300000Y14350000D03*
X33900000Y14350000D03*
X36900000Y14350000D03*
X37500000Y14350000D03*
X36300000Y14350000D03*
X33300000Y14950000D03*
X33900000Y14950000D03*
X34500000Y14950000D03*
X35100000Y14950000D03*
X36900000Y14950000D03*
X37500000Y14950000D03*
X35700000Y14950000D03*
X36300000Y14950000D03*
X33300000Y15550000D03*
X33900000Y15550000D03*
X34500000Y15550000D03*
X35100000Y15550000D03*
X36900000Y15550000D03*
X37500000Y15550000D03*
X35700000Y15550000D03*
X36300000Y15550000D03*
X37500000Y18850000D03*
X36900000Y18850000D03*
X36300000Y18850000D03*
X35700000Y18850000D03*
X35100000Y18850000D03*
X34500000Y18850000D03*
X33900000Y18850000D03*
X33300000Y18850000D03*
X37500000Y16150000D03*
X36900000Y16150000D03*
X36300000Y16150000D03*
X35700000Y16150000D03*
X35100000Y16150000D03*
X34500000Y16150000D03*
X33900000Y16150000D03*
X33300000Y16150000D03*
D12*
X35100000Y22250000D03*
X35100000Y12750000D03*
%TD*%
D13*
%TO.N,GND*%
%TO.C,U102*%
X23047918Y27116367D03*
X22609512Y26677961D03*
X22171106Y26239554D03*
X21732699Y25801148D03*
X21294293Y25362742D03*
X23486324Y26677961D03*
X23047918Y26239554D03*
X22609512Y25801148D03*
X22171106Y25362742D03*
X21732699Y24924336D03*
X23924730Y26239554D03*
X23486324Y25801148D03*
X23047918Y25362742D03*
X22609512Y24924336D03*
X22171106Y24485930D03*
X24363137Y25801148D03*
X23924730Y25362742D03*
X23486324Y24924336D03*
X23047918Y24485930D03*
X22609512Y24047523D03*
X24801543Y25362742D03*
X24363137Y24924336D03*
X23924730Y24485930D03*
X23486324Y24047523D03*
X23047918Y23609117D03*
%TD*%
D10*
%TO.N,GND*%
%TO.C,H106*%
X10700000Y4500000D03*
%TD*%
%TO.N,GND*%
%TO.C,H105*%
X10700000Y30500000D03*
%TD*%
%TO.N,GND*%
%TO.C,H101*%
X33400000Y4500000D03*
%TD*%
D14*
%TO.N,GND*%
X22250000Y15850000D03*
X16200000Y15800000D03*
X18100000Y17500000D03*
X14050000Y18800000D03*
X16250000Y20650000D03*
X14700000Y20650000D03*
%TO.N,+3V3*%
X22842068Y12725000D03*
X25250000Y10325000D03*
%TO.N,GND*%
X24475000Y12450000D03*
X25150000Y13125000D03*
X25825000Y12450000D03*
X25150000Y11775000D03*
X25150000Y12450000D03*
X25200000Y15200000D03*
X22450000Y18700000D03*
X29400000Y13075000D03*
X29400000Y11975000D03*
X28025000Y12325000D03*
X30025000Y10600000D03*
X30100000Y9275000D03*
X29425000Y8875000D03*
X29050000Y8225000D03*
X28350000Y7825000D03*
X28025000Y7175000D03*
X27325000Y6800000D03*
X26975000Y6150000D03*
X25700000Y6050000D03*
X26250000Y7875000D03*
X27300000Y8900000D03*
X28325000Y9950000D03*
X19275000Y11125000D03*
X18900000Y12800000D03*
X18550000Y11750000D03*
X19750000Y9400000D03*
X18950000Y10100000D03*
X19675000Y7000000D03*
X18625000Y5975000D03*
X20400000Y5350000D03*
X17950000Y7725000D03*
X19500000Y3525000D03*
X19525000Y4900000D03*
X21375000Y6125000D03*
%TO.N,/VCCR*%
X27425000Y11600000D03*
%TO.N,+3V3*%
X28200000Y22800000D03*
X21800000Y21950000D03*
X19875000Y28375000D03*
X28775000Y27625000D03*
X25700000Y30700000D03*
%TO.N,GND*%
X27775000Y28725000D03*
X26750000Y29700000D03*
X28875000Y29825000D03*
X29925000Y28850000D03*
X27900000Y30850000D03*
X26500000Y32500000D03*
X25150000Y32525000D03*
X24675000Y31725000D03*
X26750000Y21600000D03*
X27450000Y20900000D03*
X28975000Y21025000D03*
X26325000Y20075000D03*
X24700000Y18950000D03*
X26550000Y18775000D03*
X21200000Y19800000D03*
X20100000Y18700000D03*
X21850000Y18100000D03*
X19100000Y19375000D03*
X15700000Y21200000D03*
X16450000Y21950000D03*
X18625000Y29600000D03*
X19875000Y30850000D03*
X18575000Y30900000D03*
X17325000Y29650000D03*
X17400000Y28350000D03*
X26625000Y26975000D03*
X24875000Y21500000D03*
X25250000Y21150000D03*
X25625000Y20800000D03*
X25975000Y20425000D03*
X26675000Y19725000D03*
X26950000Y19175000D03*
X27325000Y18800000D03*
X27700000Y18400000D03*
X28100000Y18000000D03*
X28725000Y17650000D03*
X29350000Y17275000D03*
X26050000Y22275000D03*
X26400000Y21950000D03*
X27100000Y21250000D03*
X27800000Y20550000D03*
X28275000Y20325000D03*
X28625000Y19975000D03*
X29000000Y19625000D03*
X29350000Y19275000D03*
X29675000Y18875000D03*
X30100000Y18625000D03*
X30600000Y18625000D03*
X31100000Y18625000D03*
X31600000Y18625000D03*
X32100000Y18625000D03*
X32575000Y18600000D03*
X28975000Y16925000D03*
X28625000Y16575000D03*
X28250000Y16200000D03*
X27875000Y15850000D03*
X27525000Y15500000D03*
X27175000Y15150000D03*
X32600000Y16400000D03*
X32050000Y16300000D03*
X31525000Y16350000D03*
X31000000Y16350000D03*
X30500000Y16350000D03*
X30100000Y16025000D03*
X29725000Y15675000D03*
X29375000Y15300000D03*
X29000000Y14950000D03*
X28625000Y14575000D03*
X28250000Y14225000D03*
X27425000Y12750000D03*
%TO.N,/VCCR*%
X27325000Y12225000D03*
X24325000Y15100000D03*
%TO.N,/VEER*%
X5325000Y20900000D03*
X5325000Y18500000D03*
%TO.N,/LOS*%
X21750000Y28975000D03*
%TO.N,+3V3*%
X17200000Y22450000D03*
%TO.N,/SDA*%
X18450000Y24450000D03*
%TO.N,/CSEL*%
X17200000Y23700000D03*
%TO.N,/SCL*%
X18385998Y25200000D03*
%TO.N,GND*%
X25200000Y16700000D03*
X21950000Y16700000D03*
%TO.N,/COMP_VOLTAGE*%
X12950000Y18200000D03*
X19200000Y18200000D03*
X24450000Y17700000D03*
%TO.N,/DISABLE*%
X18950000Y26200000D03*
%TO.N,GND*%
X23700000Y19950000D03*
%TO.N,+3V3*%
X25700000Y19200000D03*
%TO.N,/FAULT*%
X28950000Y24700000D03*
%TO.N,/COMP_OUT*%
X19700000Y2450000D03*
X8450000Y13200000D03*
X8450000Y21450000D03*
%TO.N,/DISABLE*%
X14463909Y16686091D03*
%TO.N,+3V3*%
X18200000Y16700000D03*
%TO.N,/LOS*%
X13700000Y24950000D03*
%TO.N,+3V3*%
X9450000Y24950000D03*
X9350000Y18600000D03*
%TO.N,/VEER*%
X25075000Y9325000D03*
X5490872Y13880177D03*
%TO.N,/VCCR*%
X7525000Y18625000D03*
%TO.N,GND*%
X6050000Y21775000D03*
X6275000Y21200000D03*
X6825000Y20950000D03*
X10800000Y18600000D03*
X11900000Y18600000D03*
X5975000Y13150000D03*
X6825000Y13300000D03*
X7575000Y13250000D03*
X9400000Y13300000D03*
X11450000Y13300000D03*
X12900000Y9750000D03*
X12950000Y11825000D03*
X11350000Y11300000D03*
X15350000Y9400000D03*
X15575000Y7025000D03*
X11650000Y20800000D03*
X13100000Y20675000D03*
X13250000Y22425000D03*
X15200000Y22675000D03*
X15675000Y24825000D03*
X17625000Y25750000D03*
X18100000Y27225000D03*
X13450000Y13350000D03*
X14975000Y13950000D03*
X17500000Y13925000D03*
X19125000Y13900000D03*
X15100000Y11900000D03*
X16775000Y10125000D03*
X17350000Y3200000D03*
X18625000Y1450000D03*
X16500000Y1550000D03*
X15550000Y2775000D03*
X15100000Y4650000D03*
X13500000Y6575000D03*
X11850000Y8225000D03*
X10200000Y10025000D03*
X19275000Y15900000D03*
X24150000Y4050000D03*
X22625000Y2650000D03*
X21300000Y31325000D03*
X23275000Y32425000D03*
X15975000Y27375000D03*
X14650000Y26300000D03*
X12050000Y23550000D03*
X10525000Y21850000D03*
X9300000Y20775000D03*
%TD*%
%TO.N,GND*%
G36*
X37551001Y349000D02*
G01*
X6549000Y349000D01*
X6549000Y2542769D01*
X19124000Y2542769D01*
X19124000Y2357231D01*
X19127008Y2340171D01*
X19190467Y2165822D01*
X19199128Y2150820D01*
X19318390Y2008689D01*
X19331660Y1997554D01*
X19492341Y1904785D01*
X19508619Y1898860D01*
X19691339Y1866642D01*
X19708661Y1866642D01*
X19891381Y1898860D01*
X19907659Y1904785D01*
X20068340Y1997554D01*
X20081610Y2008689D01*
X20200872Y2150820D01*
X20209533Y2165822D01*
X20272992Y2340171D01*
X20276000Y2357231D01*
X20276000Y2542769D01*
X20272992Y2559829D01*
X20209533Y2734178D01*
X20200872Y2749180D01*
X20081610Y2891311D01*
X20068340Y2902446D01*
X19907659Y2995215D01*
X19891381Y3001140D01*
X19708661Y3033358D01*
X19691339Y3033358D01*
X19508619Y3001140D01*
X19492341Y2995215D01*
X19331660Y2902446D01*
X19318390Y2891311D01*
X19199128Y2749180D01*
X19190467Y2734178D01*
X19127008Y2559829D01*
X19124000Y2542769D01*
X6549000Y2542769D01*
X6549000Y9417769D01*
X24499000Y9417769D01*
X24499000Y9232231D01*
X24502008Y9215171D01*
X24565467Y9040822D01*
X24574128Y9025820D01*
X24693390Y8883689D01*
X24706660Y8872554D01*
X24867341Y8779785D01*
X24883619Y8773860D01*
X25066339Y8741642D01*
X25083661Y8741642D01*
X25266381Y8773860D01*
X25282659Y8779785D01*
X25443340Y8872554D01*
X25456610Y8883689D01*
X25575872Y9025820D01*
X25584533Y9040822D01*
X25647992Y9215171D01*
X25651000Y9232231D01*
X25651000Y9417769D01*
X25647992Y9434829D01*
X25584533Y9609178D01*
X25575872Y9624180D01*
X25456610Y9766311D01*
X25445728Y9775442D01*
X25457659Y9779785D01*
X25618340Y9872554D01*
X25631610Y9883689D01*
X25750872Y10025820D01*
X25759533Y10040822D01*
X25822992Y10215171D01*
X25826000Y10232231D01*
X25826000Y10417769D01*
X25822992Y10434829D01*
X25759533Y10609178D01*
X25750872Y10624180D01*
X25631610Y10766311D01*
X25618340Y10777446D01*
X25457659Y10870215D01*
X25441381Y10876140D01*
X25258661Y10908358D01*
X25241339Y10908358D01*
X25058619Y10876140D01*
X25042341Y10870215D01*
X24881660Y10777446D01*
X24868390Y10766311D01*
X24749128Y10624180D01*
X24740467Y10609178D01*
X24677008Y10434829D01*
X24674000Y10417769D01*
X24674000Y10232231D01*
X24677008Y10215171D01*
X24740467Y10040822D01*
X24749128Y10025820D01*
X24868390Y9883689D01*
X24879272Y9874558D01*
X24867341Y9870215D01*
X24706660Y9777446D01*
X24693390Y9766311D01*
X24574128Y9624180D01*
X24565467Y9609178D01*
X24502008Y9434829D01*
X24499000Y9417769D01*
X6549000Y9417769D01*
X6549000Y11674830D01*
X6553222Y11703949D01*
X6553668Y11713666D01*
X6546585Y11848814D01*
X6545126Y11858431D01*
X6542426Y11869062D01*
X6542426Y11880024D01*
X6541473Y11889705D01*
X6496733Y12114630D01*
X6493909Y12123938D01*
X6487056Y12140484D01*
X6483792Y12158095D01*
X6481090Y12167440D01*
X6396110Y12380446D01*
X6391637Y12389084D01*
X6381880Y12404108D01*
X6375463Y12420825D01*
X6371104Y12429521D01*
X6248730Y12623472D01*
X6242758Y12631150D01*
X6230432Y12644139D01*
X6221073Y12659412D01*
X6215201Y12667169D01*
X6059530Y12835572D01*
X6052259Y12842033D01*
X6037769Y12852560D01*
X6025786Y12865870D01*
X6018599Y12872426D01*
X5834845Y13009641D01*
X5826518Y13014669D01*
X5810356Y13022377D01*
X5796149Y13033279D01*
X5787888Y13038417D01*
X5582206Y13139849D01*
X5573101Y13143276D01*
X5555801Y13147911D01*
X5539844Y13156042D01*
X5530785Y13159588D01*
X5310064Y13221837D01*
X5300488Y13223547D01*
X5282634Y13224953D01*
X5265459Y13230040D01*
X5255908Y13231875D01*
X5027538Y13252859D01*
X5017811Y13252795D01*
X4981702Y13249000D01*
X4149000Y13249000D01*
X4149000Y13292769D01*
X7874000Y13292769D01*
X7874000Y13107231D01*
X7877008Y13090171D01*
X7940467Y12915822D01*
X7949128Y12900820D01*
X8068390Y12758689D01*
X8081660Y12747554D01*
X8242341Y12654785D01*
X8258619Y12648860D01*
X8441339Y12616642D01*
X8458661Y12616642D01*
X8641381Y12648860D01*
X8657659Y12654785D01*
X8818340Y12747554D01*
X8831610Y12758689D01*
X8881183Y12817769D01*
X22266068Y12817769D01*
X22266068Y12632231D01*
X22269076Y12615171D01*
X22332535Y12440822D01*
X22341196Y12425820D01*
X22460458Y12283689D01*
X22473728Y12272554D01*
X22634409Y12179785D01*
X22650687Y12173860D01*
X22833407Y12141642D01*
X22850729Y12141642D01*
X23033449Y12173860D01*
X23049727Y12179785D01*
X23210408Y12272554D01*
X23223678Y12283689D01*
X23252274Y12317769D01*
X26749000Y12317769D01*
X26749000Y12132231D01*
X26752008Y12115171D01*
X26815467Y11940822D01*
X26824128Y11925820D01*
X26898405Y11837301D01*
X26852008Y11709829D01*
X26849000Y11692769D01*
X26849000Y11507231D01*
X26852008Y11490171D01*
X26915467Y11315822D01*
X26924128Y11300820D01*
X27043390Y11158689D01*
X27056660Y11147554D01*
X27217341Y11054785D01*
X27233619Y11048860D01*
X27416339Y11016642D01*
X27433661Y11016642D01*
X27616381Y11048860D01*
X27632659Y11054785D01*
X27793340Y11147554D01*
X27806610Y11158689D01*
X27925872Y11300820D01*
X27934533Y11315822D01*
X27997992Y11490171D01*
X28001000Y11507231D01*
X28001000Y11692769D01*
X27997992Y11709829D01*
X27934533Y11884178D01*
X27925872Y11899180D01*
X27851595Y11987699D01*
X27897992Y12115171D01*
X27901000Y12132231D01*
X27901000Y12317769D01*
X27897992Y12334829D01*
X27834533Y12509178D01*
X27825872Y12524180D01*
X27706610Y12666311D01*
X27693340Y12677446D01*
X27532659Y12770215D01*
X27516381Y12776140D01*
X27333661Y12808358D01*
X27316339Y12808358D01*
X27133619Y12776140D01*
X27117341Y12770215D01*
X26956660Y12677446D01*
X26943390Y12666311D01*
X26824128Y12524180D01*
X26815467Y12509178D01*
X26752008Y12334829D01*
X26749000Y12317769D01*
X23252274Y12317769D01*
X23342940Y12425820D01*
X23351601Y12440822D01*
X23415060Y12615171D01*
X23418068Y12632231D01*
X23418068Y12817769D01*
X23415060Y12834829D01*
X23351601Y13009178D01*
X23342940Y13024180D01*
X23223678Y13166311D01*
X23210408Y13177446D01*
X23049727Y13270215D01*
X23033449Y13276140D01*
X22850729Y13308358D01*
X22833407Y13308358D01*
X22650687Y13276140D01*
X22634409Y13270215D01*
X22473728Y13177446D01*
X22460458Y13166311D01*
X22341196Y13024180D01*
X22332535Y13009178D01*
X22269076Y12834829D01*
X22266068Y12817769D01*
X8881183Y12817769D01*
X8950872Y12900820D01*
X8959533Y12915822D01*
X9022992Y13090171D01*
X9026000Y13107231D01*
X9026000Y13292769D01*
X9022992Y13309829D01*
X8959533Y13484178D01*
X8950872Y13499180D01*
X8831610Y13641311D01*
X8818340Y13652446D01*
X8657659Y13745215D01*
X8641381Y13751140D01*
X8458661Y13783358D01*
X8441339Y13783358D01*
X8258619Y13751140D01*
X8242341Y13745215D01*
X8081660Y13652446D01*
X8068390Y13641311D01*
X7949128Y13499180D01*
X7940467Y13484178D01*
X7877008Y13309829D01*
X7874000Y13292769D01*
X4149000Y13292769D01*
X4149000Y13972946D01*
X4914872Y13972946D01*
X4914872Y13787408D01*
X4917880Y13770348D01*
X4981339Y13595999D01*
X4990000Y13580997D01*
X5109262Y13438866D01*
X5122532Y13427731D01*
X5283213Y13334962D01*
X5299491Y13329037D01*
X5482211Y13296819D01*
X5499533Y13296819D01*
X5682253Y13329037D01*
X5698531Y13334962D01*
X5859212Y13427731D01*
X5872482Y13438866D01*
X5991744Y13580997D01*
X6000405Y13595999D01*
X6063864Y13770348D01*
X6066872Y13787408D01*
X6066872Y13972946D01*
X6063864Y13990006D01*
X6000405Y14164355D01*
X5991744Y14179357D01*
X5872482Y14321488D01*
X5859212Y14332623D01*
X5698531Y14425392D01*
X5682253Y14431317D01*
X5499533Y14463535D01*
X5482211Y14463535D01*
X5299491Y14431317D01*
X5283213Y14425392D01*
X5122532Y14332623D01*
X5109262Y14321488D01*
X4990000Y14179357D01*
X4981339Y14164355D01*
X4917880Y13990006D01*
X4914872Y13972946D01*
X4149000Y13972946D01*
X4149000Y15192769D01*
X23749000Y15192769D01*
X23749000Y15007231D01*
X23752008Y14990171D01*
X23815467Y14815822D01*
X23824128Y14800820D01*
X23943390Y14658689D01*
X23956660Y14647554D01*
X24117341Y14554785D01*
X24133619Y14548860D01*
X24316339Y14516642D01*
X24333661Y14516642D01*
X24516381Y14548860D01*
X24532659Y14554785D01*
X24693340Y14647554D01*
X24706610Y14658689D01*
X24825872Y14800820D01*
X24834533Y14815822D01*
X24897992Y14990171D01*
X24901000Y15007231D01*
X24901000Y15192769D01*
X24897992Y15209829D01*
X24834533Y15384178D01*
X24825872Y15399180D01*
X24706610Y15541311D01*
X24693340Y15552446D01*
X24532659Y15645215D01*
X24516381Y15651140D01*
X24333661Y15683358D01*
X24316339Y15683358D01*
X24133619Y15651140D01*
X24117341Y15645215D01*
X23956660Y15552446D01*
X23943390Y15541311D01*
X23824128Y15399180D01*
X23815467Y15384178D01*
X23752008Y15209829D01*
X23749000Y15192769D01*
X4149000Y15192769D01*
X4149000Y16778860D01*
X13887909Y16778860D01*
X13887909Y16593322D01*
X13890917Y16576262D01*
X13954376Y16401913D01*
X13963037Y16386911D01*
X14082299Y16244780D01*
X14095569Y16233645D01*
X14256250Y16140876D01*
X14272528Y16134951D01*
X14455248Y16102733D01*
X14472570Y16102733D01*
X14655290Y16134951D01*
X14671568Y16140876D01*
X14832249Y16233645D01*
X14845519Y16244780D01*
X14964781Y16386911D01*
X14973442Y16401913D01*
X15036901Y16576262D01*
X15039909Y16593322D01*
X15039909Y16778860D01*
X15037457Y16792769D01*
X17624000Y16792769D01*
X17624000Y16607231D01*
X17627008Y16590171D01*
X17690467Y16415822D01*
X17699128Y16400820D01*
X17818390Y16258689D01*
X17831660Y16247554D01*
X17992341Y16154785D01*
X18008619Y16148860D01*
X18191339Y16116642D01*
X18208661Y16116642D01*
X18391381Y16148860D01*
X18407659Y16154785D01*
X18568340Y16247554D01*
X18581610Y16258689D01*
X18700872Y16400820D01*
X18709533Y16415822D01*
X18772992Y16590171D01*
X18776000Y16607231D01*
X18776000Y16792769D01*
X18772992Y16809829D01*
X18709533Y16984178D01*
X18700872Y16999180D01*
X18581610Y17141311D01*
X18568340Y17152446D01*
X18407659Y17245215D01*
X18391381Y17251140D01*
X18208661Y17283358D01*
X18191339Y17283358D01*
X18008619Y17251140D01*
X17992341Y17245215D01*
X17831660Y17152446D01*
X17818390Y17141311D01*
X17699128Y16999180D01*
X17690467Y16984178D01*
X17627008Y16809829D01*
X17624000Y16792769D01*
X15037457Y16792769D01*
X15036901Y16795920D01*
X14973442Y16970269D01*
X14964781Y16985271D01*
X14845519Y17127402D01*
X14832249Y17138537D01*
X14671568Y17231306D01*
X14655290Y17237231D01*
X14472570Y17269449D01*
X14455248Y17269449D01*
X14272528Y17237231D01*
X14256250Y17231306D01*
X14095569Y17138537D01*
X14082299Y17127402D01*
X13963037Y16985271D01*
X13954376Y16970269D01*
X13890917Y16795920D01*
X13887909Y16778860D01*
X4149000Y16778860D01*
X4149000Y18592769D01*
X4749000Y18592769D01*
X4749000Y18407231D01*
X4752008Y18390171D01*
X4815467Y18215822D01*
X4824128Y18200820D01*
X4943390Y18058689D01*
X4956660Y18047554D01*
X5117341Y17954785D01*
X5133619Y17948860D01*
X5316339Y17916642D01*
X5333661Y17916642D01*
X5516381Y17948860D01*
X5532659Y17954785D01*
X5693340Y18047554D01*
X5706610Y18058689D01*
X5825872Y18200820D01*
X5834533Y18215822D01*
X5897992Y18390171D01*
X5901000Y18407231D01*
X5901000Y18592769D01*
X5897992Y18609829D01*
X5858705Y18717769D01*
X6949000Y18717769D01*
X6949000Y18532231D01*
X6952008Y18515171D01*
X7015467Y18340822D01*
X7024128Y18325820D01*
X7143390Y18183689D01*
X7156660Y18172554D01*
X7317341Y18079785D01*
X7333619Y18073860D01*
X7516339Y18041642D01*
X7533661Y18041642D01*
X7716381Y18073860D01*
X7732659Y18079785D01*
X7893340Y18172554D01*
X7906610Y18183689D01*
X8025872Y18325820D01*
X8034533Y18340822D01*
X8097992Y18515171D01*
X8101000Y18532231D01*
X8101000Y18692769D01*
X8774000Y18692769D01*
X8774000Y18507231D01*
X8777008Y18490171D01*
X8840467Y18315822D01*
X8849128Y18300820D01*
X8968390Y18158689D01*
X8981660Y18147554D01*
X9142341Y18054785D01*
X9158619Y18048860D01*
X9341339Y18016642D01*
X9358661Y18016642D01*
X9541381Y18048860D01*
X9557659Y18054785D01*
X9718340Y18147554D01*
X9731610Y18158689D01*
X9844116Y18292769D01*
X12374000Y18292769D01*
X12374000Y18107231D01*
X12377008Y18090171D01*
X12440467Y17915822D01*
X12449128Y17900820D01*
X12568390Y17758689D01*
X12581660Y17747554D01*
X12742341Y17654785D01*
X12758619Y17648860D01*
X12941339Y17616642D01*
X12958661Y17616642D01*
X13141381Y17648860D01*
X13157659Y17654785D01*
X13318340Y17747554D01*
X13331610Y17758689D01*
X13450872Y17900820D01*
X13459533Y17915822D01*
X13522992Y18090171D01*
X13526000Y18107231D01*
X13526000Y18292769D01*
X18624000Y18292769D01*
X18624000Y18107231D01*
X18627008Y18090171D01*
X18690467Y17915822D01*
X18699128Y17900820D01*
X18818390Y17758689D01*
X18831660Y17747554D01*
X18992341Y17654785D01*
X19008619Y17648860D01*
X19191339Y17616642D01*
X19208661Y17616642D01*
X19391381Y17648860D01*
X19407659Y17654785D01*
X19568340Y17747554D01*
X19581610Y17758689D01*
X19610206Y17792769D01*
X23874000Y17792769D01*
X23874000Y17607231D01*
X23877008Y17590171D01*
X23940467Y17415822D01*
X23949128Y17400820D01*
X24068390Y17258689D01*
X24081660Y17247554D01*
X24242341Y17154785D01*
X24258619Y17148860D01*
X24441339Y17116642D01*
X24458661Y17116642D01*
X24641381Y17148860D01*
X24657659Y17154785D01*
X24818340Y17247554D01*
X24831610Y17258689D01*
X24950872Y17400820D01*
X24959533Y17415822D01*
X25022992Y17590171D01*
X25026000Y17607231D01*
X25026000Y17792769D01*
X25022992Y17809829D01*
X24959533Y17984178D01*
X24950872Y17999180D01*
X24831610Y18141311D01*
X24818340Y18152446D01*
X24657659Y18245215D01*
X24641381Y18251140D01*
X24458661Y18283358D01*
X24441339Y18283358D01*
X24258619Y18251140D01*
X24242341Y18245215D01*
X24081660Y18152446D01*
X24068390Y18141311D01*
X23949128Y17999180D01*
X23940467Y17984178D01*
X23877008Y17809829D01*
X23874000Y17792769D01*
X19610206Y17792769D01*
X19700872Y17900820D01*
X19709533Y17915822D01*
X19772992Y18090171D01*
X19776000Y18107231D01*
X19776000Y18292769D01*
X19772992Y18309829D01*
X19709533Y18484178D01*
X19700872Y18499180D01*
X19581610Y18641311D01*
X19568340Y18652446D01*
X19407659Y18745215D01*
X19391381Y18751140D01*
X19208661Y18783358D01*
X19191339Y18783358D01*
X19008619Y18751140D01*
X18992341Y18745215D01*
X18831660Y18652446D01*
X18818390Y18641311D01*
X18699128Y18499180D01*
X18690467Y18484178D01*
X18627008Y18309829D01*
X18624000Y18292769D01*
X13526000Y18292769D01*
X13522992Y18309829D01*
X13459533Y18484178D01*
X13450872Y18499180D01*
X13331610Y18641311D01*
X13318340Y18652446D01*
X13157659Y18745215D01*
X13141381Y18751140D01*
X12958661Y18783358D01*
X12941339Y18783358D01*
X12758619Y18751140D01*
X12742341Y18745215D01*
X12581660Y18652446D01*
X12568390Y18641311D01*
X12449128Y18499180D01*
X12440467Y18484178D01*
X12377008Y18309829D01*
X12374000Y18292769D01*
X9844116Y18292769D01*
X9850872Y18300820D01*
X9859533Y18315822D01*
X9922992Y18490171D01*
X9926000Y18507231D01*
X9926000Y18692769D01*
X9922992Y18709829D01*
X9859533Y18884178D01*
X9850872Y18899180D01*
X9731610Y19041311D01*
X9718340Y19052446D01*
X9557659Y19145215D01*
X9541381Y19151140D01*
X9358661Y19183358D01*
X9341339Y19183358D01*
X9158619Y19151140D01*
X9142341Y19145215D01*
X8981660Y19052446D01*
X8968390Y19041311D01*
X8849128Y18899180D01*
X8840467Y18884178D01*
X8777008Y18709829D01*
X8774000Y18692769D01*
X8101000Y18692769D01*
X8101000Y18717769D01*
X8097992Y18734829D01*
X8034533Y18909178D01*
X8025872Y18924180D01*
X7906610Y19066311D01*
X7893340Y19077446D01*
X7732659Y19170215D01*
X7716381Y19176140D01*
X7533661Y19208358D01*
X7516339Y19208358D01*
X7333619Y19176140D01*
X7317341Y19170215D01*
X7156660Y19077446D01*
X7143390Y19066311D01*
X7024128Y18924180D01*
X7015467Y18909178D01*
X6952008Y18734829D01*
X6949000Y18717769D01*
X5858705Y18717769D01*
X5834533Y18784178D01*
X5825872Y18799180D01*
X5706610Y18941311D01*
X5693340Y18952446D01*
X5532659Y19045215D01*
X5516381Y19051140D01*
X5333661Y19083358D01*
X5316339Y19083358D01*
X5133619Y19051140D01*
X5117341Y19045215D01*
X4956660Y18952446D01*
X4943390Y18941311D01*
X4824128Y18799180D01*
X4815467Y18784178D01*
X4752008Y18609829D01*
X4749000Y18592769D01*
X4149000Y18592769D01*
X4149000Y19292769D01*
X25124000Y19292769D01*
X25124000Y19107231D01*
X25127008Y19090171D01*
X25190467Y18915822D01*
X25199128Y18900820D01*
X25318390Y18758689D01*
X25331660Y18747554D01*
X25492341Y18654785D01*
X25508619Y18648860D01*
X25691339Y18616642D01*
X25708661Y18616642D01*
X25891381Y18648860D01*
X25907659Y18654785D01*
X26068340Y18747554D01*
X26081610Y18758689D01*
X26200872Y18900820D01*
X26209533Y18915822D01*
X26272992Y19090171D01*
X26276000Y19107231D01*
X26276000Y19292769D01*
X26272992Y19309829D01*
X26227287Y19435402D01*
X26906566Y19435402D01*
X28476065Y17826990D01*
X28556714Y17825066D01*
X29529403Y18731133D01*
X29531058Y18814958D01*
X27935515Y20423473D01*
X27854522Y20424511D01*
X26907962Y19517946D01*
X26906566Y19435402D01*
X26227287Y19435402D01*
X26209533Y19484178D01*
X26200872Y19499180D01*
X26081610Y19641311D01*
X26068340Y19652446D01*
X25907659Y19745215D01*
X25891381Y19751140D01*
X25708661Y19783358D01*
X25691339Y19783358D01*
X25508619Y19751140D01*
X25492341Y19745215D01*
X25331660Y19652446D01*
X25318390Y19641311D01*
X25199128Y19499180D01*
X25190467Y19484178D01*
X25127008Y19309829D01*
X25124000Y19292769D01*
X4149000Y19292769D01*
X4149000Y20992769D01*
X4749000Y20992769D01*
X4749000Y20807231D01*
X4752008Y20790171D01*
X4815467Y20615822D01*
X4824128Y20600820D01*
X4943390Y20458689D01*
X4956660Y20447554D01*
X5117341Y20354785D01*
X5133619Y20348860D01*
X5316339Y20316642D01*
X5333661Y20316642D01*
X5516381Y20348860D01*
X5532659Y20354785D01*
X5693340Y20447554D01*
X5706610Y20458689D01*
X5825872Y20600820D01*
X5834533Y20615822D01*
X5897992Y20790171D01*
X5901000Y20807231D01*
X5901000Y20992769D01*
X5897992Y21009829D01*
X5834533Y21184178D01*
X5825872Y21199180D01*
X5706610Y21341311D01*
X5693340Y21352446D01*
X5532659Y21445215D01*
X5516381Y21451140D01*
X5333661Y21483358D01*
X5316339Y21483358D01*
X5133619Y21451140D01*
X5117341Y21445215D01*
X4956660Y21352446D01*
X4943390Y21341311D01*
X4824128Y21199180D01*
X4815467Y21184178D01*
X4752008Y21009829D01*
X4749000Y20992769D01*
X4149000Y20992769D01*
X4149000Y21542769D01*
X7874000Y21542769D01*
X7874000Y21357231D01*
X7877008Y21340171D01*
X7940467Y21165822D01*
X7949128Y21150820D01*
X8068390Y21008689D01*
X8081660Y20997554D01*
X8242341Y20904785D01*
X8258619Y20898860D01*
X8441339Y20866642D01*
X8458661Y20866642D01*
X8641381Y20898860D01*
X8657659Y20904785D01*
X8818340Y20997554D01*
X8831610Y21008689D01*
X8950872Y21150820D01*
X8959533Y21165822D01*
X9022992Y21340171D01*
X9026000Y21357231D01*
X9026000Y21542769D01*
X9022992Y21559829D01*
X8959533Y21734178D01*
X8950872Y21749180D01*
X8831610Y21891311D01*
X8818340Y21902446D01*
X8657659Y21995215D01*
X8641381Y22001140D01*
X8458661Y22033358D01*
X8441339Y22033358D01*
X8258619Y22001140D01*
X8242341Y21995215D01*
X8081660Y21902446D01*
X8068390Y21891311D01*
X7949128Y21749180D01*
X7940467Y21734178D01*
X7877008Y21559829D01*
X7874000Y21542769D01*
X4149000Y21542769D01*
X4149000Y21751000D01*
X4974830Y21751000D01*
X5003949Y21746778D01*
X5013666Y21746332D01*
X5148814Y21753415D01*
X5158431Y21754874D01*
X5169062Y21757574D01*
X5180025Y21757574D01*
X5189706Y21758527D01*
X5414630Y21803267D01*
X5423938Y21806091D01*
X5440484Y21812944D01*
X5458095Y21816208D01*
X5467440Y21818910D01*
X5680446Y21903890D01*
X5689084Y21908363D01*
X5704108Y21918120D01*
X5720825Y21924537D01*
X5729521Y21928896D01*
X5923473Y22051270D01*
X5931152Y22057242D01*
X5944146Y22069573D01*
X5959413Y22078929D01*
X5967169Y22084800D01*
X6135572Y22240470D01*
X6142033Y22247741D01*
X6152560Y22262231D01*
X6165870Y22274214D01*
X6172426Y22281401D01*
X6309640Y22465154D01*
X6314668Y22473481D01*
X6322377Y22489644D01*
X6333281Y22503853D01*
X6338418Y22512114D01*
X6353535Y22542769D01*
X16624000Y22542769D01*
X16624000Y22357231D01*
X16627008Y22340171D01*
X16690467Y22165822D01*
X16699128Y22150820D01*
X16818390Y22008689D01*
X16831660Y21997554D01*
X16992341Y21904785D01*
X17008619Y21898860D01*
X17191339Y21866642D01*
X17208661Y21866642D01*
X17391381Y21898860D01*
X17407659Y21904785D01*
X17568340Y21997554D01*
X17581610Y22008689D01*
X17610206Y22042769D01*
X21224000Y22042769D01*
X21224000Y21857231D01*
X21227008Y21840171D01*
X21290467Y21665822D01*
X21299128Y21650820D01*
X21418390Y21508689D01*
X21431660Y21497554D01*
X21592341Y21404785D01*
X21608619Y21398860D01*
X21791339Y21366642D01*
X21808661Y21366642D01*
X21991381Y21398860D01*
X22007659Y21404785D01*
X22168340Y21497554D01*
X22181610Y21508689D01*
X22300872Y21650820D01*
X22309533Y21665822D01*
X22372992Y21840171D01*
X22376000Y21857231D01*
X22376000Y22042769D01*
X22372992Y22059829D01*
X22309533Y22234178D01*
X22300872Y22249180D01*
X22181610Y22391311D01*
X22168340Y22402446D01*
X22007659Y22495215D01*
X21991381Y22501140D01*
X21808661Y22533358D01*
X21791339Y22533358D01*
X21608619Y22501140D01*
X21592341Y22495215D01*
X21431660Y22402446D01*
X21418390Y22391311D01*
X21299128Y22249180D01*
X21290467Y22234178D01*
X21227008Y22059829D01*
X21224000Y22042769D01*
X17610206Y22042769D01*
X17700872Y22150820D01*
X17709533Y22165822D01*
X17772992Y22340171D01*
X17776000Y22357231D01*
X17776000Y22542769D01*
X17772992Y22559829D01*
X17709533Y22734178D01*
X17700872Y22749180D01*
X17581610Y22891311D01*
X17579873Y22892769D01*
X27624000Y22892769D01*
X27624000Y22707231D01*
X27627008Y22690171D01*
X27690467Y22515822D01*
X27699128Y22500820D01*
X27818390Y22358689D01*
X27831660Y22347554D01*
X27992341Y22254785D01*
X28008619Y22248860D01*
X28191339Y22216642D01*
X28208661Y22216642D01*
X28391381Y22248860D01*
X28407659Y22254785D01*
X28568340Y22347554D01*
X28581610Y22358689D01*
X28700872Y22500820D01*
X28709533Y22515822D01*
X28772992Y22690171D01*
X28776000Y22707231D01*
X28776000Y22892769D01*
X28772992Y22909829D01*
X28709533Y23084178D01*
X28700872Y23099180D01*
X28581610Y23241311D01*
X28568340Y23252446D01*
X28407659Y23345215D01*
X28391381Y23351140D01*
X28208661Y23383358D01*
X28191339Y23383358D01*
X28008619Y23351140D01*
X27992341Y23345215D01*
X27831660Y23252446D01*
X27818390Y23241311D01*
X27699128Y23099180D01*
X27690467Y23084178D01*
X27627008Y22909829D01*
X27624000Y22892769D01*
X17579873Y22892769D01*
X17568340Y22902446D01*
X17407659Y22995215D01*
X17391381Y23001140D01*
X17208661Y23033358D01*
X17191339Y23033358D01*
X17008619Y23001140D01*
X16992341Y22995215D01*
X16831660Y22902446D01*
X16818390Y22891311D01*
X16699128Y22749180D01*
X16690467Y22734178D01*
X16627008Y22559829D01*
X16624000Y22542769D01*
X6353535Y22542769D01*
X6439850Y22717794D01*
X6443276Y22726899D01*
X6447911Y22744199D01*
X6456042Y22760156D01*
X6459588Y22769215D01*
X6521837Y22989936D01*
X6523547Y22999512D01*
X6524953Y23017366D01*
X6530040Y23034541D01*
X6531875Y23044092D01*
X6552859Y23272460D01*
X6552795Y23282187D01*
X6549000Y23318298D01*
X6549000Y23792769D01*
X16624000Y23792769D01*
X16624000Y23607231D01*
X16627008Y23590171D01*
X16690467Y23415822D01*
X16699128Y23400820D01*
X16818390Y23258689D01*
X16831660Y23247554D01*
X16992341Y23154785D01*
X17008619Y23148860D01*
X17191339Y23116642D01*
X17208661Y23116642D01*
X17391381Y23148860D01*
X17407659Y23154785D01*
X17568340Y23247554D01*
X17581610Y23258689D01*
X17700872Y23400820D01*
X17709533Y23415822D01*
X17772992Y23590171D01*
X17776000Y23607231D01*
X17776000Y23792769D01*
X17772992Y23809829D01*
X17709533Y23984178D01*
X17700872Y23999180D01*
X17581610Y24141311D01*
X17568340Y24152446D01*
X17407659Y24245215D01*
X17391381Y24251140D01*
X17208661Y24283358D01*
X17191339Y24283358D01*
X17008619Y24251140D01*
X16992341Y24245215D01*
X16831660Y24152446D01*
X16818390Y24141311D01*
X16699128Y23999180D01*
X16690467Y23984178D01*
X16627008Y23809829D01*
X16624000Y23792769D01*
X6549000Y23792769D01*
X6549000Y25042769D01*
X8874000Y25042769D01*
X8874000Y24857231D01*
X8877008Y24840171D01*
X8940467Y24665822D01*
X8949128Y24650820D01*
X9068390Y24508689D01*
X9081660Y24497554D01*
X9242341Y24404785D01*
X9258619Y24398860D01*
X9441339Y24366642D01*
X9458661Y24366642D01*
X9641381Y24398860D01*
X9657659Y24404785D01*
X9818340Y24497554D01*
X9831610Y24508689D01*
X9950872Y24650820D01*
X9959533Y24665822D01*
X10022992Y24840171D01*
X10026000Y24857231D01*
X10026000Y25042769D01*
X13124000Y25042769D01*
X13124000Y24857231D01*
X13127008Y24840171D01*
X13190467Y24665822D01*
X13199128Y24650820D01*
X13318390Y24508689D01*
X13331660Y24497554D01*
X13492341Y24404785D01*
X13508619Y24398860D01*
X13691339Y24366642D01*
X13708661Y24366642D01*
X13891381Y24398860D01*
X13907659Y24404785D01*
X14068340Y24497554D01*
X14081610Y24508689D01*
X14200872Y24650820D01*
X14209533Y24665822D01*
X14272992Y24840171D01*
X14276000Y24857231D01*
X14276000Y25042769D01*
X14272992Y25059829D01*
X14209533Y25234178D01*
X14200872Y25249180D01*
X14164297Y25292769D01*
X17809998Y25292769D01*
X17809998Y25107231D01*
X17813006Y25090171D01*
X17876465Y24915822D01*
X17885126Y24900820D01*
X17980748Y24786863D01*
X17949128Y24749180D01*
X17940467Y24734178D01*
X17877008Y24559829D01*
X17874000Y24542769D01*
X17874000Y24357231D01*
X17877008Y24340171D01*
X17940467Y24165822D01*
X17949128Y24150820D01*
X18068390Y24008689D01*
X18081660Y23997554D01*
X18242341Y23904785D01*
X18258619Y23898860D01*
X18441339Y23866642D01*
X18458661Y23866642D01*
X18641381Y23898860D01*
X18657659Y23904785D01*
X18818340Y23997554D01*
X18831610Y24008689D01*
X18950872Y24150820D01*
X18959533Y24165822D01*
X19022992Y24340171D01*
X19026000Y24357231D01*
X19026000Y24542769D01*
X19022992Y24559829D01*
X18959533Y24734178D01*
X18950872Y24749180D01*
X18914297Y24792769D01*
X28374000Y24792769D01*
X28374000Y24607231D01*
X28377008Y24590171D01*
X28440467Y24415822D01*
X28449128Y24400820D01*
X28568390Y24258689D01*
X28581660Y24247554D01*
X28742341Y24154785D01*
X28758619Y24148860D01*
X28941339Y24116642D01*
X28958661Y24116642D01*
X29141381Y24148860D01*
X29157659Y24154785D01*
X29318340Y24247554D01*
X29331610Y24258689D01*
X29450872Y24400820D01*
X29459533Y24415822D01*
X29522992Y24590171D01*
X29526000Y24607231D01*
X29526000Y24792769D01*
X29522992Y24809829D01*
X29459533Y24984178D01*
X29450872Y24999180D01*
X29331610Y25141311D01*
X29318340Y25152446D01*
X29157659Y25245215D01*
X29141381Y25251140D01*
X28958661Y25283358D01*
X28941339Y25283358D01*
X28758619Y25251140D01*
X28742341Y25245215D01*
X28581660Y25152446D01*
X28568390Y25141311D01*
X28449128Y24999180D01*
X28440467Y24984178D01*
X28377008Y24809829D01*
X28374000Y24792769D01*
X18914297Y24792769D01*
X18855250Y24863137D01*
X18886870Y24900820D01*
X18895531Y24915822D01*
X18958990Y25090171D01*
X18961998Y25107231D01*
X18961998Y25292769D01*
X18958990Y25309829D01*
X18895531Y25484178D01*
X18886870Y25499180D01*
X18767608Y25641311D01*
X18758606Y25648865D01*
X18758619Y25648860D01*
X18941339Y25616642D01*
X18958661Y25616642D01*
X19141381Y25648860D01*
X19157659Y25654785D01*
X19318340Y25747554D01*
X19331610Y25758689D01*
X19450872Y25900820D01*
X19459533Y25915822D01*
X19522992Y26090171D01*
X19526000Y26107231D01*
X19526000Y26292769D01*
X19522992Y26309829D01*
X19459533Y26484178D01*
X19450872Y26499180D01*
X19331610Y26641311D01*
X19318340Y26652446D01*
X19157659Y26745215D01*
X19141381Y26751140D01*
X18958661Y26783358D01*
X18941339Y26783358D01*
X18758619Y26751140D01*
X18742341Y26745215D01*
X18581660Y26652446D01*
X18568390Y26641311D01*
X18449128Y26499180D01*
X18440467Y26484178D01*
X18377008Y26309829D01*
X18374000Y26292769D01*
X18374000Y26107231D01*
X18377008Y26090171D01*
X18440467Y25915822D01*
X18449128Y25900820D01*
X18568390Y25758689D01*
X18577392Y25751135D01*
X18577379Y25751140D01*
X18394659Y25783358D01*
X18377337Y25783358D01*
X18194617Y25751140D01*
X18178339Y25745215D01*
X18017658Y25652446D01*
X18004388Y25641311D01*
X17885126Y25499180D01*
X17876465Y25484178D01*
X17813006Y25309829D01*
X17809998Y25292769D01*
X14164297Y25292769D01*
X14081610Y25391311D01*
X14068340Y25402446D01*
X13907659Y25495215D01*
X13891381Y25501140D01*
X13708661Y25533358D01*
X13691339Y25533358D01*
X13508619Y25501140D01*
X13492341Y25495215D01*
X13331660Y25402446D01*
X13318390Y25391311D01*
X13199128Y25249180D01*
X13190467Y25234178D01*
X13127008Y25059829D01*
X13124000Y25042769D01*
X10026000Y25042769D01*
X10022992Y25059829D01*
X9959533Y25234178D01*
X9950872Y25249180D01*
X9831610Y25391311D01*
X9818340Y25402446D01*
X9657659Y25495215D01*
X9641381Y25501140D01*
X9458661Y25533358D01*
X9441339Y25533358D01*
X9258619Y25501140D01*
X9242341Y25495215D01*
X9081660Y25402446D01*
X9068390Y25391311D01*
X8949128Y25249180D01*
X8940467Y25234178D01*
X8877008Y25059829D01*
X8874000Y25042769D01*
X6549000Y25042769D01*
X6549000Y27717769D01*
X28199000Y27717769D01*
X28199000Y27532231D01*
X28202008Y27515171D01*
X28265467Y27340822D01*
X28274128Y27325820D01*
X28393390Y27183689D01*
X28406660Y27172554D01*
X28567341Y27079785D01*
X28583619Y27073860D01*
X28766339Y27041642D01*
X28783661Y27041642D01*
X28966381Y27073860D01*
X28982659Y27079785D01*
X29143340Y27172554D01*
X29156610Y27183689D01*
X29275872Y27325820D01*
X29284533Y27340822D01*
X29347992Y27515171D01*
X29351000Y27532231D01*
X29351000Y27717769D01*
X29347992Y27734829D01*
X29284533Y27909178D01*
X29275872Y27924180D01*
X29156610Y28066311D01*
X29143340Y28077446D01*
X28982659Y28170215D01*
X28966381Y28176140D01*
X28783661Y28208358D01*
X28766339Y28208358D01*
X28583619Y28176140D01*
X28567341Y28170215D01*
X28406660Y28077446D01*
X28393390Y28066311D01*
X28274128Y27924180D01*
X28265467Y27909178D01*
X28202008Y27734829D01*
X28199000Y27717769D01*
X6549000Y27717769D01*
X6549000Y28467769D01*
X19299000Y28467769D01*
X19299000Y28282231D01*
X19302008Y28265171D01*
X19365467Y28090822D01*
X19374128Y28075820D01*
X19493390Y27933689D01*
X19506660Y27922554D01*
X19667341Y27829785D01*
X19683619Y27823860D01*
X19866339Y27791642D01*
X19883661Y27791642D01*
X20066381Y27823860D01*
X20082659Y27829785D01*
X20243340Y27922554D01*
X20256610Y27933689D01*
X20375872Y28075820D01*
X20384533Y28090822D01*
X20447992Y28265171D01*
X20451000Y28282231D01*
X20451000Y28467769D01*
X20447992Y28484829D01*
X20384533Y28659178D01*
X20375872Y28674180D01*
X20256610Y28816311D01*
X20243340Y28827446D01*
X20082659Y28920215D01*
X20066381Y28926140D01*
X19883661Y28958358D01*
X19866339Y28958358D01*
X19683619Y28926140D01*
X19667341Y28920215D01*
X19506660Y28827446D01*
X19493390Y28816311D01*
X19374128Y28674180D01*
X19365467Y28659178D01*
X19302008Y28484829D01*
X19299000Y28467769D01*
X6549000Y28467769D01*
X6549000Y29067769D01*
X21174000Y29067769D01*
X21174000Y28882231D01*
X21177008Y28865171D01*
X21240467Y28690822D01*
X21249128Y28675820D01*
X21368390Y28533689D01*
X21381660Y28522554D01*
X21542341Y28429785D01*
X21558619Y28423860D01*
X21741339Y28391642D01*
X21758661Y28391642D01*
X21941381Y28423860D01*
X21957659Y28429785D01*
X22118340Y28522554D01*
X22131610Y28533689D01*
X22250872Y28675820D01*
X22259533Y28690822D01*
X22322992Y28865171D01*
X22326000Y28882231D01*
X22326000Y29067769D01*
X22322992Y29084829D01*
X22259533Y29259178D01*
X22250872Y29274180D01*
X22131610Y29416311D01*
X22118340Y29427446D01*
X21957659Y29520215D01*
X21941381Y29526140D01*
X21758661Y29558358D01*
X21741339Y29558358D01*
X21558619Y29526140D01*
X21542341Y29520215D01*
X21381660Y29427446D01*
X21368390Y29416311D01*
X21249128Y29274180D01*
X21240467Y29259178D01*
X21177008Y29084829D01*
X21174000Y29067769D01*
X6549000Y29067769D01*
X6549000Y30792769D01*
X25124000Y30792769D01*
X25124000Y30607231D01*
X25127008Y30590171D01*
X25190467Y30415822D01*
X25199128Y30400820D01*
X25318390Y30258689D01*
X25331660Y30247554D01*
X25492341Y30154785D01*
X25508619Y30148860D01*
X25691339Y30116642D01*
X25708661Y30116642D01*
X25891381Y30148860D01*
X25907659Y30154785D01*
X26068340Y30247554D01*
X26081610Y30258689D01*
X26200872Y30400820D01*
X26209533Y30415822D01*
X26272992Y30590171D01*
X26276000Y30607231D01*
X26276000Y30792769D01*
X26272992Y30809829D01*
X26209533Y30984178D01*
X26200872Y30999180D01*
X26081610Y31141311D01*
X26068340Y31152446D01*
X25907659Y31245215D01*
X25891381Y31251140D01*
X25708661Y31283358D01*
X25691339Y31283358D01*
X25508619Y31251140D01*
X25492341Y31245215D01*
X25331660Y31152446D01*
X25318390Y31141311D01*
X25199128Y30999180D01*
X25190467Y30984178D01*
X25127008Y30809829D01*
X25124000Y30792769D01*
X6549000Y30792769D01*
X6549000Y34651000D01*
X37551000Y34651000D01*
X37551001Y349000D01*
G37*
D15*
X37551001Y349000D02*
X6549000Y349000D01*
X6549000Y2542769D01*
X19124000Y2542769D01*
X19124000Y2357231D01*
X19127008Y2340171D01*
X19190467Y2165822D01*
X19199128Y2150820D01*
X19318390Y2008689D01*
X19331660Y1997554D01*
X19492341Y1904785D01*
X19508619Y1898860D01*
X19691339Y1866642D01*
X19708661Y1866642D01*
X19891381Y1898860D01*
X19907659Y1904785D01*
X20068340Y1997554D01*
X20081610Y2008689D01*
X20200872Y2150820D01*
X20209533Y2165822D01*
X20272992Y2340171D01*
X20276000Y2357231D01*
X20276000Y2542769D01*
X20272992Y2559829D01*
X20209533Y2734178D01*
X20200872Y2749180D01*
X20081610Y2891311D01*
X20068340Y2902446D01*
X19907659Y2995215D01*
X19891381Y3001140D01*
X19708661Y3033358D01*
X19691339Y3033358D01*
X19508619Y3001140D01*
X19492341Y2995215D01*
X19331660Y2902446D01*
X19318390Y2891311D01*
X19199128Y2749180D01*
X19190467Y2734178D01*
X19127008Y2559829D01*
X19124000Y2542769D01*
X6549000Y2542769D01*
X6549000Y9417769D01*
X24499000Y9417769D01*
X24499000Y9232231D01*
X24502008Y9215171D01*
X24565467Y9040822D01*
X24574128Y9025820D01*
X24693390Y8883689D01*
X24706660Y8872554D01*
X24867341Y8779785D01*
X24883619Y8773860D01*
X25066339Y8741642D01*
X25083661Y8741642D01*
X25266381Y8773860D01*
X25282659Y8779785D01*
X25443340Y8872554D01*
X25456610Y8883689D01*
X25575872Y9025820D01*
X25584533Y9040822D01*
X25647992Y9215171D01*
X25651000Y9232231D01*
X25651000Y9417769D01*
X25647992Y9434829D01*
X25584533Y9609178D01*
X25575872Y9624180D01*
X25456610Y9766311D01*
X25445728Y9775442D01*
X25457659Y9779785D01*
X25618340Y9872554D01*
X25631610Y9883689D01*
X25750872Y10025820D01*
X25759533Y10040822D01*
X25822992Y10215171D01*
X25826000Y10232231D01*
X25826000Y10417769D01*
X25822992Y10434829D01*
X25759533Y10609178D01*
X25750872Y10624180D01*
X25631610Y10766311D01*
X25618340Y10777446D01*
X25457659Y10870215D01*
X25441381Y10876140D01*
X25258661Y10908358D01*
X25241339Y10908358D01*
X25058619Y10876140D01*
X25042341Y10870215D01*
X24881660Y10777446D01*
X24868390Y10766311D01*
X24749128Y10624180D01*
X24740467Y10609178D01*
X24677008Y10434829D01*
X24674000Y10417769D01*
X24674000Y10232231D01*
X24677008Y10215171D01*
X24740467Y10040822D01*
X24749128Y10025820D01*
X24868390Y9883689D01*
X24879272Y9874558D01*
X24867341Y9870215D01*
X24706660Y9777446D01*
X24693390Y9766311D01*
X24574128Y9624180D01*
X24565467Y9609178D01*
X24502008Y9434829D01*
X24499000Y9417769D01*
X6549000Y9417769D01*
X6549000Y11674830D01*
X6553222Y11703949D01*
X6553668Y11713666D01*
X6546585Y11848814D01*
X6545126Y11858431D01*
X6542426Y11869062D01*
X6542426Y11880024D01*
X6541473Y11889705D01*
X6496733Y12114630D01*
X6493909Y12123938D01*
X6487056Y12140484D01*
X6483792Y12158095D01*
X6481090Y12167440D01*
X6396110Y12380446D01*
X6391637Y12389084D01*
X6381880Y12404108D01*
X6375463Y12420825D01*
X6371104Y12429521D01*
X6248730Y12623472D01*
X6242758Y12631150D01*
X6230432Y12644139D01*
X6221073Y12659412D01*
X6215201Y12667169D01*
X6059530Y12835572D01*
X6052259Y12842033D01*
X6037769Y12852560D01*
X6025786Y12865870D01*
X6018599Y12872426D01*
X5834845Y13009641D01*
X5826518Y13014669D01*
X5810356Y13022377D01*
X5796149Y13033279D01*
X5787888Y13038417D01*
X5582206Y13139849D01*
X5573101Y13143276D01*
X5555801Y13147911D01*
X5539844Y13156042D01*
X5530785Y13159588D01*
X5310064Y13221837D01*
X5300488Y13223547D01*
X5282634Y13224953D01*
X5265459Y13230040D01*
X5255908Y13231875D01*
X5027538Y13252859D01*
X5017811Y13252795D01*
X4981702Y13249000D01*
X4149000Y13249000D01*
X4149000Y13292769D01*
X7874000Y13292769D01*
X7874000Y13107231D01*
X7877008Y13090171D01*
X7940467Y12915822D01*
X7949128Y12900820D01*
X8068390Y12758689D01*
X8081660Y12747554D01*
X8242341Y12654785D01*
X8258619Y12648860D01*
X8441339Y12616642D01*
X8458661Y12616642D01*
X8641381Y12648860D01*
X8657659Y12654785D01*
X8818340Y12747554D01*
X8831610Y12758689D01*
X8881183Y12817769D01*
X22266068Y12817769D01*
X22266068Y12632231D01*
X22269076Y12615171D01*
X22332535Y12440822D01*
X22341196Y12425820D01*
X22460458Y12283689D01*
X22473728Y12272554D01*
X22634409Y12179785D01*
X22650687Y12173860D01*
X22833407Y12141642D01*
X22850729Y12141642D01*
X23033449Y12173860D01*
X23049727Y12179785D01*
X23210408Y12272554D01*
X23223678Y12283689D01*
X23252274Y12317769D01*
X26749000Y12317769D01*
X26749000Y12132231D01*
X26752008Y12115171D01*
X26815467Y11940822D01*
X26824128Y11925820D01*
X26898405Y11837301D01*
X26852008Y11709829D01*
X26849000Y11692769D01*
X26849000Y11507231D01*
X26852008Y11490171D01*
X26915467Y11315822D01*
X26924128Y11300820D01*
X27043390Y11158689D01*
X27056660Y11147554D01*
X27217341Y11054785D01*
X27233619Y11048860D01*
X27416339Y11016642D01*
X27433661Y11016642D01*
X27616381Y11048860D01*
X27632659Y11054785D01*
X27793340Y11147554D01*
X27806610Y11158689D01*
X27925872Y11300820D01*
X27934533Y11315822D01*
X27997992Y11490171D01*
X28001000Y11507231D01*
X28001000Y11692769D01*
X27997992Y11709829D01*
X27934533Y11884178D01*
X27925872Y11899180D01*
X27851595Y11987699D01*
X27897992Y12115171D01*
X27901000Y12132231D01*
X27901000Y12317769D01*
X27897992Y12334829D01*
X27834533Y12509178D01*
X27825872Y12524180D01*
X27706610Y12666311D01*
X27693340Y12677446D01*
X27532659Y12770215D01*
X27516381Y12776140D01*
X27333661Y12808358D01*
X27316339Y12808358D01*
X27133619Y12776140D01*
X27117341Y12770215D01*
X26956660Y12677446D01*
X26943390Y12666311D01*
X26824128Y12524180D01*
X26815467Y12509178D01*
X26752008Y12334829D01*
X26749000Y12317769D01*
X23252274Y12317769D01*
X23342940Y12425820D01*
X23351601Y12440822D01*
X23415060Y12615171D01*
X23418068Y12632231D01*
X23418068Y12817769D01*
X23415060Y12834829D01*
X23351601Y13009178D01*
X23342940Y13024180D01*
X23223678Y13166311D01*
X23210408Y13177446D01*
X23049727Y13270215D01*
X23033449Y13276140D01*
X22850729Y13308358D01*
X22833407Y13308358D01*
X22650687Y13276140D01*
X22634409Y13270215D01*
X22473728Y13177446D01*
X22460458Y13166311D01*
X22341196Y13024180D01*
X22332535Y13009178D01*
X22269076Y12834829D01*
X22266068Y12817769D01*
X8881183Y12817769D01*
X8950872Y12900820D01*
X8959533Y12915822D01*
X9022992Y13090171D01*
X9026000Y13107231D01*
X9026000Y13292769D01*
X9022992Y13309829D01*
X8959533Y13484178D01*
X8950872Y13499180D01*
X8831610Y13641311D01*
X8818340Y13652446D01*
X8657659Y13745215D01*
X8641381Y13751140D01*
X8458661Y13783358D01*
X8441339Y13783358D01*
X8258619Y13751140D01*
X8242341Y13745215D01*
X8081660Y13652446D01*
X8068390Y13641311D01*
X7949128Y13499180D01*
X7940467Y13484178D01*
X7877008Y13309829D01*
X7874000Y13292769D01*
X4149000Y13292769D01*
X4149000Y13972946D01*
X4914872Y13972946D01*
X4914872Y13787408D01*
X4917880Y13770348D01*
X4981339Y13595999D01*
X4990000Y13580997D01*
X5109262Y13438866D01*
X5122532Y13427731D01*
X5283213Y13334962D01*
X5299491Y13329037D01*
X5482211Y13296819D01*
X5499533Y13296819D01*
X5682253Y13329037D01*
X5698531Y13334962D01*
X5859212Y13427731D01*
X5872482Y13438866D01*
X5991744Y13580997D01*
X6000405Y13595999D01*
X6063864Y13770348D01*
X6066872Y13787408D01*
X6066872Y13972946D01*
X6063864Y13990006D01*
X6000405Y14164355D01*
X5991744Y14179357D01*
X5872482Y14321488D01*
X5859212Y14332623D01*
X5698531Y14425392D01*
X5682253Y14431317D01*
X5499533Y14463535D01*
X5482211Y14463535D01*
X5299491Y14431317D01*
X5283213Y14425392D01*
X5122532Y14332623D01*
X5109262Y14321488D01*
X4990000Y14179357D01*
X4981339Y14164355D01*
X4917880Y13990006D01*
X4914872Y13972946D01*
X4149000Y13972946D01*
X4149000Y15192769D01*
X23749000Y15192769D01*
X23749000Y15007231D01*
X23752008Y14990171D01*
X23815467Y14815822D01*
X23824128Y14800820D01*
X23943390Y14658689D01*
X23956660Y14647554D01*
X24117341Y14554785D01*
X24133619Y14548860D01*
X24316339Y14516642D01*
X24333661Y14516642D01*
X24516381Y14548860D01*
X24532659Y14554785D01*
X24693340Y14647554D01*
X24706610Y14658689D01*
X24825872Y14800820D01*
X24834533Y14815822D01*
X24897992Y14990171D01*
X24901000Y15007231D01*
X24901000Y15192769D01*
X24897992Y15209829D01*
X24834533Y15384178D01*
X24825872Y15399180D01*
X24706610Y15541311D01*
X24693340Y15552446D01*
X24532659Y15645215D01*
X24516381Y15651140D01*
X24333661Y15683358D01*
X24316339Y15683358D01*
X24133619Y15651140D01*
X24117341Y15645215D01*
X23956660Y15552446D01*
X23943390Y15541311D01*
X23824128Y15399180D01*
X23815467Y15384178D01*
X23752008Y15209829D01*
X23749000Y15192769D01*
X4149000Y15192769D01*
X4149000Y16778860D01*
X13887909Y16778860D01*
X13887909Y16593322D01*
X13890917Y16576262D01*
X13954376Y16401913D01*
X13963037Y16386911D01*
X14082299Y16244780D01*
X14095569Y16233645D01*
X14256250Y16140876D01*
X14272528Y16134951D01*
X14455248Y16102733D01*
X14472570Y16102733D01*
X14655290Y16134951D01*
X14671568Y16140876D01*
X14832249Y16233645D01*
X14845519Y16244780D01*
X14964781Y16386911D01*
X14973442Y16401913D01*
X15036901Y16576262D01*
X15039909Y16593322D01*
X15039909Y16778860D01*
X15037457Y16792769D01*
X17624000Y16792769D01*
X17624000Y16607231D01*
X17627008Y16590171D01*
X17690467Y16415822D01*
X17699128Y16400820D01*
X17818390Y16258689D01*
X17831660Y16247554D01*
X17992341Y16154785D01*
X18008619Y16148860D01*
X18191339Y16116642D01*
X18208661Y16116642D01*
X18391381Y16148860D01*
X18407659Y16154785D01*
X18568340Y16247554D01*
X18581610Y16258689D01*
X18700872Y16400820D01*
X18709533Y16415822D01*
X18772992Y16590171D01*
X18776000Y16607231D01*
X18776000Y16792769D01*
X18772992Y16809829D01*
X18709533Y16984178D01*
X18700872Y16999180D01*
X18581610Y17141311D01*
X18568340Y17152446D01*
X18407659Y17245215D01*
X18391381Y17251140D01*
X18208661Y17283358D01*
X18191339Y17283358D01*
X18008619Y17251140D01*
X17992341Y17245215D01*
X17831660Y17152446D01*
X17818390Y17141311D01*
X17699128Y16999180D01*
X17690467Y16984178D01*
X17627008Y16809829D01*
X17624000Y16792769D01*
X15037457Y16792769D01*
X15036901Y16795920D01*
X14973442Y16970269D01*
X14964781Y16985271D01*
X14845519Y17127402D01*
X14832249Y17138537D01*
X14671568Y17231306D01*
X14655290Y17237231D01*
X14472570Y17269449D01*
X14455248Y17269449D01*
X14272528Y17237231D01*
X14256250Y17231306D01*
X14095569Y17138537D01*
X14082299Y17127402D01*
X13963037Y16985271D01*
X13954376Y16970269D01*
X13890917Y16795920D01*
X13887909Y16778860D01*
X4149000Y16778860D01*
X4149000Y18592769D01*
X4749000Y18592769D01*
X4749000Y18407231D01*
X4752008Y18390171D01*
X4815467Y18215822D01*
X4824128Y18200820D01*
X4943390Y18058689D01*
X4956660Y18047554D01*
X5117341Y17954785D01*
X5133619Y17948860D01*
X5316339Y17916642D01*
X5333661Y17916642D01*
X5516381Y17948860D01*
X5532659Y17954785D01*
X5693340Y18047554D01*
X5706610Y18058689D01*
X5825872Y18200820D01*
X5834533Y18215822D01*
X5897992Y18390171D01*
X5901000Y18407231D01*
X5901000Y18592769D01*
X5897992Y18609829D01*
X5858705Y18717769D01*
X6949000Y18717769D01*
X6949000Y18532231D01*
X6952008Y18515171D01*
X7015467Y18340822D01*
X7024128Y18325820D01*
X7143390Y18183689D01*
X7156660Y18172554D01*
X7317341Y18079785D01*
X7333619Y18073860D01*
X7516339Y18041642D01*
X7533661Y18041642D01*
X7716381Y18073860D01*
X7732659Y18079785D01*
X7893340Y18172554D01*
X7906610Y18183689D01*
X8025872Y18325820D01*
X8034533Y18340822D01*
X8097992Y18515171D01*
X8101000Y18532231D01*
X8101000Y18692769D01*
X8774000Y18692769D01*
X8774000Y18507231D01*
X8777008Y18490171D01*
X8840467Y18315822D01*
X8849128Y18300820D01*
X8968390Y18158689D01*
X8981660Y18147554D01*
X9142341Y18054785D01*
X9158619Y18048860D01*
X9341339Y18016642D01*
X9358661Y18016642D01*
X9541381Y18048860D01*
X9557659Y18054785D01*
X9718340Y18147554D01*
X9731610Y18158689D01*
X9844116Y18292769D01*
X12374000Y18292769D01*
X12374000Y18107231D01*
X12377008Y18090171D01*
X12440467Y17915822D01*
X12449128Y17900820D01*
X12568390Y17758689D01*
X12581660Y17747554D01*
X12742341Y17654785D01*
X12758619Y17648860D01*
X12941339Y17616642D01*
X12958661Y17616642D01*
X13141381Y17648860D01*
X13157659Y17654785D01*
X13318340Y17747554D01*
X13331610Y17758689D01*
X13450872Y17900820D01*
X13459533Y17915822D01*
X13522992Y18090171D01*
X13526000Y18107231D01*
X13526000Y18292769D01*
X18624000Y18292769D01*
X18624000Y18107231D01*
X18627008Y18090171D01*
X18690467Y17915822D01*
X18699128Y17900820D01*
X18818390Y17758689D01*
X18831660Y17747554D01*
X18992341Y17654785D01*
X19008619Y17648860D01*
X19191339Y17616642D01*
X19208661Y17616642D01*
X19391381Y17648860D01*
X19407659Y17654785D01*
X19568340Y17747554D01*
X19581610Y17758689D01*
X19610206Y17792769D01*
X23874000Y17792769D01*
X23874000Y17607231D01*
X23877008Y17590171D01*
X23940467Y17415822D01*
X23949128Y17400820D01*
X24068390Y17258689D01*
X24081660Y17247554D01*
X24242341Y17154785D01*
X24258619Y17148860D01*
X24441339Y17116642D01*
X24458661Y17116642D01*
X24641381Y17148860D01*
X24657659Y17154785D01*
X24818340Y17247554D01*
X24831610Y17258689D01*
X24950872Y17400820D01*
X24959533Y17415822D01*
X25022992Y17590171D01*
X25026000Y17607231D01*
X25026000Y17792769D01*
X25022992Y17809829D01*
X24959533Y17984178D01*
X24950872Y17999180D01*
X24831610Y18141311D01*
X24818340Y18152446D01*
X24657659Y18245215D01*
X24641381Y18251140D01*
X24458661Y18283358D01*
X24441339Y18283358D01*
X24258619Y18251140D01*
X24242341Y18245215D01*
X24081660Y18152446D01*
X24068390Y18141311D01*
X23949128Y17999180D01*
X23940467Y17984178D01*
X23877008Y17809829D01*
X23874000Y17792769D01*
X19610206Y17792769D01*
X19700872Y17900820D01*
X19709533Y17915822D01*
X19772992Y18090171D01*
X19776000Y18107231D01*
X19776000Y18292769D01*
X19772992Y18309829D01*
X19709533Y18484178D01*
X19700872Y18499180D01*
X19581610Y18641311D01*
X19568340Y18652446D01*
X19407659Y18745215D01*
X19391381Y18751140D01*
X19208661Y18783358D01*
X19191339Y18783358D01*
X19008619Y18751140D01*
X18992341Y18745215D01*
X18831660Y18652446D01*
X18818390Y18641311D01*
X18699128Y18499180D01*
X18690467Y18484178D01*
X18627008Y18309829D01*
X18624000Y18292769D01*
X13526000Y18292769D01*
X13522992Y18309829D01*
X13459533Y18484178D01*
X13450872Y18499180D01*
X13331610Y18641311D01*
X13318340Y18652446D01*
X13157659Y18745215D01*
X13141381Y18751140D01*
X12958661Y18783358D01*
X12941339Y18783358D01*
X12758619Y18751140D01*
X12742341Y18745215D01*
X12581660Y18652446D01*
X12568390Y18641311D01*
X12449128Y18499180D01*
X12440467Y18484178D01*
X12377008Y18309829D01*
X12374000Y18292769D01*
X9844116Y18292769D01*
X9850872Y18300820D01*
X9859533Y18315822D01*
X9922992Y18490171D01*
X9926000Y18507231D01*
X9926000Y18692769D01*
X9922992Y18709829D01*
X9859533Y18884178D01*
X9850872Y18899180D01*
X9731610Y19041311D01*
X9718340Y19052446D01*
X9557659Y19145215D01*
X9541381Y19151140D01*
X9358661Y19183358D01*
X9341339Y19183358D01*
X9158619Y19151140D01*
X9142341Y19145215D01*
X8981660Y19052446D01*
X8968390Y19041311D01*
X8849128Y18899180D01*
X8840467Y18884178D01*
X8777008Y18709829D01*
X8774000Y18692769D01*
X8101000Y18692769D01*
X8101000Y18717769D01*
X8097992Y18734829D01*
X8034533Y18909178D01*
X8025872Y18924180D01*
X7906610Y19066311D01*
X7893340Y19077446D01*
X7732659Y19170215D01*
X7716381Y19176140D01*
X7533661Y19208358D01*
X7516339Y19208358D01*
X7333619Y19176140D01*
X7317341Y19170215D01*
X7156660Y19077446D01*
X7143390Y19066311D01*
X7024128Y18924180D01*
X7015467Y18909178D01*
X6952008Y18734829D01*
X6949000Y18717769D01*
X5858705Y18717769D01*
X5834533Y18784178D01*
X5825872Y18799180D01*
X5706610Y18941311D01*
X5693340Y18952446D01*
X5532659Y19045215D01*
X5516381Y19051140D01*
X5333661Y19083358D01*
X5316339Y19083358D01*
X5133619Y19051140D01*
X5117341Y19045215D01*
X4956660Y18952446D01*
X4943390Y18941311D01*
X4824128Y18799180D01*
X4815467Y18784178D01*
X4752008Y18609829D01*
X4749000Y18592769D01*
X4149000Y18592769D01*
X4149000Y19292769D01*
X25124000Y19292769D01*
X25124000Y19107231D01*
X25127008Y19090171D01*
X25190467Y18915822D01*
X25199128Y18900820D01*
X25318390Y18758689D01*
X25331660Y18747554D01*
X25492341Y18654785D01*
X25508619Y18648860D01*
X25691339Y18616642D01*
X25708661Y18616642D01*
X25891381Y18648860D01*
X25907659Y18654785D01*
X26068340Y18747554D01*
X26081610Y18758689D01*
X26200872Y18900820D01*
X26209533Y18915822D01*
X26272992Y19090171D01*
X26276000Y19107231D01*
X26276000Y19292769D01*
X26272992Y19309829D01*
X26227287Y19435402D01*
X26906566Y19435402D01*
X28476065Y17826990D01*
X28556714Y17825066D01*
X29529403Y18731133D01*
X29531058Y18814958D01*
X27935515Y20423473D01*
X27854522Y20424511D01*
X26907962Y19517946D01*
X26906566Y19435402D01*
X26227287Y19435402D01*
X26209533Y19484178D01*
X26200872Y19499180D01*
X26081610Y19641311D01*
X26068340Y19652446D01*
X25907659Y19745215D01*
X25891381Y19751140D01*
X25708661Y19783358D01*
X25691339Y19783358D01*
X25508619Y19751140D01*
X25492341Y19745215D01*
X25331660Y19652446D01*
X25318390Y19641311D01*
X25199128Y19499180D01*
X25190467Y19484178D01*
X25127008Y19309829D01*
X25124000Y19292769D01*
X4149000Y19292769D01*
X4149000Y20992769D01*
X4749000Y20992769D01*
X4749000Y20807231D01*
X4752008Y20790171D01*
X4815467Y20615822D01*
X4824128Y20600820D01*
X4943390Y20458689D01*
X4956660Y20447554D01*
X5117341Y20354785D01*
X5133619Y20348860D01*
X5316339Y20316642D01*
X5333661Y20316642D01*
X5516381Y20348860D01*
X5532659Y20354785D01*
X5693340Y20447554D01*
X5706610Y20458689D01*
X5825872Y20600820D01*
X5834533Y20615822D01*
X5897992Y20790171D01*
X5901000Y20807231D01*
X5901000Y20992769D01*
X5897992Y21009829D01*
X5834533Y21184178D01*
X5825872Y21199180D01*
X5706610Y21341311D01*
X5693340Y21352446D01*
X5532659Y21445215D01*
X5516381Y21451140D01*
X5333661Y21483358D01*
X5316339Y21483358D01*
X5133619Y21451140D01*
X5117341Y21445215D01*
X4956660Y21352446D01*
X4943390Y21341311D01*
X4824128Y21199180D01*
X4815467Y21184178D01*
X4752008Y21009829D01*
X4749000Y20992769D01*
X4149000Y20992769D01*
X4149000Y21542769D01*
X7874000Y21542769D01*
X7874000Y21357231D01*
X7877008Y21340171D01*
X7940467Y21165822D01*
X7949128Y21150820D01*
X8068390Y21008689D01*
X8081660Y20997554D01*
X8242341Y20904785D01*
X8258619Y20898860D01*
X8441339Y20866642D01*
X8458661Y20866642D01*
X8641381Y20898860D01*
X8657659Y20904785D01*
X8818340Y20997554D01*
X8831610Y21008689D01*
X8950872Y21150820D01*
X8959533Y21165822D01*
X9022992Y21340171D01*
X9026000Y21357231D01*
X9026000Y21542769D01*
X9022992Y21559829D01*
X8959533Y21734178D01*
X8950872Y21749180D01*
X8831610Y21891311D01*
X8818340Y21902446D01*
X8657659Y21995215D01*
X8641381Y22001140D01*
X8458661Y22033358D01*
X8441339Y22033358D01*
X8258619Y22001140D01*
X8242341Y21995215D01*
X8081660Y21902446D01*
X8068390Y21891311D01*
X7949128Y21749180D01*
X7940467Y21734178D01*
X7877008Y21559829D01*
X7874000Y21542769D01*
X4149000Y21542769D01*
X4149000Y21751000D01*
X4974830Y21751000D01*
X5003949Y21746778D01*
X5013666Y21746332D01*
X5148814Y21753415D01*
X5158431Y21754874D01*
X5169062Y21757574D01*
X5180025Y21757574D01*
X5189706Y21758527D01*
X5414630Y21803267D01*
X5423938Y21806091D01*
X5440484Y21812944D01*
X5458095Y21816208D01*
X5467440Y21818910D01*
X5680446Y21903890D01*
X5689084Y21908363D01*
X5704108Y21918120D01*
X5720825Y21924537D01*
X5729521Y21928896D01*
X5923473Y22051270D01*
X5931152Y22057242D01*
X5944146Y22069573D01*
X5959413Y22078929D01*
X5967169Y22084800D01*
X6135572Y22240470D01*
X6142033Y22247741D01*
X6152560Y22262231D01*
X6165870Y22274214D01*
X6172426Y22281401D01*
X6309640Y22465154D01*
X6314668Y22473481D01*
X6322377Y22489644D01*
X6333281Y22503853D01*
X6338418Y22512114D01*
X6353535Y22542769D01*
X16624000Y22542769D01*
X16624000Y22357231D01*
X16627008Y22340171D01*
X16690467Y22165822D01*
X16699128Y22150820D01*
X16818390Y22008689D01*
X16831660Y21997554D01*
X16992341Y21904785D01*
X17008619Y21898860D01*
X17191339Y21866642D01*
X17208661Y21866642D01*
X17391381Y21898860D01*
X17407659Y21904785D01*
X17568340Y21997554D01*
X17581610Y22008689D01*
X17610206Y22042769D01*
X21224000Y22042769D01*
X21224000Y21857231D01*
X21227008Y21840171D01*
X21290467Y21665822D01*
X21299128Y21650820D01*
X21418390Y21508689D01*
X21431660Y21497554D01*
X21592341Y21404785D01*
X21608619Y21398860D01*
X21791339Y21366642D01*
X21808661Y21366642D01*
X21991381Y21398860D01*
X22007659Y21404785D01*
X22168340Y21497554D01*
X22181610Y21508689D01*
X22300872Y21650820D01*
X22309533Y21665822D01*
X22372992Y21840171D01*
X22376000Y21857231D01*
X22376000Y22042769D01*
X22372992Y22059829D01*
X22309533Y22234178D01*
X22300872Y22249180D01*
X22181610Y22391311D01*
X22168340Y22402446D01*
X22007659Y22495215D01*
X21991381Y22501140D01*
X21808661Y22533358D01*
X21791339Y22533358D01*
X21608619Y22501140D01*
X21592341Y22495215D01*
X21431660Y22402446D01*
X21418390Y22391311D01*
X21299128Y22249180D01*
X21290467Y22234178D01*
X21227008Y22059829D01*
X21224000Y22042769D01*
X17610206Y22042769D01*
X17700872Y22150820D01*
X17709533Y22165822D01*
X17772992Y22340171D01*
X17776000Y22357231D01*
X17776000Y22542769D01*
X17772992Y22559829D01*
X17709533Y22734178D01*
X17700872Y22749180D01*
X17581610Y22891311D01*
X17579873Y22892769D01*
X27624000Y22892769D01*
X27624000Y22707231D01*
X27627008Y22690171D01*
X27690467Y22515822D01*
X27699128Y22500820D01*
X27818390Y22358689D01*
X27831660Y22347554D01*
X27992341Y22254785D01*
X28008619Y22248860D01*
X28191339Y22216642D01*
X28208661Y22216642D01*
X28391381Y22248860D01*
X28407659Y22254785D01*
X28568340Y22347554D01*
X28581610Y22358689D01*
X28700872Y22500820D01*
X28709533Y22515822D01*
X28772992Y22690171D01*
X28776000Y22707231D01*
X28776000Y22892769D01*
X28772992Y22909829D01*
X28709533Y23084178D01*
X28700872Y23099180D01*
X28581610Y23241311D01*
X28568340Y23252446D01*
X28407659Y23345215D01*
X28391381Y23351140D01*
X28208661Y23383358D01*
X28191339Y23383358D01*
X28008619Y23351140D01*
X27992341Y23345215D01*
X27831660Y23252446D01*
X27818390Y23241311D01*
X27699128Y23099180D01*
X27690467Y23084178D01*
X27627008Y22909829D01*
X27624000Y22892769D01*
X17579873Y22892769D01*
X17568340Y22902446D01*
X17407659Y22995215D01*
X17391381Y23001140D01*
X17208661Y23033358D01*
X17191339Y23033358D01*
X17008619Y23001140D01*
X16992341Y22995215D01*
X16831660Y22902446D01*
X16818390Y22891311D01*
X16699128Y22749180D01*
X16690467Y22734178D01*
X16627008Y22559829D01*
X16624000Y22542769D01*
X6353535Y22542769D01*
X6439850Y22717794D01*
X6443276Y22726899D01*
X6447911Y22744199D01*
X6456042Y22760156D01*
X6459588Y22769215D01*
X6521837Y22989936D01*
X6523547Y22999512D01*
X6524953Y23017366D01*
X6530040Y23034541D01*
X6531875Y23044092D01*
X6552859Y23272460D01*
X6552795Y23282187D01*
X6549000Y23318298D01*
X6549000Y23792769D01*
X16624000Y23792769D01*
X16624000Y23607231D01*
X16627008Y23590171D01*
X16690467Y23415822D01*
X16699128Y23400820D01*
X16818390Y23258689D01*
X16831660Y23247554D01*
X16992341Y23154785D01*
X17008619Y23148860D01*
X17191339Y23116642D01*
X17208661Y23116642D01*
X17391381Y23148860D01*
X17407659Y23154785D01*
X17568340Y23247554D01*
X17581610Y23258689D01*
X17700872Y23400820D01*
X17709533Y23415822D01*
X17772992Y23590171D01*
X17776000Y23607231D01*
X17776000Y23792769D01*
X17772992Y23809829D01*
X17709533Y23984178D01*
X17700872Y23999180D01*
X17581610Y24141311D01*
X17568340Y24152446D01*
X17407659Y24245215D01*
X17391381Y24251140D01*
X17208661Y24283358D01*
X17191339Y24283358D01*
X17008619Y24251140D01*
X16992341Y24245215D01*
X16831660Y24152446D01*
X16818390Y24141311D01*
X16699128Y23999180D01*
X16690467Y23984178D01*
X16627008Y23809829D01*
X16624000Y23792769D01*
X6549000Y23792769D01*
X6549000Y25042769D01*
X8874000Y25042769D01*
X8874000Y24857231D01*
X8877008Y24840171D01*
X8940467Y24665822D01*
X8949128Y24650820D01*
X9068390Y24508689D01*
X9081660Y24497554D01*
X9242341Y24404785D01*
X9258619Y24398860D01*
X9441339Y24366642D01*
X9458661Y24366642D01*
X9641381Y24398860D01*
X9657659Y24404785D01*
X9818340Y24497554D01*
X9831610Y24508689D01*
X9950872Y24650820D01*
X9959533Y24665822D01*
X10022992Y24840171D01*
X10026000Y24857231D01*
X10026000Y25042769D01*
X13124000Y25042769D01*
X13124000Y24857231D01*
X13127008Y24840171D01*
X13190467Y24665822D01*
X13199128Y24650820D01*
X13318390Y24508689D01*
X13331660Y24497554D01*
X13492341Y24404785D01*
X13508619Y24398860D01*
X13691339Y24366642D01*
X13708661Y24366642D01*
X13891381Y24398860D01*
X13907659Y24404785D01*
X14068340Y24497554D01*
X14081610Y24508689D01*
X14200872Y24650820D01*
X14209533Y24665822D01*
X14272992Y24840171D01*
X14276000Y24857231D01*
X14276000Y25042769D01*
X14272992Y25059829D01*
X14209533Y25234178D01*
X14200872Y25249180D01*
X14164297Y25292769D01*
X17809998Y25292769D01*
X17809998Y25107231D01*
X17813006Y25090171D01*
X17876465Y24915822D01*
X17885126Y24900820D01*
X17980748Y24786863D01*
X17949128Y24749180D01*
X17940467Y24734178D01*
X17877008Y24559829D01*
X17874000Y24542769D01*
X17874000Y24357231D01*
X17877008Y24340171D01*
X17940467Y24165822D01*
X17949128Y24150820D01*
X18068390Y24008689D01*
X18081660Y23997554D01*
X18242341Y23904785D01*
X18258619Y23898860D01*
X18441339Y23866642D01*
X18458661Y23866642D01*
X18641381Y23898860D01*
X18657659Y23904785D01*
X18818340Y23997554D01*
X18831610Y24008689D01*
X18950872Y24150820D01*
X18959533Y24165822D01*
X19022992Y24340171D01*
X19026000Y24357231D01*
X19026000Y24542769D01*
X19022992Y24559829D01*
X18959533Y24734178D01*
X18950872Y24749180D01*
X18914297Y24792769D01*
X28374000Y24792769D01*
X28374000Y24607231D01*
X28377008Y24590171D01*
X28440467Y24415822D01*
X28449128Y24400820D01*
X28568390Y24258689D01*
X28581660Y24247554D01*
X28742341Y24154785D01*
X28758619Y24148860D01*
X28941339Y24116642D01*
X28958661Y24116642D01*
X29141381Y24148860D01*
X29157659Y24154785D01*
X29318340Y24247554D01*
X29331610Y24258689D01*
X29450872Y24400820D01*
X29459533Y24415822D01*
X29522992Y24590171D01*
X29526000Y24607231D01*
X29526000Y24792769D01*
X29522992Y24809829D01*
X29459533Y24984178D01*
X29450872Y24999180D01*
X29331610Y25141311D01*
X29318340Y25152446D01*
X29157659Y25245215D01*
X29141381Y25251140D01*
X28958661Y25283358D01*
X28941339Y25283358D01*
X28758619Y25251140D01*
X28742341Y25245215D01*
X28581660Y25152446D01*
X28568390Y25141311D01*
X28449128Y24999180D01*
X28440467Y24984178D01*
X28377008Y24809829D01*
X28374000Y24792769D01*
X18914297Y24792769D01*
X18855250Y24863137D01*
X18886870Y24900820D01*
X18895531Y24915822D01*
X18958990Y25090171D01*
X18961998Y25107231D01*
X18961998Y25292769D01*
X18958990Y25309829D01*
X18895531Y25484178D01*
X18886870Y25499180D01*
X18767608Y25641311D01*
X18758606Y25648865D01*
X18758619Y25648860D01*
X18941339Y25616642D01*
X18958661Y25616642D01*
X19141381Y25648860D01*
X19157659Y25654785D01*
X19318340Y25747554D01*
X19331610Y25758689D01*
X19450872Y25900820D01*
X19459533Y25915822D01*
X19522992Y26090171D01*
X19526000Y26107231D01*
X19526000Y26292769D01*
X19522992Y26309829D01*
X19459533Y26484178D01*
X19450872Y26499180D01*
X19331610Y26641311D01*
X19318340Y26652446D01*
X19157659Y26745215D01*
X19141381Y26751140D01*
X18958661Y26783358D01*
X18941339Y26783358D01*
X18758619Y26751140D01*
X18742341Y26745215D01*
X18581660Y26652446D01*
X18568390Y26641311D01*
X18449128Y26499180D01*
X18440467Y26484178D01*
X18377008Y26309829D01*
X18374000Y26292769D01*
X18374000Y26107231D01*
X18377008Y26090171D01*
X18440467Y25915822D01*
X18449128Y25900820D01*
X18568390Y25758689D01*
X18577392Y25751135D01*
X18577379Y25751140D01*
X18394659Y25783358D01*
X18377337Y25783358D01*
X18194617Y25751140D01*
X18178339Y25745215D01*
X18017658Y25652446D01*
X18004388Y25641311D01*
X17885126Y25499180D01*
X17876465Y25484178D01*
X17813006Y25309829D01*
X17809998Y25292769D01*
X14164297Y25292769D01*
X14081610Y25391311D01*
X14068340Y25402446D01*
X13907659Y25495215D01*
X13891381Y25501140D01*
X13708661Y25533358D01*
X13691339Y25533358D01*
X13508619Y25501140D01*
X13492341Y25495215D01*
X13331660Y25402446D01*
X13318390Y25391311D01*
X13199128Y25249180D01*
X13190467Y25234178D01*
X13127008Y25059829D01*
X13124000Y25042769D01*
X10026000Y25042769D01*
X10022992Y25059829D01*
X9959533Y25234178D01*
X9950872Y25249180D01*
X9831610Y25391311D01*
X9818340Y25402446D01*
X9657659Y25495215D01*
X9641381Y25501140D01*
X9458661Y25533358D01*
X9441339Y25533358D01*
X9258619Y25501140D01*
X9242341Y25495215D01*
X9081660Y25402446D01*
X9068390Y25391311D01*
X8949128Y25249180D01*
X8940467Y25234178D01*
X8877008Y25059829D01*
X8874000Y25042769D01*
X6549000Y25042769D01*
X6549000Y27717769D01*
X28199000Y27717769D01*
X28199000Y27532231D01*
X28202008Y27515171D01*
X28265467Y27340822D01*
X28274128Y27325820D01*
X28393390Y27183689D01*
X28406660Y27172554D01*
X28567341Y27079785D01*
X28583619Y27073860D01*
X28766339Y27041642D01*
X28783661Y27041642D01*
X28966381Y27073860D01*
X28982659Y27079785D01*
X29143340Y27172554D01*
X29156610Y27183689D01*
X29275872Y27325820D01*
X29284533Y27340822D01*
X29347992Y27515171D01*
X29351000Y27532231D01*
X29351000Y27717769D01*
X29347992Y27734829D01*
X29284533Y27909178D01*
X29275872Y27924180D01*
X29156610Y28066311D01*
X29143340Y28077446D01*
X28982659Y28170215D01*
X28966381Y28176140D01*
X28783661Y28208358D01*
X28766339Y28208358D01*
X28583619Y28176140D01*
X28567341Y28170215D01*
X28406660Y28077446D01*
X28393390Y28066311D01*
X28274128Y27924180D01*
X28265467Y27909178D01*
X28202008Y27734829D01*
X28199000Y27717769D01*
X6549000Y27717769D01*
X6549000Y28467769D01*
X19299000Y28467769D01*
X19299000Y28282231D01*
X19302008Y28265171D01*
X19365467Y28090822D01*
X19374128Y28075820D01*
X19493390Y27933689D01*
X19506660Y27922554D01*
X19667341Y27829785D01*
X19683619Y27823860D01*
X19866339Y27791642D01*
X19883661Y27791642D01*
X20066381Y27823860D01*
X20082659Y27829785D01*
X20243340Y27922554D01*
X20256610Y27933689D01*
X20375872Y28075820D01*
X20384533Y28090822D01*
X20447992Y28265171D01*
X20451000Y28282231D01*
X20451000Y28467769D01*
X20447992Y28484829D01*
X20384533Y28659178D01*
X20375872Y28674180D01*
X20256610Y28816311D01*
X20243340Y28827446D01*
X20082659Y28920215D01*
X20066381Y28926140D01*
X19883661Y28958358D01*
X19866339Y28958358D01*
X19683619Y28926140D01*
X19667341Y28920215D01*
X19506660Y28827446D01*
X19493390Y28816311D01*
X19374128Y28674180D01*
X19365467Y28659178D01*
X19302008Y28484829D01*
X19299000Y28467769D01*
X6549000Y28467769D01*
X6549000Y29067769D01*
X21174000Y29067769D01*
X21174000Y28882231D01*
X21177008Y28865171D01*
X21240467Y28690822D01*
X21249128Y28675820D01*
X21368390Y28533689D01*
X21381660Y28522554D01*
X21542341Y28429785D01*
X21558619Y28423860D01*
X21741339Y28391642D01*
X21758661Y28391642D01*
X21941381Y28423860D01*
X21957659Y28429785D01*
X22118340Y28522554D01*
X22131610Y28533689D01*
X22250872Y28675820D01*
X22259533Y28690822D01*
X22322992Y28865171D01*
X22326000Y28882231D01*
X22326000Y29067769D01*
X22322992Y29084829D01*
X22259533Y29259178D01*
X22250872Y29274180D01*
X22131610Y29416311D01*
X22118340Y29427446D01*
X21957659Y29520215D01*
X21941381Y29526140D01*
X21758661Y29558358D01*
X21741339Y29558358D01*
X21558619Y29526140D01*
X21542341Y29520215D01*
X21381660Y29427446D01*
X21368390Y29416311D01*
X21249128Y29274180D01*
X21240467Y29259178D01*
X21177008Y29084829D01*
X21174000Y29067769D01*
X6549000Y29067769D01*
X6549000Y30792769D01*
X25124000Y30792769D01*
X25124000Y30607231D01*
X25127008Y30590171D01*
X25190467Y30415822D01*
X25199128Y30400820D01*
X25318390Y30258689D01*
X25331660Y30247554D01*
X25492341Y30154785D01*
X25508619Y30148860D01*
X25691339Y30116642D01*
X25708661Y30116642D01*
X25891381Y30148860D01*
X25907659Y30154785D01*
X26068340Y30247554D01*
X26081610Y30258689D01*
X26200872Y30400820D01*
X26209533Y30415822D01*
X26272992Y30590171D01*
X26276000Y30607231D01*
X26276000Y30792769D01*
X26272992Y30809829D01*
X26209533Y30984178D01*
X26200872Y30999180D01*
X26081610Y31141311D01*
X26068340Y31152446D01*
X25907659Y31245215D01*
X25891381Y31251140D01*
X25708661Y31283358D01*
X25691339Y31283358D01*
X25508619Y31251140D01*
X25492341Y31245215D01*
X25331660Y31152446D01*
X25318390Y31141311D01*
X25199128Y30999180D01*
X25190467Y30984178D01*
X25127008Y30809829D01*
X25124000Y30792769D01*
X6549000Y30792769D01*
X6549000Y34651000D01*
X37551000Y34651000D01*
X37551001Y349000D01*
%TD*%
M02*
