%TF.GenerationSoftware,KiCad,Pcbnew,5.99.0-unknown-6252493~100~ubuntu19.10.1*%
%TF.CreationDate,2020-03-05T21:14:29+01:00*%
%TF.ProjectId,TDR_gen3_pod,5444525f-6765-46e3-935f-706f642e6b69,rev?*%
%TF.SameCoordinates,PX82bfae0PY6cf5110*%
%TF.FileFunction,Legend,Top*%
%TF.FilePolarity,Positive*%
%FSLAX46Y46*%
G04 Gerber Fmt 4.6, Leading zero omitted, Abs format (unit mm)*
G04 Created by KiCad (PCBNEW 5.99.0-unknown-6252493~100~ubuntu19.10.1) date 2020-03-05 21:14:29*
%MOMM*%
%LPD*%
G01*
G04 APERTURE LIST*
%ADD10C,0.120000*%
%ADD11C,0.100000*%
%ADD12C,0.150000*%
%ADD13C,0.200000*%
%ADD14C,1.000000*%
%ADD15C,5.702000*%
%ADD16R,5.102000X14.102000*%
%ADD17C,0.602000*%
%ADD18C,3.102000*%
%ADD19R,5.102000X0.512000*%
%ADD20R,5.102000X6.102000*%
%ADD21C,0.352000*%
%ADD22C,0.412000*%
%ADD23R,3.102000X0.702000*%
%ADD24R,2.302000X0.542000*%
%ADD25R,2.702000X0.702000*%
%ADD26R,0.402000X0.577000*%
%ADD27R,0.202000X0.852000*%
%ADD28R,0.402000X0.252000*%
%ADD29R,0.452000X0.452000*%
%ADD30R,0.452000X0.552000*%
%ADD31C,0.552000*%
G04 APERTURE END LIST*
D10*
%TO.C,R112*%
X25718271Y16960480D02*
X25960480Y16718271D01*
X26439520Y17681729D02*
X26681729Y17439520D01*
%TO.C,C115*%
X24439520Y18968271D02*
X24681729Y19210480D01*
X23718271Y19689520D02*
X23960480Y19931729D01*
%TO.C,C118*%
X20074553Y11308238D02*
X20316762Y11550447D01*
X20795802Y10586989D02*
X21038011Y10829198D01*
%TO.C,C117*%
X25410480Y6949553D02*
X25168271Y7191762D01*
X26131729Y7670802D02*
X25889520Y7913011D01*
%TO.C,U102*%
X26512741Y25645585D02*
X26795584Y25362742D01*
X26795584Y25362742D02*
X26512741Y25079899D01*
X22765075Y21897919D02*
X23047918Y21615076D01*
X23047918Y21615076D02*
X23330761Y21897919D01*
X19583095Y25079899D02*
X19300252Y25362742D01*
X19300252Y25362742D02*
X19583095Y25645585D01*
X23330761Y28827565D02*
X22906497Y29251829D01*
%TO.C,U104*%
X20872478Y5280643D02*
X22286692Y6694857D01*
X23432205Y4842237D02*
X22371544Y3781577D01*
%TO.C,U103*%
X25485876Y10508992D02*
X25150000Y10173116D01*
X25150000Y10173116D02*
X24814124Y10508992D01*
X24814124Y14391008D02*
X25150000Y14726884D01*
X25150000Y14726884D02*
X25485876Y14391008D01*
X23208992Y12785876D02*
X22873116Y12450000D01*
X22873116Y12450000D02*
X23208992Y12114124D01*
X27091008Y12114124D02*
X27426884Y12450000D01*
D11*
%TO.C,U101*%
X31475000Y17300000D02*
X31475000Y17700000D01*
X31475000Y16700000D02*
X31475000Y16800000D01*
X32275000Y16700000D02*
X32175000Y16700000D01*
X32275000Y17150000D02*
X32275000Y16700000D01*
X32275000Y18300000D02*
X32175000Y18300000D01*
X31475000Y18300000D02*
X31675000Y18300000D01*
X31475000Y18200000D02*
X31475000Y18300000D01*
X31675000Y16700000D02*
X31475000Y16700000D01*
X32275000Y18300000D02*
X32275000Y17850000D01*
D10*
%TO.C,R116*%
X20631729Y12510480D02*
X20389520Y12268271D01*
X19910480Y13231729D02*
X19668271Y12989520D01*
%TO.C,R115*%
X16028733Y16190000D02*
X16371267Y16190000D01*
X16028733Y17210000D02*
X16371267Y17210000D01*
%TO.C,R114*%
X27249210Y9275987D02*
X27491419Y9033778D01*
X27970459Y9997236D02*
X28212668Y9755027D01*
%TO.C,R113*%
X31558238Y24536989D02*
X31800447Y24779198D01*
X30836989Y25258238D02*
X31079198Y25500447D01*
%TO.C,R111*%
X21535606Y19834063D02*
X21293397Y19591854D01*
X22256855Y19112814D02*
X22014646Y18870605D01*
%TO.C,R109*%
X30539520Y25593271D02*
X30781729Y25835480D01*
X29818271Y26314520D02*
X30060480Y26556729D01*
%TO.C,R108*%
X21836308Y9546431D02*
X22078517Y9788640D01*
X21115059Y10267680D02*
X21357268Y10509889D01*
%TO.C,R107*%
X22932324Y8450415D02*
X23174533Y8692624D01*
X22211075Y9171664D02*
X22453284Y9413873D01*
%TO.C,R106*%
X29508238Y26618271D02*
X29750447Y26860480D01*
X28786989Y27339520D02*
X29029198Y27581729D01*
%TO.C,R104*%
X11871267Y25460000D02*
X11528733Y25460000D01*
X11871267Y24440000D02*
X11528733Y24440000D01*
%TO.C,R103*%
X20563516Y6081608D02*
X20805725Y6323817D01*
X19842267Y6802857D02*
X20084476Y7045066D01*
%TO.C,R102*%
X27441690Y28681712D02*
X27683899Y28923921D01*
X26720441Y29402961D02*
X26962650Y29645170D01*
%TO.C,R101*%
X26416386Y29707016D02*
X26658595Y29949225D01*
X25695137Y30428265D02*
X25937346Y30670474D01*
%TO.C,D101*%
X29729127Y23260320D02*
X27989644Y24999803D01*
X27989644Y24999803D02*
X26950197Y23960356D01*
X26950197Y23960356D02*
X28689680Y22220873D01*
%TO.C,C114*%
X26197389Y8224166D02*
X26439598Y7981957D01*
X26918638Y8945415D02*
X27160847Y8703206D01*
%TO.C,C113*%
X19110230Y28607465D02*
X18868021Y28849674D01*
X18388981Y27886216D02*
X18146772Y28128425D01*
%TO.C,C112*%
X21281729Y3789520D02*
X21039520Y4031729D01*
X20560480Y3068271D02*
X20318271Y3310480D01*
%TO.C,C111*%
X20347667Y29844902D02*
X20105458Y30087111D01*
X19626418Y29123653D02*
X19384209Y29365862D01*
%TO.C,C110*%
X17710480Y22431729D02*
X17468271Y22189520D01*
X18431729Y21710480D02*
X18189520Y21468271D01*
%TO.C,C109*%
X27136684Y22041457D02*
X27378893Y21799248D01*
X27857933Y22762706D02*
X28100142Y22520497D01*
%TO.C,C108*%
X25391081Y30732321D02*
X25633290Y30974530D01*
X24669832Y31453570D02*
X24912041Y31695779D01*
%TO.C,C107*%
X20510301Y20859368D02*
X20268092Y20617159D01*
X21231550Y20138119D02*
X20989341Y19895910D01*
%TO.C,C106*%
X28466995Y27656407D02*
X28709204Y27898616D01*
X27745746Y28377656D02*
X27987955Y28619865D01*
%TO.C,C105*%
X28283354Y10310131D02*
X28525563Y10067922D01*
X29004603Y11031380D02*
X29246812Y10789171D01*
%TO.C,C104*%
X23813011Y17058238D02*
X23570802Y17300447D01*
X23091762Y16336989D02*
X22849553Y16579198D01*
%TO.C,C102*%
X22012903Y31200804D02*
X21770694Y30958595D01*
X22734152Y30479555D02*
X22491943Y30237346D01*
%TO.C,C101*%
X18988460Y8141081D02*
X18746251Y7898872D01*
X19709709Y7419832D02*
X19467500Y7177623D01*
%TO.C,R112*%
D12*
X29938832Y14521406D02*
X30039847Y15093826D01*
X29534771Y14925467D02*
X30241877Y15632574D01*
X30511251Y15363200D01*
X30544923Y15262185D01*
X30544923Y15194841D01*
X30511251Y15093826D01*
X30410236Y14992811D01*
X30309221Y14959139D01*
X30241877Y14959139D01*
X30140862Y14992811D01*
X29871488Y15262185D01*
X30612267Y13847971D02*
X30208206Y14252032D01*
X30410236Y14050001D02*
X31117343Y14757108D01*
X30948984Y14723437D01*
X30814297Y14723437D01*
X30713282Y14757108D01*
X31285702Y13174536D02*
X30881641Y13578597D01*
X31083671Y13376566D02*
X31790778Y14083673D01*
X31622419Y14050001D01*
X31487732Y14050002D01*
X31386717Y14083673D01*
X32194839Y13544925D02*
X32262183Y13544925D01*
X32363198Y13511253D01*
X32531557Y13342895D01*
X32565228Y13241879D01*
X32565228Y13174536D01*
X32531557Y13073521D01*
X32464213Y13006177D01*
X32329526Y12938834D01*
X31521404Y12938834D01*
X31959137Y12501101D01*
%TO.C,C115*%
X15055952Y13267858D02*
X15008333Y13220239D01*
X14865476Y13172620D01*
X14770238Y13172620D01*
X14627380Y13220239D01*
X14532142Y13315477D01*
X14484523Y13410715D01*
X14436904Y13601191D01*
X14436904Y13744048D01*
X14484523Y13934524D01*
X14532142Y14029762D01*
X14627380Y14125000D01*
X14770238Y14172620D01*
X14865476Y14172620D01*
X15008333Y14125000D01*
X15055952Y14077381D01*
X16008333Y13172620D02*
X15436904Y13172620D01*
X15722619Y13172620D02*
X15722619Y14172620D01*
X15627380Y14029762D01*
X15532142Y13934524D01*
X15436904Y13886905D01*
X16960714Y13172620D02*
X16389285Y13172620D01*
X16675000Y13172620D02*
X16675000Y14172620D01*
X16579761Y14029762D01*
X16484523Y13934524D01*
X16389285Y13886905D01*
X17865476Y14172620D02*
X17389285Y14172620D01*
X17341666Y13696429D01*
X17389285Y13744048D01*
X17484523Y13791667D01*
X17722619Y13791667D01*
X17817857Y13744048D01*
X17865476Y13696429D01*
X17913095Y13601191D01*
X17913095Y13363096D01*
X17865476Y13267858D01*
X17817857Y13220239D01*
X17722619Y13172620D01*
X17484523Y13172620D01*
X17389285Y13220239D01*
X17341666Y13267858D01*
%TO.C,C118*%
X15911251Y9406176D02*
X15911251Y9338833D01*
X15843908Y9204146D01*
X15776564Y9136802D01*
X15641877Y9069459D01*
X15507190Y9069459D01*
X15406175Y9103130D01*
X15237816Y9204146D01*
X15136801Y9305161D01*
X15035786Y9473520D01*
X15002114Y9574535D01*
X15002114Y9709222D01*
X15069458Y9843909D01*
X15136801Y9911252D01*
X15271488Y9978596D01*
X15338832Y9978596D01*
X16652030Y10012268D02*
X16247969Y9608207D01*
X16450000Y9810237D02*
X15742893Y10517344D01*
X15776564Y10348985D01*
X15776564Y10214298D01*
X15742893Y10113283D01*
X17325465Y10685703D02*
X16921404Y10281642D01*
X17123435Y10483672D02*
X16416328Y11190779D01*
X16450000Y11022420D01*
X16450000Y10887733D01*
X16416328Y10786718D01*
X17325465Y11493825D02*
X17224450Y11460153D01*
X17157106Y11460153D01*
X17056091Y11493825D01*
X17022419Y11527497D01*
X16988748Y11628512D01*
X16988748Y11695855D01*
X17022419Y11796871D01*
X17157106Y11931558D01*
X17258122Y11965229D01*
X17325465Y11965229D01*
X17426480Y11931558D01*
X17460152Y11897886D01*
X17493824Y11796871D01*
X17493824Y11729527D01*
X17460152Y11628512D01*
X17325465Y11493825D01*
X17291793Y11392810D01*
X17291793Y11325466D01*
X17325465Y11224451D01*
X17460152Y11089764D01*
X17561167Y11056092D01*
X17628511Y11056092D01*
X17729526Y11089764D01*
X17864213Y11224451D01*
X17897885Y11325466D01*
X17897885Y11392810D01*
X17864213Y11493825D01*
X17729526Y11628512D01*
X17628511Y11662184D01*
X17561167Y11662184D01*
X17460152Y11628512D01*
%TO.C,C117*%
X27106174Y4213749D02*
X27038831Y4213749D01*
X26904144Y4281092D01*
X26836800Y4348436D01*
X26769457Y4483123D01*
X26769457Y4617810D01*
X26803128Y4718825D01*
X26904144Y4887184D01*
X27005159Y4988199D01*
X27173518Y5089214D01*
X27274533Y5122886D01*
X27409220Y5122886D01*
X27543907Y5055542D01*
X27611250Y4988199D01*
X27678594Y4853512D01*
X27678594Y4786168D01*
X27712266Y3472970D02*
X27308205Y3877031D01*
X27510235Y3675000D02*
X28217342Y4382107D01*
X28048983Y4348436D01*
X27914296Y4348436D01*
X27813281Y4382107D01*
X28385701Y2799535D02*
X27981640Y3203596D01*
X28183670Y3001565D02*
X28890777Y3708672D01*
X28722418Y3675000D01*
X28587731Y3675001D01*
X28486716Y3708672D01*
X29328510Y3270939D02*
X29799914Y2799535D01*
X28789762Y2395474D01*
%TO.C,J101*%
D13*
X34264285Y26122620D02*
X34264285Y25408334D01*
X34216666Y25265477D01*
X34121428Y25170239D01*
X33978571Y25122620D01*
X33883333Y25122620D01*
X35264285Y25122620D02*
X34692857Y25122620D01*
X34978571Y25122620D02*
X34978571Y26122620D01*
X34883333Y25979762D01*
X34788095Y25884524D01*
X34692857Y25836905D01*
X35883333Y26122620D02*
X35978571Y26122620D01*
X36073809Y26075000D01*
X36121428Y26027381D01*
X36169047Y25932143D01*
X36216666Y25741667D01*
X36216666Y25503572D01*
X36169047Y25313096D01*
X36121428Y25217858D01*
X36073809Y25170239D01*
X35978571Y25122620D01*
X35883333Y25122620D01*
X35788095Y25170239D01*
X35740476Y25217858D01*
X35692857Y25313096D01*
X35645238Y25503572D01*
X35645238Y25741667D01*
X35692857Y25932143D01*
X35740476Y26027381D01*
X35788095Y26075000D01*
X35883333Y26122620D01*
X37169047Y25122620D02*
X36597619Y25122620D01*
X36883333Y25122620D02*
X36883333Y26122620D01*
X36788095Y25979762D01*
X36692857Y25884524D01*
X36597619Y25836905D01*
%TO.C,C103*%
D12*
X29206175Y13563749D02*
X29138832Y13563749D01*
X29004145Y13631092D01*
X28936801Y13698436D01*
X28869458Y13833123D01*
X28869458Y13967810D01*
X28903129Y14068825D01*
X29004145Y14237184D01*
X29105160Y14338199D01*
X29273519Y14439214D01*
X29374534Y14472886D01*
X29509221Y14472886D01*
X29643908Y14405542D01*
X29711251Y14338199D01*
X29778595Y14203512D01*
X29778595Y14136168D01*
X29812267Y12822970D02*
X29408206Y13227031D01*
X29610236Y13025000D02*
X30317343Y13732107D01*
X30148984Y13698436D01*
X30014297Y13698436D01*
X29913282Y13732107D01*
X30957106Y13092344D02*
X31024450Y13025000D01*
X31058122Y12923985D01*
X31058122Y12856642D01*
X31024450Y12755626D01*
X30923435Y12587268D01*
X30755076Y12418909D01*
X30586717Y12317894D01*
X30485702Y12284222D01*
X30418358Y12284222D01*
X30317343Y12317894D01*
X30250000Y12385237D01*
X30216328Y12486252D01*
X30216328Y12553596D01*
X30250000Y12654611D01*
X30351015Y12822970D01*
X30519374Y12991329D01*
X30687732Y13092344D01*
X30788748Y13126016D01*
X30856091Y13126016D01*
X30957106Y13092344D01*
X31428511Y12620939D02*
X31866244Y12183207D01*
X31361167Y12149535D01*
X31462183Y12048520D01*
X31495854Y11947504D01*
X31495854Y11880161D01*
X31462183Y11779146D01*
X31293824Y11610787D01*
X31192809Y11577115D01*
X31125465Y11577115D01*
X31024450Y11610787D01*
X30822419Y11812817D01*
X30788748Y11913833D01*
X30788748Y11981176D01*
%TO.C,U102*%
X19910714Y34547620D02*
X19910714Y33738096D01*
X19958333Y33642858D01*
X20005952Y33595239D01*
X20101190Y33547620D01*
X20291666Y33547620D01*
X20386904Y33595239D01*
X20434523Y33642858D01*
X20482142Y33738096D01*
X20482142Y34547620D01*
X21482142Y33547620D02*
X20910714Y33547620D01*
X21196428Y33547620D02*
X21196428Y34547620D01*
X21101190Y34404762D01*
X21005952Y34309524D01*
X20910714Y34261905D01*
X22101190Y34547620D02*
X22196428Y34547620D01*
X22291666Y34500000D01*
X22339285Y34452381D01*
X22386904Y34357143D01*
X22434523Y34166667D01*
X22434523Y33928572D01*
X22386904Y33738096D01*
X22339285Y33642858D01*
X22291666Y33595239D01*
X22196428Y33547620D01*
X22101190Y33547620D01*
X22005952Y33595239D01*
X21958333Y33642858D01*
X21910714Y33738096D01*
X21863095Y33928572D01*
X21863095Y34166667D01*
X21910714Y34357143D01*
X21958333Y34452381D01*
X22005952Y34500000D01*
X22101190Y34547620D01*
X22815476Y34452381D02*
X22863095Y34500000D01*
X22958333Y34547620D01*
X23196428Y34547620D01*
X23291666Y34500000D01*
X23339285Y34452381D01*
X23386904Y34357143D01*
X23386904Y34261905D01*
X23339285Y34119048D01*
X22767857Y33547620D01*
X23386904Y33547620D01*
%TO.C,J102*%
X5764285Y16947620D02*
X5764285Y16233334D01*
X5716666Y16090477D01*
X5621428Y15995239D01*
X5478571Y15947620D01*
X5383333Y15947620D01*
X6764285Y15947620D02*
X6192857Y15947620D01*
X6478571Y15947620D02*
X6478571Y16947620D01*
X6383333Y16804762D01*
X6288095Y16709524D01*
X6192857Y16661905D01*
X7383333Y16947620D02*
X7478571Y16947620D01*
X7573809Y16900000D01*
X7621428Y16852381D01*
X7669047Y16757143D01*
X7716666Y16566667D01*
X7716666Y16328572D01*
X7669047Y16138096D01*
X7621428Y16042858D01*
X7573809Y15995239D01*
X7478571Y15947620D01*
X7383333Y15947620D01*
X7288095Y15995239D01*
X7240476Y16042858D01*
X7192857Y16138096D01*
X7145238Y16328572D01*
X7145238Y16566667D01*
X7192857Y16757143D01*
X7240476Y16852381D01*
X7288095Y16900000D01*
X7383333Y16947620D01*
X8097619Y16852381D02*
X8145238Y16900000D01*
X8240476Y16947620D01*
X8478571Y16947620D01*
X8573809Y16900000D01*
X8621428Y16852381D01*
X8669047Y16757143D01*
X8669047Y16661905D01*
X8621428Y16519048D01*
X8050000Y15947620D01*
X8669047Y15947620D01*
%TO.C,U104*%
X23025591Y2700043D02*
X23598011Y2127623D01*
X23699026Y2093951D01*
X23766370Y2093951D01*
X23867385Y2127623D01*
X24002072Y2262310D01*
X24035744Y2363325D01*
X24035744Y2430669D01*
X24002072Y2531684D01*
X23429652Y3104104D01*
X24843866Y3104104D02*
X24439805Y2700043D01*
X24641835Y2902073D02*
X23934729Y3609180D01*
X23968400Y3440821D01*
X23968400Y3306134D01*
X23934729Y3205119D01*
X24574492Y4248943D02*
X24641835Y4316287D01*
X24742851Y4349958D01*
X24810194Y4349958D01*
X24911209Y4316287D01*
X25079568Y4215271D01*
X25247927Y4046913D01*
X25348942Y3878554D01*
X25382614Y3777539D01*
X25382614Y3710195D01*
X25348942Y3609180D01*
X25281599Y3541836D01*
X25180583Y3508165D01*
X25113240Y3508165D01*
X25012225Y3541836D01*
X24843866Y3642852D01*
X24675507Y3811210D01*
X24574492Y3979569D01*
X24540820Y4080584D01*
X24540820Y4147928D01*
X24574492Y4248943D01*
X25651988Y4855035D02*
X26123392Y4383630D01*
X25214255Y4956050D02*
X25550973Y4282615D01*
X25988705Y4720348D01*
%TO.C,U103*%
X18185714Y15297620D02*
X18185714Y14488096D01*
X18233333Y14392858D01*
X18280952Y14345239D01*
X18376190Y14297620D01*
X18566666Y14297620D01*
X18661904Y14345239D01*
X18709523Y14392858D01*
X18757142Y14488096D01*
X18757142Y15297620D01*
X19757142Y14297620D02*
X19185714Y14297620D01*
X19471428Y14297620D02*
X19471428Y15297620D01*
X19376190Y15154762D01*
X19280952Y15059524D01*
X19185714Y15011905D01*
X20376190Y15297620D02*
X20471428Y15297620D01*
X20566666Y15250000D01*
X20614285Y15202381D01*
X20661904Y15107143D01*
X20709523Y14916667D01*
X20709523Y14678572D01*
X20661904Y14488096D01*
X20614285Y14392858D01*
X20566666Y14345239D01*
X20471428Y14297620D01*
X20376190Y14297620D01*
X20280952Y14345239D01*
X20233333Y14392858D01*
X20185714Y14488096D01*
X20138095Y14678572D01*
X20138095Y14916667D01*
X20185714Y15107143D01*
X20233333Y15202381D01*
X20280952Y15250000D01*
X20376190Y15297620D01*
X21042857Y15297620D02*
X21661904Y15297620D01*
X21328571Y14916667D01*
X21471428Y14916667D01*
X21566666Y14869048D01*
X21614285Y14821429D01*
X21661904Y14726191D01*
X21661904Y14488096D01*
X21614285Y14392858D01*
X21566666Y14345239D01*
X21471428Y14297620D01*
X21185714Y14297620D01*
X21090476Y14345239D01*
X21042857Y14392858D01*
%TO.C,U101*%
X29235714Y20747620D02*
X29235714Y19938096D01*
X29283333Y19842858D01*
X29330952Y19795239D01*
X29426190Y19747620D01*
X29616666Y19747620D01*
X29711904Y19795239D01*
X29759523Y19842858D01*
X29807142Y19938096D01*
X29807142Y20747620D01*
X30807142Y19747620D02*
X30235714Y19747620D01*
X30521428Y19747620D02*
X30521428Y20747620D01*
X30426190Y20604762D01*
X30330952Y20509524D01*
X30235714Y20461905D01*
X31426190Y20747620D02*
X31521428Y20747620D01*
X31616666Y20700000D01*
X31664285Y20652381D01*
X31711904Y20557143D01*
X31759523Y20366667D01*
X31759523Y20128572D01*
X31711904Y19938096D01*
X31664285Y19842858D01*
X31616666Y19795239D01*
X31521428Y19747620D01*
X31426190Y19747620D01*
X31330952Y19795239D01*
X31283333Y19842858D01*
X31235714Y19938096D01*
X31188095Y20128572D01*
X31188095Y20366667D01*
X31235714Y20557143D01*
X31283333Y20652381D01*
X31330952Y20700000D01*
X31426190Y20747620D01*
X32711904Y19747620D02*
X32140476Y19747620D01*
X32426190Y19747620D02*
X32426190Y20747620D01*
X32330952Y20604762D01*
X32235714Y20509524D01*
X32140476Y20461905D01*
%TO.C,R116*%
X15053595Y10363833D02*
X14481175Y10464848D01*
X14649534Y9959772D02*
X13942427Y10666878D01*
X14211801Y10936252D01*
X14312816Y10969924D01*
X14380160Y10969924D01*
X14481175Y10936252D01*
X14582190Y10835237D01*
X14615862Y10734222D01*
X14615862Y10666878D01*
X14582190Y10565863D01*
X14312816Y10296489D01*
X15727030Y11037268D02*
X15322969Y10633207D01*
X15525000Y10835237D02*
X14817893Y11542344D01*
X14851564Y11373985D01*
X14851564Y11239298D01*
X14817893Y11138283D01*
X16400465Y11710703D02*
X15996404Y11306642D01*
X16198435Y11508672D02*
X15491328Y12215779D01*
X15525000Y12047420D01*
X15525000Y11912733D01*
X15491328Y11811718D01*
X16299450Y13023901D02*
X16164763Y12889214D01*
X16131091Y12788199D01*
X16131091Y12720855D01*
X16164763Y12552497D01*
X16265778Y12384138D01*
X16535152Y12114764D01*
X16636167Y12081092D01*
X16703511Y12081092D01*
X16804526Y12114764D01*
X16939213Y12249451D01*
X16972885Y12350466D01*
X16972885Y12417810D01*
X16939213Y12518825D01*
X16770854Y12687184D01*
X16669839Y12720855D01*
X16602496Y12720855D01*
X16501480Y12687184D01*
X16366793Y12552497D01*
X16333122Y12451481D01*
X16333122Y12384138D01*
X16366793Y12283123D01*
%TO.C,R115*%
X15120952Y17597620D02*
X14787619Y18073810D01*
X14549523Y17597620D02*
X14549523Y18597620D01*
X14930476Y18597620D01*
X15025714Y18550000D01*
X15073333Y18502381D01*
X15120952Y18407143D01*
X15120952Y18264286D01*
X15073333Y18169048D01*
X15025714Y18121429D01*
X14930476Y18073810D01*
X14549523Y18073810D01*
X16073333Y17597620D02*
X15501904Y17597620D01*
X15787619Y17597620D02*
X15787619Y18597620D01*
X15692380Y18454762D01*
X15597142Y18359524D01*
X15501904Y18311905D01*
X17025714Y17597620D02*
X16454285Y17597620D01*
X16740000Y17597620D02*
X16740000Y18597620D01*
X16644761Y18454762D01*
X16549523Y18359524D01*
X16454285Y18311905D01*
X17930476Y18597620D02*
X17454285Y18597620D01*
X17406666Y18121429D01*
X17454285Y18169048D01*
X17549523Y18216667D01*
X17787619Y18216667D01*
X17882857Y18169048D01*
X17930476Y18121429D01*
X17978095Y18026191D01*
X17978095Y17788096D01*
X17930476Y17692858D01*
X17882857Y17645239D01*
X17787619Y17597620D01*
X17549523Y17597620D01*
X17454285Y17645239D01*
X17406666Y17692858D01*
%TO.C,R114*%
X29753595Y6888833D02*
X29181175Y6989848D01*
X29349534Y6484772D02*
X28642427Y7191878D01*
X28911801Y7461252D01*
X29012816Y7494924D01*
X29080160Y7494924D01*
X29181175Y7461252D01*
X29282190Y7360237D01*
X29315862Y7259222D01*
X29315862Y7191878D01*
X29282190Y7090863D01*
X29012816Y6821489D01*
X30427030Y7562268D02*
X30022969Y7158207D01*
X30225000Y7360237D02*
X29517893Y8067344D01*
X29551564Y7898985D01*
X29551564Y7764298D01*
X29517893Y7663283D01*
X31100465Y8235703D02*
X30696404Y7831642D01*
X30898435Y8033672D02*
X30191328Y8740779D01*
X30225000Y8572420D01*
X30225000Y8437733D01*
X30191328Y8336718D01*
X31235152Y9313199D02*
X31706557Y8841794D01*
X30797419Y9414214D02*
X31134137Y8740779D01*
X31571870Y9178512D01*
%TO.C,R113*%
X31903595Y23813833D02*
X31331175Y23914848D01*
X31499534Y23409772D02*
X30792427Y24116878D01*
X31061801Y24386252D01*
X31162816Y24419924D01*
X31230160Y24419924D01*
X31331175Y24386252D01*
X31432190Y24285237D01*
X31465862Y24184222D01*
X31465862Y24116878D01*
X31432190Y24015863D01*
X31162816Y23746489D01*
X32577030Y24487268D02*
X32172969Y24083207D01*
X32375000Y24285237D02*
X31667893Y24992344D01*
X31701564Y24823985D01*
X31701564Y24689298D01*
X31667893Y24588283D01*
X33250465Y25160703D02*
X32846404Y24756642D01*
X33048435Y24958672D02*
X32341328Y25665779D01*
X32375000Y25497420D01*
X32375000Y25362733D01*
X32341328Y25261718D01*
X32779061Y26103512D02*
X33216793Y26541245D01*
X33250465Y26036168D01*
X33351480Y26137184D01*
X33452496Y26170855D01*
X33519839Y26170855D01*
X33620854Y26137184D01*
X33789213Y25968825D01*
X33822885Y25867810D01*
X33822885Y25800466D01*
X33789213Y25699451D01*
X33587183Y25497420D01*
X33486167Y25463749D01*
X33418824Y25463749D01*
%TO.C,R111*%
X18903596Y15638833D02*
X18331176Y15739848D01*
X18499535Y15234772D02*
X17792428Y15941878D01*
X18061802Y16211252D01*
X18162817Y16244924D01*
X18230161Y16244924D01*
X18331176Y16211252D01*
X18432191Y16110237D01*
X18465863Y16009222D01*
X18465863Y15941878D01*
X18432191Y15840863D01*
X18162817Y15571489D01*
X19577031Y16312268D02*
X19172970Y15908207D01*
X19375001Y16110237D02*
X18667894Y16817344D01*
X18701565Y16648985D01*
X18701565Y16514298D01*
X18667894Y16413283D01*
X20250466Y16985703D02*
X19846405Y16581642D01*
X20048436Y16783672D02*
X19341329Y17490779D01*
X19375001Y17322420D01*
X19375001Y17187733D01*
X19341329Y17086718D01*
X20923901Y17659138D02*
X20519840Y17255077D01*
X20721871Y17457107D02*
X20014764Y18164214D01*
X20048436Y17995855D01*
X20048436Y17861168D01*
X20014764Y17760153D01*
%TO.C,R110*%
X30838832Y10396404D02*
X30939847Y10968824D01*
X30434771Y10800465D02*
X31141877Y11507572D01*
X31411251Y11238198D01*
X31444923Y11137183D01*
X31444923Y11069839D01*
X31411251Y10968824D01*
X31310236Y10867809D01*
X31209221Y10834137D01*
X31141877Y10834137D01*
X31040862Y10867809D01*
X30771488Y11137183D01*
X31512267Y9722969D02*
X31108206Y10127030D01*
X31310236Y9924999D02*
X32017343Y10632106D01*
X31848984Y10598435D01*
X31714297Y10598435D01*
X31613282Y10632106D01*
X32185702Y9049534D02*
X31781641Y9453595D01*
X31983671Y9251564D02*
X32690778Y9958671D01*
X32522419Y9924999D01*
X32387732Y9925000D01*
X32286717Y9958671D01*
X33330541Y9318908D02*
X33397885Y9251564D01*
X33431557Y9150549D01*
X33431557Y9083206D01*
X33397885Y8982190D01*
X33296870Y8813832D01*
X33128511Y8645473D01*
X32960152Y8544458D01*
X32859137Y8510786D01*
X32791793Y8510786D01*
X32690778Y8544458D01*
X32623435Y8611801D01*
X32589763Y8712816D01*
X32589763Y8780160D01*
X32623435Y8881175D01*
X32724450Y9049534D01*
X32892809Y9217893D01*
X33061167Y9318908D01*
X33162183Y9352580D01*
X33229526Y9352580D01*
X33330541Y9318908D01*
%TO.C,R109*%
X30688832Y27996405D02*
X30789847Y28568825D01*
X30284771Y28400466D02*
X30991877Y29107573D01*
X31261251Y28838199D01*
X31294923Y28737184D01*
X31294923Y28669840D01*
X31261251Y28568825D01*
X31160236Y28467810D01*
X31059221Y28434138D01*
X30991877Y28434138D01*
X30890862Y28467810D01*
X30621488Y28737184D01*
X31362267Y27322970D02*
X30958206Y27727031D01*
X31160236Y27525000D02*
X31867343Y28232107D01*
X31698984Y28198436D01*
X31564297Y28198436D01*
X31463282Y28232107D01*
X32507106Y27592344D02*
X32574450Y27525000D01*
X32608122Y27423985D01*
X32608122Y27356642D01*
X32574450Y27255626D01*
X32473435Y27087268D01*
X32305076Y26918909D01*
X32136717Y26817894D01*
X32035702Y26784222D01*
X31968358Y26784222D01*
X31867343Y26817894D01*
X31800000Y26885237D01*
X31766328Y26986252D01*
X31766328Y27053596D01*
X31800000Y27154611D01*
X31901015Y27322970D01*
X32069374Y27491329D01*
X32237732Y27592344D01*
X32338748Y27626016D01*
X32406091Y27626016D01*
X32507106Y27592344D01*
X32372419Y26312817D02*
X32507106Y26178130D01*
X32608122Y26144459D01*
X32675465Y26144459D01*
X32843824Y26178130D01*
X33012183Y26279146D01*
X33281557Y26548520D01*
X33315228Y26649535D01*
X33315228Y26716878D01*
X33281557Y26817894D01*
X33146870Y26952581D01*
X33045854Y26986252D01*
X32978511Y26986252D01*
X32877496Y26952581D01*
X32709137Y26784222D01*
X32675465Y26683207D01*
X32675465Y26615863D01*
X32709137Y26514848D01*
X32843824Y26380161D01*
X32944839Y26346489D01*
X33012183Y26346489D01*
X33113198Y26380161D01*
%TO.C,R108*%
X17078595Y8038833D02*
X16506175Y8139848D01*
X16674534Y7634772D02*
X15967427Y8341878D01*
X16236801Y8611252D01*
X16337816Y8644924D01*
X16405160Y8644924D01*
X16506175Y8611252D01*
X16607190Y8510237D01*
X16640862Y8409222D01*
X16640862Y8341878D01*
X16607190Y8240863D01*
X16337816Y7971489D01*
X17752030Y8712268D02*
X17347969Y8308207D01*
X17550000Y8510237D02*
X16842893Y9217344D01*
X16876564Y9048985D01*
X16876564Y8914298D01*
X16842893Y8813283D01*
X17482656Y9857107D02*
X17550000Y9924451D01*
X17651015Y9958123D01*
X17718358Y9958123D01*
X17819374Y9924451D01*
X17987732Y9823436D01*
X18156091Y9655077D01*
X18257106Y9486718D01*
X18290778Y9385703D01*
X18290778Y9318359D01*
X18257106Y9217344D01*
X18189763Y9150000D01*
X18088748Y9116329D01*
X18021404Y9116329D01*
X17920389Y9150000D01*
X17752030Y9251016D01*
X17583671Y9419375D01*
X17482656Y9587733D01*
X17448984Y9688749D01*
X17448984Y9756092D01*
X17482656Y9857107D01*
X18425465Y10193825D02*
X18324450Y10160153D01*
X18257106Y10160153D01*
X18156091Y10193825D01*
X18122419Y10227497D01*
X18088748Y10328512D01*
X18088748Y10395855D01*
X18122419Y10496871D01*
X18257106Y10631558D01*
X18358122Y10665229D01*
X18425465Y10665229D01*
X18526480Y10631558D01*
X18560152Y10597886D01*
X18593824Y10496871D01*
X18593824Y10429527D01*
X18560152Y10328512D01*
X18425465Y10193825D01*
X18391793Y10092810D01*
X18391793Y10025466D01*
X18425465Y9924451D01*
X18560152Y9789764D01*
X18661167Y9756092D01*
X18728511Y9756092D01*
X18829526Y9789764D01*
X18964213Y9924451D01*
X18997885Y10025466D01*
X18997885Y10092810D01*
X18964213Y10193825D01*
X18829526Y10328512D01*
X18728511Y10362184D01*
X18661167Y10362184D01*
X18560152Y10328512D01*
%TO.C,R107*%
X23188832Y7096405D02*
X23289847Y7668825D01*
X22784771Y7500466D02*
X23491877Y8207573D01*
X23761251Y7938199D01*
X23794923Y7837184D01*
X23794923Y7769840D01*
X23761251Y7668825D01*
X23660236Y7567810D01*
X23559221Y7534138D01*
X23491877Y7534138D01*
X23390862Y7567810D01*
X23121488Y7837184D01*
X23862267Y6422970D02*
X23458206Y6827031D01*
X23660236Y6625000D02*
X24367343Y7332107D01*
X24198984Y7298436D01*
X24064297Y7298436D01*
X23963282Y7332107D01*
X25007106Y6692344D02*
X25074450Y6625000D01*
X25108122Y6523985D01*
X25108122Y6456642D01*
X25074450Y6355626D01*
X24973435Y6187268D01*
X24805076Y6018909D01*
X24636717Y5917894D01*
X24535702Y5884222D01*
X24468358Y5884222D01*
X24367343Y5917894D01*
X24300000Y5985237D01*
X24266328Y6086252D01*
X24266328Y6153596D01*
X24300000Y6254611D01*
X24401015Y6422970D01*
X24569374Y6591329D01*
X24737732Y6692344D01*
X24838748Y6726016D01*
X24906091Y6726016D01*
X25007106Y6692344D01*
X25478511Y6220939D02*
X25949915Y5749535D01*
X24939763Y5345474D01*
%TO.C,R106*%
X34788832Y33496405D02*
X34889847Y34068825D01*
X34384771Y33900466D02*
X35091877Y34607573D01*
X35361251Y34338199D01*
X35394923Y34237184D01*
X35394923Y34169840D01*
X35361251Y34068825D01*
X35260236Y33967810D01*
X35159221Y33934138D01*
X35091877Y33934138D01*
X34990862Y33967810D01*
X34721488Y34237184D01*
X35462267Y32822970D02*
X35058206Y33227031D01*
X35260236Y33025000D02*
X35967343Y33732107D01*
X35798984Y33698436D01*
X35664297Y33698436D01*
X35563282Y33732107D01*
X36607106Y33092344D02*
X36674450Y33025000D01*
X36708122Y32923985D01*
X36708122Y32856642D01*
X36674450Y32755626D01*
X36573435Y32587268D01*
X36405076Y32418909D01*
X36236717Y32317894D01*
X36135702Y32284222D01*
X36068358Y32284222D01*
X35967343Y32317894D01*
X35900000Y32385237D01*
X35866328Y32486252D01*
X35866328Y32553596D01*
X35900000Y32654611D01*
X36001015Y32822970D01*
X36169374Y32991329D01*
X36337732Y33092344D01*
X36438748Y33126016D01*
X36506091Y33126016D01*
X36607106Y33092344D01*
X37448900Y32250550D02*
X37314213Y32385237D01*
X37213198Y32418909D01*
X37145854Y32418909D01*
X36977496Y32385237D01*
X36809137Y32284222D01*
X36539763Y32014848D01*
X36506091Y31913833D01*
X36506091Y31846489D01*
X36539763Y31745474D01*
X36674450Y31610787D01*
X36775465Y31577115D01*
X36842809Y31577115D01*
X36943824Y31610787D01*
X37112183Y31779146D01*
X37145854Y31880161D01*
X37145854Y31947504D01*
X37112183Y32048520D01*
X36977496Y32183207D01*
X36876480Y32216878D01*
X36809137Y32216878D01*
X36708122Y32183207D01*
%TO.C,R104*%
X8530952Y22872620D02*
X8197619Y23348810D01*
X7959523Y22872620D02*
X7959523Y23872620D01*
X8340476Y23872620D01*
X8435714Y23825000D01*
X8483333Y23777381D01*
X8530952Y23682143D01*
X8530952Y23539286D01*
X8483333Y23444048D01*
X8435714Y23396429D01*
X8340476Y23348810D01*
X7959523Y23348810D01*
X9483333Y22872620D02*
X8911904Y22872620D01*
X9197619Y22872620D02*
X9197619Y23872620D01*
X9102380Y23729762D01*
X9007142Y23634524D01*
X8911904Y23586905D01*
X10102380Y23872620D02*
X10197619Y23872620D01*
X10292857Y23825000D01*
X10340476Y23777381D01*
X10388095Y23682143D01*
X10435714Y23491667D01*
X10435714Y23253572D01*
X10388095Y23063096D01*
X10340476Y22967858D01*
X10292857Y22920239D01*
X10197619Y22872620D01*
X10102380Y22872620D01*
X10007142Y22920239D01*
X9959523Y22967858D01*
X9911904Y23063096D01*
X9864285Y23253572D01*
X9864285Y23491667D01*
X9911904Y23682143D01*
X9959523Y23777381D01*
X10007142Y23825000D01*
X10102380Y23872620D01*
X11292857Y23539286D02*
X11292857Y22872620D01*
X11054761Y23920239D02*
X10816666Y23205953D01*
X11435714Y23205953D01*
%TO.C,R103*%
X16978595Y2538833D02*
X16406175Y2639848D01*
X16574534Y2134772D02*
X15867427Y2841878D01*
X16136801Y3111252D01*
X16237816Y3144924D01*
X16305160Y3144924D01*
X16406175Y3111252D01*
X16507190Y3010237D01*
X16540862Y2909222D01*
X16540862Y2841878D01*
X16507190Y2740863D01*
X16237816Y2471489D01*
X17652030Y3212268D02*
X17247969Y2808207D01*
X17450000Y3010237D02*
X16742893Y3717344D01*
X16776564Y3548985D01*
X16776564Y3414298D01*
X16742893Y3313283D01*
X17382656Y4357107D02*
X17450000Y4424451D01*
X17551015Y4458123D01*
X17618358Y4458123D01*
X17719374Y4424451D01*
X17887732Y4323436D01*
X18056091Y4155077D01*
X18157106Y3986718D01*
X18190778Y3885703D01*
X18190778Y3818359D01*
X18157106Y3717344D01*
X18089763Y3650000D01*
X17988748Y3616329D01*
X17921404Y3616329D01*
X17820389Y3650000D01*
X17652030Y3751016D01*
X17483671Y3919375D01*
X17382656Y4087733D01*
X17348984Y4188749D01*
X17348984Y4256092D01*
X17382656Y4357107D01*
X17854061Y4828512D02*
X18291793Y5266245D01*
X18325465Y4761168D01*
X18426480Y4862184D01*
X18527496Y4895855D01*
X18594839Y4895855D01*
X18695854Y4862184D01*
X18864213Y4693825D01*
X18897885Y4592810D01*
X18897885Y4525466D01*
X18864213Y4424451D01*
X18662183Y4222420D01*
X18561167Y4188749D01*
X18493824Y4188749D01*
%TO.C,R102*%
X29528595Y31088833D02*
X28956175Y31189848D01*
X29124534Y30684772D02*
X28417427Y31391878D01*
X28686801Y31661252D01*
X28787816Y31694924D01*
X28855160Y31694924D01*
X28956175Y31661252D01*
X29057190Y31560237D01*
X29090862Y31459222D01*
X29090862Y31391878D01*
X29057190Y31290863D01*
X28787816Y31021489D01*
X30202030Y31762268D02*
X29797969Y31358207D01*
X30000000Y31560237D02*
X29292893Y32267344D01*
X29326564Y32098985D01*
X29326564Y31964298D01*
X29292893Y31863283D01*
X29932656Y32907107D02*
X30000000Y32974451D01*
X30101015Y33008123D01*
X30168358Y33008123D01*
X30269374Y32974451D01*
X30437732Y32873436D01*
X30606091Y32705077D01*
X30707106Y32536718D01*
X30740778Y32435703D01*
X30740778Y32368359D01*
X30707106Y32267344D01*
X30639763Y32200000D01*
X30538748Y32166329D01*
X30471404Y32166329D01*
X30370389Y32200000D01*
X30202030Y32301016D01*
X30033671Y32469375D01*
X29932656Y32637733D01*
X29898984Y32738749D01*
X29898984Y32806092D01*
X29932656Y32907107D01*
X30505076Y33344840D02*
X30505076Y33412184D01*
X30538748Y33513199D01*
X30707106Y33681558D01*
X30808122Y33715229D01*
X30875465Y33715229D01*
X30976480Y33681558D01*
X31043824Y33614214D01*
X31111167Y33479527D01*
X31111167Y32671405D01*
X31548900Y33109138D01*
%TO.C,R101*%
X28503595Y32063833D02*
X27931175Y32164848D01*
X28099534Y31659772D02*
X27392427Y32366878D01*
X27661801Y32636252D01*
X27762816Y32669924D01*
X27830160Y32669924D01*
X27931175Y32636252D01*
X28032190Y32535237D01*
X28065862Y32434222D01*
X28065862Y32366878D01*
X28032190Y32265863D01*
X27762816Y31996489D01*
X29177030Y32737268D02*
X28772969Y32333207D01*
X28975000Y32535237D02*
X28267893Y33242344D01*
X28301564Y33073985D01*
X28301564Y32939298D01*
X28267893Y32838283D01*
X28907656Y33882107D02*
X28975000Y33949451D01*
X29076015Y33983123D01*
X29143358Y33983123D01*
X29244374Y33949451D01*
X29412732Y33848436D01*
X29581091Y33680077D01*
X29682106Y33511718D01*
X29715778Y33410703D01*
X29715778Y33343359D01*
X29682106Y33242344D01*
X29614763Y33175000D01*
X29513748Y33141329D01*
X29446404Y33141329D01*
X29345389Y33175000D01*
X29177030Y33276016D01*
X29008671Y33444375D01*
X28907656Y33612733D01*
X28873984Y33713749D01*
X28873984Y33781092D01*
X28907656Y33882107D01*
X30523900Y34084138D02*
X30119839Y33680077D01*
X30321870Y33882107D02*
X29614763Y34589214D01*
X29648435Y34420855D01*
X29648435Y34286168D01*
X29614763Y34185153D01*
%TO.C,D101*%
X29234523Y22372620D02*
X29234523Y23372620D01*
X29472619Y23372620D01*
X29615476Y23325000D01*
X29710714Y23229762D01*
X29758333Y23134524D01*
X29805952Y22944048D01*
X29805952Y22801191D01*
X29758333Y22610715D01*
X29710714Y22515477D01*
X29615476Y22420239D01*
X29472619Y22372620D01*
X29234523Y22372620D01*
X30758333Y22372620D02*
X30186904Y22372620D01*
X30472619Y22372620D02*
X30472619Y23372620D01*
X30377380Y23229762D01*
X30282142Y23134524D01*
X30186904Y23086905D01*
X31377380Y23372620D02*
X31472619Y23372620D01*
X31567857Y23325000D01*
X31615476Y23277381D01*
X31663095Y23182143D01*
X31710714Y22991667D01*
X31710714Y22753572D01*
X31663095Y22563096D01*
X31615476Y22467858D01*
X31567857Y22420239D01*
X31472619Y22372620D01*
X31377380Y22372620D01*
X31282142Y22420239D01*
X31234523Y22467858D01*
X31186904Y22563096D01*
X31139285Y22753572D01*
X31139285Y22991667D01*
X31186904Y23182143D01*
X31234523Y23277381D01*
X31282142Y23325000D01*
X31377380Y23372620D01*
X32663095Y22372620D02*
X32091666Y22372620D01*
X32377380Y22372620D02*
X32377380Y23372620D01*
X32282142Y23229762D01*
X32186904Y23134524D01*
X32091666Y23086905D01*
%TO.C,C116*%
X26506175Y18463749D02*
X26438832Y18463749D01*
X26304145Y18531092D01*
X26236801Y18598436D01*
X26169458Y18733123D01*
X26169458Y18867810D01*
X26203129Y18968825D01*
X26304145Y19137184D01*
X26405160Y19238199D01*
X26573519Y19339214D01*
X26674534Y19372886D01*
X26809221Y19372886D01*
X26943908Y19305542D01*
X27011251Y19238199D01*
X27078595Y19103512D01*
X27078595Y19036168D01*
X27112267Y17722970D02*
X26708206Y18127031D01*
X26910236Y17925000D02*
X27617343Y18632107D01*
X27448984Y18598436D01*
X27314297Y18598436D01*
X27213282Y18632107D01*
X27785702Y17049535D02*
X27381641Y17453596D01*
X27583671Y17251565D02*
X28290778Y17958672D01*
X28122419Y17925000D01*
X27987732Y17925001D01*
X27886717Y17958672D01*
X29098900Y17150550D02*
X28964213Y17285237D01*
X28863198Y17318909D01*
X28795854Y17318909D01*
X28627496Y17285237D01*
X28459137Y17184222D01*
X28189763Y16914848D01*
X28156091Y16813833D01*
X28156091Y16746489D01*
X28189763Y16645474D01*
X28324450Y16510787D01*
X28425465Y16477115D01*
X28492809Y16477115D01*
X28593824Y16510787D01*
X28762183Y16679146D01*
X28795854Y16780161D01*
X28795854Y16847504D01*
X28762183Y16948520D01*
X28627496Y17083207D01*
X28526480Y17116878D01*
X28459137Y17116878D01*
X28358122Y17083207D01*
%TO.C,C114*%
X27806175Y5613749D02*
X27738832Y5613749D01*
X27604145Y5681092D01*
X27536801Y5748436D01*
X27469458Y5883123D01*
X27469458Y6017810D01*
X27503129Y6118825D01*
X27604145Y6287184D01*
X27705160Y6388199D01*
X27873519Y6489214D01*
X27974534Y6522886D01*
X28109221Y6522886D01*
X28243908Y6455542D01*
X28311251Y6388199D01*
X28378595Y6253512D01*
X28378595Y6186168D01*
X28412267Y4872970D02*
X28008206Y5277031D01*
X28210236Y5075000D02*
X28917343Y5782107D01*
X28748984Y5748436D01*
X28614297Y5748436D01*
X28513282Y5782107D01*
X29085702Y4199535D02*
X28681641Y4603596D01*
X28883671Y4401565D02*
X29590778Y5108672D01*
X29422419Y5075000D01*
X29287732Y5075001D01*
X29186717Y5108672D01*
X30163198Y4064848D02*
X29691793Y3593443D01*
X30264213Y4502581D02*
X29590778Y4165863D01*
X30028511Y3728130D01*
%TO.C,C113*%
X15130952Y26267858D02*
X15083333Y26220239D01*
X14940476Y26172620D01*
X14845238Y26172620D01*
X14702380Y26220239D01*
X14607142Y26315477D01*
X14559523Y26410715D01*
X14511904Y26601191D01*
X14511904Y26744048D01*
X14559523Y26934524D01*
X14607142Y27029762D01*
X14702380Y27125000D01*
X14845238Y27172620D01*
X14940476Y27172620D01*
X15083333Y27125000D01*
X15130952Y27077381D01*
X16083333Y26172620D02*
X15511904Y26172620D01*
X15797619Y26172620D02*
X15797619Y27172620D01*
X15702380Y27029762D01*
X15607142Y26934524D01*
X15511904Y26886905D01*
X17035714Y26172620D02*
X16464285Y26172620D01*
X16750000Y26172620D02*
X16750000Y27172620D01*
X16654761Y27029762D01*
X16559523Y26934524D01*
X16464285Y26886905D01*
X17369047Y27172620D02*
X17988095Y27172620D01*
X17654761Y26791667D01*
X17797619Y26791667D01*
X17892857Y26744048D01*
X17940476Y26696429D01*
X17988095Y26601191D01*
X17988095Y26363096D01*
X17940476Y26267858D01*
X17892857Y26220239D01*
X17797619Y26172620D01*
X17511904Y26172620D01*
X17416666Y26220239D01*
X17369047Y26267858D01*
%TO.C,C112*%
X20505952Y867858D02*
X20458333Y820239D01*
X20315476Y772620D01*
X20220238Y772620D01*
X20077380Y820239D01*
X19982142Y915477D01*
X19934523Y1010715D01*
X19886904Y1201191D01*
X19886904Y1344048D01*
X19934523Y1534524D01*
X19982142Y1629762D01*
X20077380Y1725000D01*
X20220238Y1772620D01*
X20315476Y1772620D01*
X20458333Y1725000D01*
X20505952Y1677381D01*
X21458333Y772620D02*
X20886904Y772620D01*
X21172619Y772620D02*
X21172619Y1772620D01*
X21077380Y1629762D01*
X20982142Y1534524D01*
X20886904Y1486905D01*
X22410714Y772620D02*
X21839285Y772620D01*
X22125000Y772620D02*
X22125000Y1772620D01*
X22029761Y1629762D01*
X21934523Y1534524D01*
X21839285Y1486905D01*
X22791666Y1677381D02*
X22839285Y1725000D01*
X22934523Y1772620D01*
X23172619Y1772620D01*
X23267857Y1725000D01*
X23315476Y1677381D01*
X23363095Y1582143D01*
X23363095Y1486905D01*
X23315476Y1344048D01*
X22744047Y772620D01*
X23363095Y772620D01*
%TO.C,C111*%
X15030952Y30392858D02*
X14983333Y30345239D01*
X14840476Y30297620D01*
X14745238Y30297620D01*
X14602380Y30345239D01*
X14507142Y30440477D01*
X14459523Y30535715D01*
X14411904Y30726191D01*
X14411904Y30869048D01*
X14459523Y31059524D01*
X14507142Y31154762D01*
X14602380Y31250000D01*
X14745238Y31297620D01*
X14840476Y31297620D01*
X14983333Y31250000D01*
X15030952Y31202381D01*
X15983333Y30297620D02*
X15411904Y30297620D01*
X15697619Y30297620D02*
X15697619Y31297620D01*
X15602380Y31154762D01*
X15507142Y31059524D01*
X15411904Y31011905D01*
X16935714Y30297620D02*
X16364285Y30297620D01*
X16650000Y30297620D02*
X16650000Y31297620D01*
X16554761Y31154762D01*
X16459523Y31059524D01*
X16364285Y31011905D01*
X17888095Y30297620D02*
X17316666Y30297620D01*
X17602380Y30297620D02*
X17602380Y31297620D01*
X17507142Y31154762D01*
X17411904Y31059524D01*
X17316666Y31011905D01*
%TO.C,C110*%
X16136251Y21906176D02*
X16136251Y21838833D01*
X16068908Y21704146D01*
X16001564Y21636802D01*
X15866877Y21569459D01*
X15732190Y21569459D01*
X15631175Y21603130D01*
X15462816Y21704146D01*
X15361801Y21805161D01*
X15260786Y21973520D01*
X15227114Y22074535D01*
X15227114Y22209222D01*
X15294458Y22343909D01*
X15361801Y22411252D01*
X15496488Y22478596D01*
X15563832Y22478596D01*
X16877030Y22512268D02*
X16472969Y22108207D01*
X16675000Y22310237D02*
X15967893Y23017344D01*
X16001564Y22848985D01*
X16001564Y22714298D01*
X15967893Y22613283D01*
X17550465Y23185703D02*
X17146404Y22781642D01*
X17348435Y22983672D02*
X16641328Y23690779D01*
X16675000Y23522420D01*
X16675000Y23387733D01*
X16641328Y23286718D01*
X17281091Y24330542D02*
X17348435Y24397886D01*
X17449450Y24431558D01*
X17516793Y24431558D01*
X17617809Y24397886D01*
X17786167Y24296871D01*
X17954526Y24128512D01*
X18055541Y23960153D01*
X18089213Y23859138D01*
X18089213Y23791794D01*
X18055541Y23690779D01*
X17988198Y23623436D01*
X17887183Y23589764D01*
X17819839Y23589764D01*
X17718824Y23623436D01*
X17550465Y23724451D01*
X17382106Y23892810D01*
X17281091Y24061168D01*
X17247419Y24162184D01*
X17247419Y24229527D01*
X17281091Y24330542D01*
%TO.C,C109*%
X29780952Y21167858D02*
X29733333Y21120239D01*
X29590476Y21072620D01*
X29495238Y21072620D01*
X29352380Y21120239D01*
X29257142Y21215477D01*
X29209523Y21310715D01*
X29161904Y21501191D01*
X29161904Y21644048D01*
X29209523Y21834524D01*
X29257142Y21929762D01*
X29352380Y22025000D01*
X29495238Y22072620D01*
X29590476Y22072620D01*
X29733333Y22025000D01*
X29780952Y21977381D01*
X30733333Y21072620D02*
X30161904Y21072620D01*
X30447619Y21072620D02*
X30447619Y22072620D01*
X30352380Y21929762D01*
X30257142Y21834524D01*
X30161904Y21786905D01*
X31352380Y22072620D02*
X31447619Y22072620D01*
X31542857Y22025000D01*
X31590476Y21977381D01*
X31638095Y21882143D01*
X31685714Y21691667D01*
X31685714Y21453572D01*
X31638095Y21263096D01*
X31590476Y21167858D01*
X31542857Y21120239D01*
X31447619Y21072620D01*
X31352380Y21072620D01*
X31257142Y21120239D01*
X31209523Y21167858D01*
X31161904Y21263096D01*
X31114285Y21453572D01*
X31114285Y21691667D01*
X31161904Y21882143D01*
X31209523Y21977381D01*
X31257142Y22025000D01*
X31352380Y22072620D01*
X32161904Y21072620D02*
X32352380Y21072620D01*
X32447619Y21120239D01*
X32495238Y21167858D01*
X32590476Y21310715D01*
X32638095Y21501191D01*
X32638095Y21882143D01*
X32590476Y21977381D01*
X32542857Y22025000D01*
X32447619Y22072620D01*
X32257142Y22072620D01*
X32161904Y22025000D01*
X32114285Y21977381D01*
X32066666Y21882143D01*
X32066666Y21644048D01*
X32114285Y21548810D01*
X32161904Y21501191D01*
X32257142Y21453572D01*
X32447619Y21453572D01*
X32542857Y21501191D01*
X32590476Y21548810D01*
X32638095Y21644048D01*
%TO.C,C108*%
X24955952Y33642858D02*
X24908333Y33595239D01*
X24765476Y33547620D01*
X24670238Y33547620D01*
X24527380Y33595239D01*
X24432142Y33690477D01*
X24384523Y33785715D01*
X24336904Y33976191D01*
X24336904Y34119048D01*
X24384523Y34309524D01*
X24432142Y34404762D01*
X24527380Y34500000D01*
X24670238Y34547620D01*
X24765476Y34547620D01*
X24908333Y34500000D01*
X24955952Y34452381D01*
X25908333Y33547620D02*
X25336904Y33547620D01*
X25622619Y33547620D02*
X25622619Y34547620D01*
X25527380Y34404762D01*
X25432142Y34309524D01*
X25336904Y34261905D01*
X26527380Y34547620D02*
X26622619Y34547620D01*
X26717857Y34500000D01*
X26765476Y34452381D01*
X26813095Y34357143D01*
X26860714Y34166667D01*
X26860714Y33928572D01*
X26813095Y33738096D01*
X26765476Y33642858D01*
X26717857Y33595239D01*
X26622619Y33547620D01*
X26527380Y33547620D01*
X26432142Y33595239D01*
X26384523Y33642858D01*
X26336904Y33738096D01*
X26289285Y33928572D01*
X26289285Y34166667D01*
X26336904Y34357143D01*
X26384523Y34452381D01*
X26432142Y34500000D01*
X26527380Y34547620D01*
X27432142Y34119048D02*
X27336904Y34166667D01*
X27289285Y34214286D01*
X27241666Y34309524D01*
X27241666Y34357143D01*
X27289285Y34452381D01*
X27336904Y34500000D01*
X27432142Y34547620D01*
X27622619Y34547620D01*
X27717857Y34500000D01*
X27765476Y34452381D01*
X27813095Y34357143D01*
X27813095Y34309524D01*
X27765476Y34214286D01*
X27717857Y34166667D01*
X27622619Y34119048D01*
X27432142Y34119048D01*
X27336904Y34071429D01*
X27289285Y34023810D01*
X27241666Y33928572D01*
X27241666Y33738096D01*
X27289285Y33642858D01*
X27336904Y33595239D01*
X27432142Y33547620D01*
X27622619Y33547620D01*
X27717857Y33595239D01*
X27765476Y33642858D01*
X27813095Y33738096D01*
X27813095Y33928572D01*
X27765476Y34023810D01*
X27717857Y34071429D01*
X27622619Y34119048D01*
%TO.C,C107*%
X18836251Y20056176D02*
X18836251Y19988833D01*
X18768908Y19854146D01*
X18701564Y19786802D01*
X18566877Y19719459D01*
X18432190Y19719459D01*
X18331175Y19753130D01*
X18162816Y19854146D01*
X18061801Y19955161D01*
X17960786Y20123520D01*
X17927114Y20224535D01*
X17927114Y20359222D01*
X17994458Y20493909D01*
X18061801Y20561252D01*
X18196488Y20628596D01*
X18263832Y20628596D01*
X19577030Y20662268D02*
X19172969Y20258207D01*
X19375000Y20460237D02*
X18667893Y21167344D01*
X18701564Y20998985D01*
X18701564Y20864298D01*
X18667893Y20763283D01*
X19307656Y21807107D02*
X19375000Y21874451D01*
X19476015Y21908123D01*
X19543358Y21908123D01*
X19644374Y21874451D01*
X19812732Y21773436D01*
X19981091Y21605077D01*
X20082106Y21436718D01*
X20115778Y21335703D01*
X20115778Y21268359D01*
X20082106Y21167344D01*
X20014763Y21100000D01*
X19913748Y21066329D01*
X19846404Y21066329D01*
X19745389Y21100000D01*
X19577030Y21201016D01*
X19408671Y21369375D01*
X19307656Y21537733D01*
X19273984Y21638749D01*
X19273984Y21706092D01*
X19307656Y21807107D01*
X19779061Y22278512D02*
X20250465Y22749916D01*
X20654526Y21739764D01*
%TO.C,C106*%
X34330952Y26642858D02*
X34283333Y26595239D01*
X34140476Y26547620D01*
X34045238Y26547620D01*
X33902380Y26595239D01*
X33807142Y26690477D01*
X33759523Y26785715D01*
X33711904Y26976191D01*
X33711904Y27119048D01*
X33759523Y27309524D01*
X33807142Y27404762D01*
X33902380Y27500000D01*
X34045238Y27547620D01*
X34140476Y27547620D01*
X34283333Y27500000D01*
X34330952Y27452381D01*
X35283333Y26547620D02*
X34711904Y26547620D01*
X34997619Y26547620D02*
X34997619Y27547620D01*
X34902380Y27404762D01*
X34807142Y27309524D01*
X34711904Y27261905D01*
X35902380Y27547620D02*
X35997619Y27547620D01*
X36092857Y27500000D01*
X36140476Y27452381D01*
X36188095Y27357143D01*
X36235714Y27166667D01*
X36235714Y26928572D01*
X36188095Y26738096D01*
X36140476Y26642858D01*
X36092857Y26595239D01*
X35997619Y26547620D01*
X35902380Y26547620D01*
X35807142Y26595239D01*
X35759523Y26642858D01*
X35711904Y26738096D01*
X35664285Y26928572D01*
X35664285Y27166667D01*
X35711904Y27357143D01*
X35759523Y27452381D01*
X35807142Y27500000D01*
X35902380Y27547620D01*
X37092857Y27547620D02*
X36902380Y27547620D01*
X36807142Y27500000D01*
X36759523Y27452381D01*
X36664285Y27309524D01*
X36616666Y27119048D01*
X36616666Y26738096D01*
X36664285Y26642858D01*
X36711904Y26595239D01*
X36807142Y26547620D01*
X36997619Y26547620D01*
X37092857Y26595239D01*
X37140476Y26642858D01*
X37188095Y26738096D01*
X37188095Y26976191D01*
X37140476Y27071429D01*
X37092857Y27119048D01*
X36997619Y27166667D01*
X36807142Y27166667D01*
X36711904Y27119048D01*
X36664285Y27071429D01*
X36616666Y26976191D01*
%TO.C,C105*%
X33956175Y8938749D02*
X33888832Y8938749D01*
X33754145Y9006092D01*
X33686801Y9073436D01*
X33619458Y9208123D01*
X33619458Y9342810D01*
X33653129Y9443825D01*
X33754145Y9612184D01*
X33855160Y9713199D01*
X34023519Y9814214D01*
X34124534Y9847886D01*
X34259221Y9847886D01*
X34393908Y9780542D01*
X34461251Y9713199D01*
X34528595Y9578512D01*
X34528595Y9511168D01*
X34562267Y8197970D02*
X34158206Y8602031D01*
X34360236Y8400000D02*
X35067343Y9107107D01*
X34898984Y9073436D01*
X34764297Y9073436D01*
X34663282Y9107107D01*
X35707106Y8467344D02*
X35774450Y8400000D01*
X35808122Y8298985D01*
X35808122Y8231642D01*
X35774450Y8130626D01*
X35673435Y7962268D01*
X35505076Y7793909D01*
X35336717Y7692894D01*
X35235702Y7659222D01*
X35168358Y7659222D01*
X35067343Y7692894D01*
X35000000Y7760237D01*
X34966328Y7861252D01*
X34966328Y7928596D01*
X35000000Y8029611D01*
X35101015Y8197970D01*
X35269374Y8366329D01*
X35437732Y8467344D01*
X35538748Y8501016D01*
X35606091Y8501016D01*
X35707106Y8467344D01*
X36582572Y7591878D02*
X36245854Y7928596D01*
X35875465Y7625550D01*
X35942809Y7625550D01*
X36043824Y7591878D01*
X36212183Y7423520D01*
X36245854Y7322504D01*
X36245854Y7255161D01*
X36212183Y7154146D01*
X36043824Y6985787D01*
X35942809Y6952115D01*
X35875465Y6952115D01*
X35774450Y6985787D01*
X35606091Y7154146D01*
X35572419Y7255161D01*
X35572419Y7322504D01*
%TO.C,C104*%
X21231175Y16338749D02*
X21163832Y16338749D01*
X21029145Y16406092D01*
X20961801Y16473436D01*
X20894458Y16608123D01*
X20894458Y16742810D01*
X20928129Y16843825D01*
X21029145Y17012184D01*
X21130160Y17113199D01*
X21298519Y17214214D01*
X21399534Y17247886D01*
X21534221Y17247886D01*
X21668908Y17180542D01*
X21736251Y17113199D01*
X21803595Y16978512D01*
X21803595Y16911168D01*
X21837267Y15597970D02*
X21433206Y16002031D01*
X21635236Y15800000D02*
X22342343Y16507107D01*
X22173984Y16473436D01*
X22039297Y16473436D01*
X21938282Y16507107D01*
X22982106Y15867344D02*
X23049450Y15800000D01*
X23083122Y15698985D01*
X23083122Y15631642D01*
X23049450Y15530626D01*
X22948435Y15362268D01*
X22780076Y15193909D01*
X22611717Y15092894D01*
X22510702Y15059222D01*
X22443358Y15059222D01*
X22342343Y15092894D01*
X22275000Y15160237D01*
X22241328Y15261252D01*
X22241328Y15328596D01*
X22275000Y15429611D01*
X22376015Y15597970D01*
X22544374Y15766329D01*
X22712732Y15867344D01*
X22813748Y15901016D01*
X22881091Y15901016D01*
X22982106Y15867344D01*
X23588198Y14789848D02*
X23116793Y14318443D01*
X23689213Y15227581D02*
X23015778Y14890863D01*
X23453511Y14453130D01*
%TO.C,C102*%
X17905952Y32142858D02*
X17858333Y32095239D01*
X17715476Y32047620D01*
X17620238Y32047620D01*
X17477380Y32095239D01*
X17382142Y32190477D01*
X17334523Y32285715D01*
X17286904Y32476191D01*
X17286904Y32619048D01*
X17334523Y32809524D01*
X17382142Y32904762D01*
X17477380Y33000000D01*
X17620238Y33047620D01*
X17715476Y33047620D01*
X17858333Y33000000D01*
X17905952Y32952381D01*
X18858333Y32047620D02*
X18286904Y32047620D01*
X18572619Y32047620D02*
X18572619Y33047620D01*
X18477380Y32904762D01*
X18382142Y32809524D01*
X18286904Y32761905D01*
X19477380Y33047620D02*
X19572619Y33047620D01*
X19667857Y33000000D01*
X19715476Y32952381D01*
X19763095Y32857143D01*
X19810714Y32666667D01*
X19810714Y32428572D01*
X19763095Y32238096D01*
X19715476Y32142858D01*
X19667857Y32095239D01*
X19572619Y32047620D01*
X19477380Y32047620D01*
X19382142Y32095239D01*
X19334523Y32142858D01*
X19286904Y32238096D01*
X19239285Y32428572D01*
X19239285Y32666667D01*
X19286904Y32857143D01*
X19334523Y32952381D01*
X19382142Y33000000D01*
X19477380Y33047620D01*
X20191666Y32952381D02*
X20239285Y33000000D01*
X20334523Y33047620D01*
X20572619Y33047620D01*
X20667857Y33000000D01*
X20715476Y32952381D01*
X20763095Y32857143D01*
X20763095Y32761905D01*
X20715476Y32619048D01*
X20144047Y32047620D01*
X20763095Y32047620D01*
%TO.C,C101*%
X15411251Y3906176D02*
X15411251Y3838833D01*
X15343908Y3704146D01*
X15276564Y3636802D01*
X15141877Y3569459D01*
X15007190Y3569459D01*
X14906175Y3603130D01*
X14737816Y3704146D01*
X14636801Y3805161D01*
X14535786Y3973520D01*
X14502114Y4074535D01*
X14502114Y4209222D01*
X14569458Y4343909D01*
X14636801Y4411252D01*
X14771488Y4478596D01*
X14838832Y4478596D01*
X16152030Y4512268D02*
X15747969Y4108207D01*
X15950000Y4310237D02*
X15242893Y5017344D01*
X15276564Y4848985D01*
X15276564Y4714298D01*
X15242893Y4613283D01*
X15882656Y5657107D02*
X15950000Y5724451D01*
X16051015Y5758123D01*
X16118358Y5758123D01*
X16219374Y5724451D01*
X16387732Y5623436D01*
X16556091Y5455077D01*
X16657106Y5286718D01*
X16690778Y5185703D01*
X16690778Y5118359D01*
X16657106Y5017344D01*
X16589763Y4950000D01*
X16488748Y4916329D01*
X16421404Y4916329D01*
X16320389Y4950000D01*
X16152030Y5051016D01*
X15983671Y5219375D01*
X15882656Y5387733D01*
X15848984Y5488749D01*
X15848984Y5556092D01*
X15882656Y5657107D01*
X17498900Y5859138D02*
X17094839Y5455077D01*
X17296870Y5657107D02*
X16589763Y6364214D01*
X16623435Y6195855D01*
X16623435Y6061168D01*
X16589763Y5960153D01*
%TD*%
%LPC*%
D11*
G36*
X32850000Y16525000D02*
G01*
X32200000Y17050000D01*
X32200000Y17975000D01*
X32850000Y18500000D01*
X32850000Y16525000D01*
G37*
X32850000Y16525000D02*
X32200000Y17050000D01*
X32200000Y17975000D01*
X32850000Y18500000D01*
X32850000Y16525000D01*
D14*
X32300000Y17500000D02*
X33825000Y17500000D01*
X27750000Y13600000D02*
X28175000Y13175000D01*
X27400000Y13600000D02*
X27750000Y13600000D01*
X26675000Y12925000D02*
X27400000Y13600000D01*
X30100000Y17050000D02*
X26325000Y13275000D01*
X31350000Y17050000D02*
X30100000Y17050000D01*
X29400000Y17950000D02*
X31350000Y17950000D01*
X24250000Y23100000D02*
X29400000Y17950000D01*
%TO.C,J102*%
G36*
X4000000Y12900000D02*
G01*
X0Y12900000D01*
X0Y22100000D01*
X4000000Y22100000D01*
X4000000Y12900000D01*
G37*
D11*
X4000000Y12900000D02*
X0Y12900000D01*
X0Y22100000D01*
X4000000Y22100000D01*
X4000000Y12900000D01*
%TD*%
D15*
%TO.C,H103*%
X33400000Y30500000D03*
%TD*%
%TO.C,R112*%
G36*
X26884009Y17231556D02*
G01*
X26969332Y17174545D01*
X27411981Y16731896D01*
X27468992Y16646573D01*
X27489012Y16545927D01*
X27468992Y16445281D01*
X27411981Y16359958D01*
X27040042Y15988019D01*
X26954719Y15931008D01*
X26854073Y15910988D01*
X26753427Y15931008D01*
X26668104Y15988019D01*
X26225455Y16430668D01*
X26168444Y16515991D01*
X26148424Y16616637D01*
X26168444Y16717283D01*
X26225455Y16802606D01*
X26597394Y17174545D01*
X26682717Y17231556D01*
X26783363Y17251576D01*
X26884009Y17231556D01*
G37*
G36*
X25646573Y18468992D02*
G01*
X25731896Y18411981D01*
X26174545Y17969332D01*
X26231556Y17884009D01*
X26251576Y17783363D01*
X26231556Y17682717D01*
X26174545Y17597394D01*
X25802606Y17225455D01*
X25717283Y17168444D01*
X25616637Y17148424D01*
X25515991Y17168444D01*
X25430668Y17225455D01*
X24988019Y17668104D01*
X24931008Y17753427D01*
X24910988Y17854073D01*
X24931008Y17954719D01*
X24988019Y18040042D01*
X25359958Y18411981D01*
X25445281Y18468992D01*
X25545927Y18489012D01*
X25646573Y18468992D01*
G37*
%TD*%
%TO.C,C115*%
G36*
X24954719Y20718992D02*
G01*
X25040042Y20661981D01*
X25411981Y20290042D01*
X25468992Y20204719D01*
X25489012Y20104073D01*
X25468992Y20003427D01*
X25411981Y19918104D01*
X24969332Y19475455D01*
X24884009Y19418444D01*
X24783363Y19398424D01*
X24682717Y19418444D01*
X24597394Y19475455D01*
X24225455Y19847394D01*
X24168444Y19932717D01*
X24148424Y20033363D01*
X24168444Y20134009D01*
X24225455Y20219332D01*
X24668104Y20661981D01*
X24753427Y20718992D01*
X24854073Y20739012D01*
X24954719Y20718992D01*
G37*
G36*
X23717283Y19481556D02*
G01*
X23802606Y19424545D01*
X24174545Y19052606D01*
X24231556Y18967283D01*
X24251576Y18866637D01*
X24231556Y18765991D01*
X24174545Y18680668D01*
X23731896Y18238019D01*
X23646573Y18181008D01*
X23545927Y18160988D01*
X23445281Y18181008D01*
X23359958Y18238019D01*
X22988019Y18609958D01*
X22931008Y18695281D01*
X22910988Y18795927D01*
X22931008Y18896573D01*
X22988019Y18981896D01*
X23430668Y19424545D01*
X23515991Y19481556D01*
X23616637Y19501576D01*
X23717283Y19481556D01*
G37*
%TD*%
%TO.C,C118*%
G36*
X20073565Y11100274D02*
G01*
X20158888Y11043263D01*
X20530827Y10671324D01*
X20587838Y10586001D01*
X20607858Y10485355D01*
X20587838Y10384709D01*
X20530827Y10299386D01*
X20088178Y9856737D01*
X20002855Y9799726D01*
X19902209Y9779706D01*
X19801563Y9799726D01*
X19716240Y9856737D01*
X19344301Y10228676D01*
X19287290Y10313999D01*
X19267270Y10414645D01*
X19287290Y10515291D01*
X19344301Y10600614D01*
X19786950Y11043263D01*
X19872273Y11100274D01*
X19972919Y11120294D01*
X20073565Y11100274D01*
G37*
G36*
X21311001Y12337710D02*
G01*
X21396324Y12280699D01*
X21768263Y11908760D01*
X21825274Y11823437D01*
X21845294Y11722791D01*
X21825274Y11622145D01*
X21768263Y11536822D01*
X21325614Y11094173D01*
X21240291Y11037162D01*
X21139645Y11017142D01*
X21038999Y11037162D01*
X20953676Y11094173D01*
X20581737Y11466112D01*
X20524726Y11551435D01*
X20504706Y11652081D01*
X20524726Y11752727D01*
X20581737Y11838050D01*
X21024386Y12280699D01*
X21109709Y12337710D01*
X21210355Y12357730D01*
X21311001Y12337710D01*
G37*
%TD*%
%TO.C,C117*%
G36*
X26334009Y7462838D02*
G01*
X26419332Y7405827D01*
X26861981Y6963178D01*
X26918992Y6877855D01*
X26939012Y6777209D01*
X26918992Y6676563D01*
X26861981Y6591240D01*
X26490042Y6219301D01*
X26404719Y6162290D01*
X26304073Y6142270D01*
X26203427Y6162290D01*
X26118104Y6219301D01*
X25675455Y6661950D01*
X25618444Y6747273D01*
X25598424Y6847919D01*
X25618444Y6948565D01*
X25675455Y7033888D01*
X26047394Y7405827D01*
X26132717Y7462838D01*
X26233363Y7482858D01*
X26334009Y7462838D01*
G37*
G36*
X25096573Y8700274D02*
G01*
X25181896Y8643263D01*
X25624545Y8200614D01*
X25681556Y8115291D01*
X25701576Y8014645D01*
X25681556Y7913999D01*
X25624545Y7828676D01*
X25252606Y7456737D01*
X25167283Y7399726D01*
X25066637Y7379706D01*
X24965991Y7399726D01*
X24880668Y7456737D01*
X24438019Y7899386D01*
X24381008Y7984709D01*
X24360988Y8085355D01*
X24381008Y8186001D01*
X24438019Y8271324D01*
X24809958Y8643263D01*
X24895281Y8700274D01*
X24995927Y8720294D01*
X25096573Y8700274D01*
G37*
%TD*%
D16*
%TO.C,J101*%
X35400000Y17500000D03*
D17*
X36900000Y23050000D03*
X36900000Y21850000D03*
X33900000Y23950000D03*
X33300000Y23650000D03*
X33300000Y23050000D03*
X33300000Y22450000D03*
X33300000Y21850000D03*
X33300000Y21250000D03*
X36900000Y23650000D03*
X37500000Y23650000D03*
X37500000Y23050000D03*
X37500000Y22450000D03*
X37500000Y21850000D03*
X36900000Y21250000D03*
X37500000Y21250000D03*
X36900000Y20650000D03*
X37500000Y20650000D03*
X36300000Y20650000D03*
X33300000Y20650000D03*
X33900000Y20650000D03*
X34500000Y20050000D03*
X35100000Y20050000D03*
X36900000Y20050000D03*
X37500000Y20050000D03*
X35700000Y20050000D03*
X36300000Y20050000D03*
X33300000Y20050000D03*
X33900000Y20050000D03*
X34500000Y19450000D03*
X35100000Y19450000D03*
X36900000Y19450000D03*
X37500000Y19450000D03*
X35700000Y19450000D03*
X36300000Y19450000D03*
X33300000Y19450000D03*
X33900000Y19450000D03*
X33900000Y11050000D03*
X33300000Y11350000D03*
X33300000Y11950000D03*
X33300000Y12550000D03*
X33300000Y13150000D03*
X33300000Y13750000D03*
X36900000Y11350000D03*
X37500000Y11350000D03*
X36900000Y11950000D03*
X37500000Y11950000D03*
X37500000Y12550000D03*
X37500000Y13150000D03*
X36900000Y13150000D03*
X36900000Y13750000D03*
X37500000Y13750000D03*
X33300000Y14350000D03*
X33900000Y14350000D03*
X36900000Y14350000D03*
X37500000Y14350000D03*
X36300000Y14350000D03*
X33300000Y14950000D03*
X33900000Y14950000D03*
X34500000Y14950000D03*
X35100000Y14950000D03*
X36900000Y14950000D03*
X37500000Y14950000D03*
X35700000Y14950000D03*
X36300000Y14950000D03*
X33300000Y15550000D03*
X33900000Y15550000D03*
X34500000Y15550000D03*
X35100000Y15550000D03*
X36900000Y15550000D03*
X37500000Y15550000D03*
X35700000Y15550000D03*
X36300000Y15550000D03*
X37500000Y18850000D03*
X36900000Y18850000D03*
X36300000Y18850000D03*
X35700000Y18850000D03*
X35100000Y18850000D03*
X34500000Y18850000D03*
X33900000Y18850000D03*
X33300000Y18850000D03*
X37500000Y16150000D03*
X36900000Y16150000D03*
X36300000Y16150000D03*
X35700000Y16150000D03*
X35100000Y16150000D03*
X34500000Y16150000D03*
X33900000Y16150000D03*
X33300000Y16150000D03*
D18*
X35100000Y22250000D03*
X35100000Y12750000D03*
D19*
X35400000Y17500000D03*
D20*
X35400000Y13500000D03*
X35400000Y21500000D03*
%TD*%
%TO.C,C103*%
G36*
X26259187Y15594529D02*
G01*
X26315312Y15557027D01*
X26559971Y15312368D01*
X26597473Y15256243D01*
X26610642Y15190039D01*
X26597473Y15123835D01*
X26559971Y15067710D01*
X26279956Y14787695D01*
X26223831Y14750193D01*
X26157627Y14737024D01*
X26091423Y14750193D01*
X26035298Y14787695D01*
X25790639Y15032354D01*
X25753137Y15088479D01*
X25739968Y15154683D01*
X25753137Y15220887D01*
X25790639Y15277012D01*
X26070654Y15557027D01*
X26126779Y15594529D01*
X26192983Y15607698D01*
X26259187Y15594529D01*
G37*
G36*
X25573293Y16280423D02*
G01*
X25629418Y16242921D01*
X25874077Y15998262D01*
X25911579Y15942137D01*
X25924748Y15875933D01*
X25911579Y15809729D01*
X25874077Y15753604D01*
X25594062Y15473589D01*
X25537937Y15436087D01*
X25471733Y15422918D01*
X25405529Y15436087D01*
X25349404Y15473589D01*
X25104745Y15718248D01*
X25067243Y15774373D01*
X25054074Y15840577D01*
X25067243Y15906781D01*
X25104745Y15962906D01*
X25384760Y16242921D01*
X25440885Y16280423D01*
X25507089Y16293592D01*
X25573293Y16280423D01*
G37*
%TD*%
D21*
%TO.C,U102*%
X22393844Y28491689D02*
X22712042Y28173491D01*
X22040291Y28138136D02*
X22358489Y27819938D01*
X21686737Y27784583D02*
X22004935Y27466385D01*
X21333184Y27431029D02*
X21651382Y27112831D01*
X20979631Y27077476D02*
X21297829Y26759278D01*
X20626077Y26723923D02*
X20944275Y26405725D01*
X20272524Y26370369D02*
X20590722Y26052171D01*
X19918971Y26016816D02*
X20237169Y25698618D01*
X20237169Y25026866D02*
X19918971Y24708668D01*
X20590722Y24673313D02*
X20272524Y24355115D01*
X20944275Y24319759D02*
X20626077Y24001561D01*
X21297829Y23966206D02*
X20979631Y23648008D01*
X21651382Y23612653D02*
X21333184Y23294455D01*
X22004935Y23259099D02*
X21686737Y22940901D01*
X22358489Y22905546D02*
X22040291Y22587348D01*
X22712042Y22551993D02*
X22393844Y22233795D01*
X23383794Y22551993D02*
X23701992Y22233795D01*
X23737347Y22905546D02*
X24055545Y22587348D01*
X24090901Y23259099D02*
X24409099Y22940901D01*
X24444454Y23612653D02*
X24762652Y23294455D01*
X24798007Y23966206D02*
X25116205Y23648008D01*
X25151561Y24319759D02*
X25469759Y24001561D01*
X25505114Y24673313D02*
X25823312Y24355115D01*
X25858667Y25026866D02*
X26176865Y24708668D01*
X26176865Y26016816D02*
X25858667Y25698618D01*
X25823312Y26370369D02*
X25505114Y26052171D01*
X25469759Y26723923D02*
X25151561Y26405725D01*
X25116205Y27077476D02*
X24798007Y26759278D01*
X24762652Y27431029D02*
X24444454Y27112831D01*
X24409099Y27784583D02*
X24090901Y27466385D01*
X24055545Y28138136D02*
X23737347Y27819938D01*
X23701992Y28491689D02*
X23383794Y28173491D01*
G36*
X22537387Y27116367D02*
G01*
X23047918Y27626898D01*
X23558449Y27116367D01*
X23047918Y26605836D01*
X22537387Y27116367D01*
G37*
G36*
X22098981Y26677961D02*
G01*
X22609512Y27188492D01*
X23120043Y26677961D01*
X22609512Y26167430D01*
X22098981Y26677961D01*
G37*
G36*
X21660575Y26239554D02*
G01*
X22171106Y26750085D01*
X22681637Y26239554D01*
X22171106Y25729023D01*
X21660575Y26239554D01*
G37*
G36*
X21222168Y25801148D02*
G01*
X21732699Y26311679D01*
X22243230Y25801148D01*
X21732699Y25290617D01*
X21222168Y25801148D01*
G37*
G36*
X20783762Y25362742D02*
G01*
X21294293Y25873273D01*
X21804824Y25362742D01*
X21294293Y24852211D01*
X20783762Y25362742D01*
G37*
G36*
X22975793Y26677961D02*
G01*
X23486324Y27188492D01*
X23996855Y26677961D01*
X23486324Y26167430D01*
X22975793Y26677961D01*
G37*
G36*
X22537387Y26239554D02*
G01*
X23047918Y26750085D01*
X23558449Y26239554D01*
X23047918Y25729023D01*
X22537387Y26239554D01*
G37*
G36*
X22098981Y25801148D02*
G01*
X22609512Y26311679D01*
X23120043Y25801148D01*
X22609512Y25290617D01*
X22098981Y25801148D01*
G37*
G36*
X21660575Y25362742D02*
G01*
X22171106Y25873273D01*
X22681637Y25362742D01*
X22171106Y24852211D01*
X21660575Y25362742D01*
G37*
G36*
X21222168Y24924336D02*
G01*
X21732699Y25434867D01*
X22243230Y24924336D01*
X21732699Y24413805D01*
X21222168Y24924336D01*
G37*
G36*
X23414199Y26239554D02*
G01*
X23924730Y26750085D01*
X24435261Y26239554D01*
X23924730Y25729023D01*
X23414199Y26239554D01*
G37*
G36*
X22975793Y25801148D02*
G01*
X23486324Y26311679D01*
X23996855Y25801148D01*
X23486324Y25290617D01*
X22975793Y25801148D01*
G37*
G36*
X22537387Y25362742D02*
G01*
X23047918Y25873273D01*
X23558449Y25362742D01*
X23047918Y24852211D01*
X22537387Y25362742D01*
G37*
G36*
X22098981Y24924336D02*
G01*
X22609512Y25434867D01*
X23120043Y24924336D01*
X22609512Y24413805D01*
X22098981Y24924336D01*
G37*
G36*
X21660575Y24485930D02*
G01*
X22171106Y24996461D01*
X22681637Y24485930D01*
X22171106Y23975399D01*
X21660575Y24485930D01*
G37*
G36*
X23852606Y25801148D02*
G01*
X24363137Y26311679D01*
X24873668Y25801148D01*
X24363137Y25290617D01*
X23852606Y25801148D01*
G37*
G36*
X23414199Y25362742D02*
G01*
X23924730Y25873273D01*
X24435261Y25362742D01*
X23924730Y24852211D01*
X23414199Y25362742D01*
G37*
G36*
X22975793Y24924336D02*
G01*
X23486324Y25434867D01*
X23996855Y24924336D01*
X23486324Y24413805D01*
X22975793Y24924336D01*
G37*
G36*
X22537387Y24485930D02*
G01*
X23047918Y24996461D01*
X23558449Y24485930D01*
X23047918Y23975399D01*
X22537387Y24485930D01*
G37*
G36*
X22098981Y24047523D02*
G01*
X22609512Y24558054D01*
X23120043Y24047523D01*
X22609512Y23536992D01*
X22098981Y24047523D01*
G37*
G36*
X24291012Y25362742D02*
G01*
X24801543Y25873273D01*
X25312074Y25362742D01*
X24801543Y24852211D01*
X24291012Y25362742D01*
G37*
G36*
X23852606Y24924336D02*
G01*
X24363137Y25434867D01*
X24873668Y24924336D01*
X24363137Y24413805D01*
X23852606Y24924336D01*
G37*
G36*
X23414199Y24485930D02*
G01*
X23924730Y24996461D01*
X24435261Y24485930D01*
X23924730Y23975399D01*
X23414199Y24485930D01*
G37*
G36*
X22975793Y24047523D02*
G01*
X23486324Y24558054D01*
X23996855Y24047523D01*
X23486324Y23536992D01*
X22975793Y24047523D01*
G37*
G36*
X22537387Y23609117D02*
G01*
X23047918Y24119648D01*
X23558449Y23609117D01*
X23047918Y23098586D01*
X22537387Y23609117D01*
G37*
D22*
X23047918Y27116367D03*
X22609512Y26677961D03*
X22171106Y26239554D03*
X21732699Y25801148D03*
X21294293Y25362742D03*
X23486324Y26677961D03*
X23047918Y26239554D03*
X22609512Y25801148D03*
X22171106Y25362742D03*
X21732699Y24924336D03*
X23924730Y26239554D03*
X23486324Y25801148D03*
X23047918Y25362742D03*
X22609512Y24924336D03*
X22171106Y24485930D03*
X24363137Y25801148D03*
X23924730Y25362742D03*
X23486324Y24924336D03*
X23047918Y24485930D03*
X22609512Y24047523D03*
X24801543Y25362742D03*
X24363137Y24924336D03*
X23924730Y24485930D03*
X23486324Y24047523D03*
X23047918Y23609117D03*
%TD*%
D23*
%TO.C,J102*%
X2000000Y13700000D03*
D24*
X2400000Y14500000D03*
X2400000Y15300000D03*
D23*
X2000000Y16100000D03*
D25*
X2200000Y16900000D03*
X2200000Y17700000D03*
D23*
X2000000Y18500000D03*
D24*
X2400000Y19300000D03*
X2400000Y20100000D03*
D23*
X2000000Y20900000D03*
%TD*%
D15*
%TO.C,H106*%
X10700000Y4500000D03*
%TD*%
%TO.C,H105*%
X10700000Y30500000D03*
%TD*%
%TO.C,H101*%
X33400000Y4500000D03*
%TD*%
%TO.C,U104*%
G36*
X23538271Y5656824D02*
G01*
X23808386Y5386709D01*
X23205931Y4784254D01*
X22935816Y5054369D01*
X23538271Y5656824D01*
G37*
G36*
X23184717Y6010378D02*
G01*
X23454832Y5740263D01*
X22852377Y5137808D01*
X22582262Y5407923D01*
X23184717Y6010378D01*
G37*
G36*
X22831164Y6363931D02*
G01*
X23101279Y6093816D01*
X22498824Y5491361D01*
X22228709Y5761476D01*
X22831164Y6363931D01*
G37*
G36*
X22477610Y6717485D02*
G01*
X22747725Y6447370D01*
X22145270Y5844915D01*
X21875155Y6115030D01*
X22477610Y6717485D01*
G37*
G36*
X21452305Y5692180D02*
G01*
X21722420Y5422065D01*
X21119965Y4819610D01*
X20849850Y5089725D01*
X21452305Y5692180D01*
G37*
G36*
X21805859Y5338626D02*
G01*
X22075974Y5068511D01*
X21473519Y4466056D01*
X21203404Y4736171D01*
X21805859Y5338626D01*
G37*
G36*
X22159412Y4985073D02*
G01*
X22429527Y4714958D01*
X21827072Y4112503D01*
X21556957Y4382618D01*
X22159412Y4985073D01*
G37*
G36*
X22512966Y4631519D02*
G01*
X22783081Y4361404D01*
X22180626Y3758949D01*
X21910511Y4029064D01*
X22512966Y4631519D01*
G37*
%TD*%
%TO.C,U103*%
G36*
X25251770Y13523098D02*
G01*
X25338046Y13465450D01*
X26165450Y12638046D01*
X26223098Y12551770D01*
X26243341Y12450000D01*
X26223098Y12348230D01*
X26165450Y12261954D01*
X25338046Y11434550D01*
X25251770Y11376902D01*
X25150000Y11356659D01*
X25048230Y11376902D01*
X24961954Y11434550D01*
X24134550Y12261954D01*
X24076902Y12348230D01*
X24056659Y12450000D01*
X24076902Y12551770D01*
X24134550Y12638046D01*
X24961954Y13465450D01*
X25048230Y13523098D01*
X25150000Y13543341D01*
X25251770Y13523098D01*
G37*
G36*
X26933765Y13345181D02*
G01*
X26962314Y13326105D01*
X27086765Y13201654D01*
X27105841Y13173105D01*
X27112540Y13139429D01*
X27105841Y13105753D01*
X27086765Y13077204D01*
X26555728Y12546167D01*
X26527179Y12527091D01*
X26493503Y12520392D01*
X26459827Y12527091D01*
X26431278Y12546167D01*
X26306827Y12670618D01*
X26287751Y12699167D01*
X26281052Y12732843D01*
X26287751Y12766519D01*
X26306827Y12795068D01*
X26837864Y13326105D01*
X26866413Y13345181D01*
X26900089Y13351880D01*
X26933765Y13345181D01*
G37*
G36*
X26580212Y13698734D02*
G01*
X26608761Y13679658D01*
X26733212Y13555207D01*
X26752288Y13526658D01*
X26758987Y13492982D01*
X26752288Y13459306D01*
X26733212Y13430757D01*
X26202175Y12899720D01*
X26173626Y12880644D01*
X26139950Y12873945D01*
X26106274Y12880644D01*
X26077725Y12899720D01*
X25953274Y13024171D01*
X25934198Y13052720D01*
X25927499Y13086396D01*
X25934198Y13120072D01*
X25953274Y13148621D01*
X26484311Y13679658D01*
X26512860Y13698734D01*
X26546536Y13705433D01*
X26580212Y13698734D01*
G37*
G36*
X26226658Y14052288D02*
G01*
X26255207Y14033212D01*
X26379658Y13908761D01*
X26398734Y13880212D01*
X26405433Y13846536D01*
X26398734Y13812860D01*
X26379658Y13784311D01*
X25848621Y13253274D01*
X25820072Y13234198D01*
X25786396Y13227499D01*
X25752720Y13234198D01*
X25724171Y13253274D01*
X25599720Y13377725D01*
X25580644Y13406274D01*
X25573945Y13439950D01*
X25580644Y13473626D01*
X25599720Y13502175D01*
X26130757Y14033212D01*
X26159306Y14052288D01*
X26192982Y14058987D01*
X26226658Y14052288D01*
G37*
G36*
X25873105Y14405841D02*
G01*
X25901654Y14386765D01*
X26026105Y14262314D01*
X26045181Y14233765D01*
X26051880Y14200089D01*
X26045181Y14166413D01*
X26026105Y14137864D01*
X25495068Y13606827D01*
X25466519Y13587751D01*
X25432843Y13581052D01*
X25399167Y13587751D01*
X25370618Y13606827D01*
X25246167Y13731278D01*
X25227091Y13759827D01*
X25220392Y13793503D01*
X25227091Y13827179D01*
X25246167Y13855728D01*
X25777204Y14386765D01*
X25805753Y14405841D01*
X25839429Y14412540D01*
X25873105Y14405841D01*
G37*
G36*
X24494247Y14405841D02*
G01*
X24522796Y14386765D01*
X25053833Y13855728D01*
X25072909Y13827179D01*
X25079608Y13793503D01*
X25072909Y13759827D01*
X25053833Y13731278D01*
X24929382Y13606827D01*
X24900833Y13587751D01*
X24867157Y13581052D01*
X24833481Y13587751D01*
X24804932Y13606827D01*
X24273895Y14137864D01*
X24254819Y14166413D01*
X24248120Y14200089D01*
X24254819Y14233765D01*
X24273895Y14262314D01*
X24398346Y14386765D01*
X24426895Y14405841D01*
X24460571Y14412540D01*
X24494247Y14405841D01*
G37*
G36*
X24140694Y14052288D02*
G01*
X24169243Y14033212D01*
X24700280Y13502175D01*
X24719356Y13473626D01*
X24726055Y13439950D01*
X24719356Y13406274D01*
X24700280Y13377725D01*
X24575829Y13253274D01*
X24547280Y13234198D01*
X24513604Y13227499D01*
X24479928Y13234198D01*
X24451379Y13253274D01*
X23920342Y13784311D01*
X23901266Y13812860D01*
X23894567Y13846536D01*
X23901266Y13880212D01*
X23920342Y13908761D01*
X24044793Y14033212D01*
X24073342Y14052288D01*
X24107018Y14058987D01*
X24140694Y14052288D01*
G37*
G36*
X23787140Y13698734D02*
G01*
X23815689Y13679658D01*
X24346726Y13148621D01*
X24365802Y13120072D01*
X24372501Y13086396D01*
X24365802Y13052720D01*
X24346726Y13024171D01*
X24222275Y12899720D01*
X24193726Y12880644D01*
X24160050Y12873945D01*
X24126374Y12880644D01*
X24097825Y12899720D01*
X23566788Y13430757D01*
X23547712Y13459306D01*
X23541013Y13492982D01*
X23547712Y13526658D01*
X23566788Y13555207D01*
X23691239Y13679658D01*
X23719788Y13698734D01*
X23753464Y13705433D01*
X23787140Y13698734D01*
G37*
G36*
X23433587Y13345181D02*
G01*
X23462136Y13326105D01*
X23993173Y12795068D01*
X24012249Y12766519D01*
X24018948Y12732843D01*
X24012249Y12699167D01*
X23993173Y12670618D01*
X23868722Y12546167D01*
X23840173Y12527091D01*
X23806497Y12520392D01*
X23772821Y12527091D01*
X23744272Y12546167D01*
X23213235Y13077204D01*
X23194159Y13105753D01*
X23187460Y13139429D01*
X23194159Y13173105D01*
X23213235Y13201654D01*
X23337686Y13326105D01*
X23366235Y13345181D01*
X23399911Y13351880D01*
X23433587Y13345181D01*
G37*
G36*
X23840173Y12372909D02*
G01*
X23868722Y12353833D01*
X23993173Y12229382D01*
X24012249Y12200833D01*
X24018948Y12167157D01*
X24012249Y12133481D01*
X23993173Y12104932D01*
X23462136Y11573895D01*
X23433587Y11554819D01*
X23399911Y11548120D01*
X23366235Y11554819D01*
X23337686Y11573895D01*
X23213235Y11698346D01*
X23194159Y11726895D01*
X23187460Y11760571D01*
X23194159Y11794247D01*
X23213235Y11822796D01*
X23744272Y12353833D01*
X23772821Y12372909D01*
X23806497Y12379608D01*
X23840173Y12372909D01*
G37*
G36*
X24193726Y12019356D02*
G01*
X24222275Y12000280D01*
X24346726Y11875829D01*
X24365802Y11847280D01*
X24372501Y11813604D01*
X24365802Y11779928D01*
X24346726Y11751379D01*
X23815689Y11220342D01*
X23787140Y11201266D01*
X23753464Y11194567D01*
X23719788Y11201266D01*
X23691239Y11220342D01*
X23566788Y11344793D01*
X23547712Y11373342D01*
X23541013Y11407018D01*
X23547712Y11440694D01*
X23566788Y11469243D01*
X24097825Y12000280D01*
X24126374Y12019356D01*
X24160050Y12026055D01*
X24193726Y12019356D01*
G37*
G36*
X24547280Y11665802D02*
G01*
X24575829Y11646726D01*
X24700280Y11522275D01*
X24719356Y11493726D01*
X24726055Y11460050D01*
X24719356Y11426374D01*
X24700280Y11397825D01*
X24169243Y10866788D01*
X24140694Y10847712D01*
X24107018Y10841013D01*
X24073342Y10847712D01*
X24044793Y10866788D01*
X23920342Y10991239D01*
X23901266Y11019788D01*
X23894567Y11053464D01*
X23901266Y11087140D01*
X23920342Y11115689D01*
X24451379Y11646726D01*
X24479928Y11665802D01*
X24513604Y11672501D01*
X24547280Y11665802D01*
G37*
G36*
X24900833Y11312249D02*
G01*
X24929382Y11293173D01*
X25053833Y11168722D01*
X25072909Y11140173D01*
X25079608Y11106497D01*
X25072909Y11072821D01*
X25053833Y11044272D01*
X24522796Y10513235D01*
X24494247Y10494159D01*
X24460571Y10487460D01*
X24426895Y10494159D01*
X24398346Y10513235D01*
X24273895Y10637686D01*
X24254819Y10666235D01*
X24248120Y10699911D01*
X24254819Y10733587D01*
X24273895Y10762136D01*
X24804932Y11293173D01*
X24833481Y11312249D01*
X24867157Y11318948D01*
X24900833Y11312249D01*
G37*
G36*
X25466519Y11312249D02*
G01*
X25495068Y11293173D01*
X26026105Y10762136D01*
X26045181Y10733587D01*
X26051880Y10699911D01*
X26045181Y10666235D01*
X26026105Y10637686D01*
X25901654Y10513235D01*
X25873105Y10494159D01*
X25839429Y10487460D01*
X25805753Y10494159D01*
X25777204Y10513235D01*
X25246167Y11044272D01*
X25227091Y11072821D01*
X25220392Y11106497D01*
X25227091Y11140173D01*
X25246167Y11168722D01*
X25370618Y11293173D01*
X25399167Y11312249D01*
X25432843Y11318948D01*
X25466519Y11312249D01*
G37*
G36*
X25820072Y11665802D02*
G01*
X25848621Y11646726D01*
X26379658Y11115689D01*
X26398734Y11087140D01*
X26405433Y11053464D01*
X26398734Y11019788D01*
X26379658Y10991239D01*
X26255207Y10866788D01*
X26226658Y10847712D01*
X26192982Y10841013D01*
X26159306Y10847712D01*
X26130757Y10866788D01*
X25599720Y11397825D01*
X25580644Y11426374D01*
X25573945Y11460050D01*
X25580644Y11493726D01*
X25599720Y11522275D01*
X25724171Y11646726D01*
X25752720Y11665802D01*
X25786396Y11672501D01*
X25820072Y11665802D01*
G37*
G36*
X26173626Y12019356D02*
G01*
X26202175Y12000280D01*
X26733212Y11469243D01*
X26752288Y11440694D01*
X26758987Y11407018D01*
X26752288Y11373342D01*
X26733212Y11344793D01*
X26608761Y11220342D01*
X26580212Y11201266D01*
X26546536Y11194567D01*
X26512860Y11201266D01*
X26484311Y11220342D01*
X25953274Y11751379D01*
X25934198Y11779928D01*
X25927499Y11813604D01*
X25934198Y11847280D01*
X25953274Y11875829D01*
X26077725Y12000280D01*
X26106274Y12019356D01*
X26139950Y12026055D01*
X26173626Y12019356D01*
G37*
G36*
X26527179Y12372909D02*
G01*
X26555728Y12353833D01*
X27086765Y11822796D01*
X27105841Y11794247D01*
X27112540Y11760571D01*
X27105841Y11726895D01*
X27086765Y11698346D01*
X26962314Y11573895D01*
X26933765Y11554819D01*
X26900089Y11548120D01*
X26866413Y11554819D01*
X26837864Y11573895D01*
X26306827Y12104932D01*
X26287751Y12133481D01*
X26281052Y12167157D01*
X26287751Y12200833D01*
X26306827Y12229382D01*
X26431278Y12353833D01*
X26459827Y12372909D01*
X26493503Y12379608D01*
X26527179Y12372909D01*
G37*
%TD*%
D26*
%TO.C,U101*%
X31925000Y16887500D03*
X31925000Y18112500D03*
D27*
X31825000Y17500000D03*
D28*
X31725000Y17500000D03*
D29*
X31350000Y17950000D03*
X31350000Y17050000D03*
D30*
X32300000Y17500000D03*
%TD*%
%TO.C,R116*%
G36*
X20904719Y14018992D02*
G01*
X20990042Y13961981D01*
X21361981Y13590042D01*
X21418992Y13504719D01*
X21439012Y13404073D01*
X21418992Y13303427D01*
X21361981Y13218104D01*
X20919332Y12775455D01*
X20834009Y12718444D01*
X20733363Y12698424D01*
X20632717Y12718444D01*
X20547394Y12775455D01*
X20175455Y13147394D01*
X20118444Y13232717D01*
X20098424Y13333363D01*
X20118444Y13434009D01*
X20175455Y13519332D01*
X20618104Y13961981D01*
X20703427Y14018992D01*
X20804073Y14039012D01*
X20904719Y14018992D01*
G37*
G36*
X19667283Y12781556D02*
G01*
X19752606Y12724545D01*
X20124545Y12352606D01*
X20181556Y12267283D01*
X20201576Y12166637D01*
X20181556Y12065991D01*
X20124545Y11980668D01*
X19681896Y11538019D01*
X19596573Y11481008D01*
X19495927Y11460988D01*
X19395281Y11481008D01*
X19309958Y11538019D01*
X18938019Y11909958D01*
X18881008Y11995281D01*
X18860988Y12095927D01*
X18881008Y12196573D01*
X18938019Y12281896D01*
X19380668Y12724545D01*
X19465991Y12781556D01*
X19566637Y12801576D01*
X19667283Y12781556D01*
G37*
%TD*%
%TO.C,R115*%
G36*
X17488646Y17205980D02*
G01*
X17573969Y17148969D01*
X17630980Y17063646D01*
X17651000Y16963000D01*
X17651000Y16437000D01*
X17630980Y16336354D01*
X17573969Y16251031D01*
X17488646Y16194020D01*
X17388000Y16174000D01*
X16762000Y16174000D01*
X16661354Y16194020D01*
X16576031Y16251031D01*
X16519020Y16336354D01*
X16499000Y16437000D01*
X16499000Y16963000D01*
X16519020Y17063646D01*
X16576031Y17148969D01*
X16661354Y17205980D01*
X16762000Y17226000D01*
X17388000Y17226000D01*
X17488646Y17205980D01*
G37*
G36*
X15738646Y17205980D02*
G01*
X15823969Y17148969D01*
X15880980Y17063646D01*
X15901000Y16963000D01*
X15901000Y16437000D01*
X15880980Y16336354D01*
X15823969Y16251031D01*
X15738646Y16194020D01*
X15638000Y16174000D01*
X15012000Y16174000D01*
X14911354Y16194020D01*
X14826031Y16251031D01*
X14769020Y16336354D01*
X14749000Y16437000D01*
X14749000Y16963000D01*
X14769020Y17063646D01*
X14826031Y17148969D01*
X14911354Y17205980D01*
X15012000Y17226000D01*
X15638000Y17226000D01*
X15738646Y17205980D01*
G37*
%TD*%
%TO.C,R114*%
G36*
X28414948Y9547063D02*
G01*
X28500271Y9490052D01*
X28942920Y9047403D01*
X28999931Y8962080D01*
X29019951Y8861434D01*
X28999931Y8760788D01*
X28942920Y8675465D01*
X28570981Y8303526D01*
X28485658Y8246515D01*
X28385012Y8226495D01*
X28284366Y8246515D01*
X28199043Y8303526D01*
X27756394Y8746175D01*
X27699383Y8831498D01*
X27679363Y8932144D01*
X27699383Y9032790D01*
X27756394Y9118113D01*
X28128333Y9490052D01*
X28213656Y9547063D01*
X28314302Y9567083D01*
X28414948Y9547063D01*
G37*
G36*
X27177512Y10784499D02*
G01*
X27262835Y10727488D01*
X27705484Y10284839D01*
X27762495Y10199516D01*
X27782515Y10098870D01*
X27762495Y9998224D01*
X27705484Y9912901D01*
X27333545Y9540962D01*
X27248222Y9483951D01*
X27147576Y9463931D01*
X27046930Y9483951D01*
X26961607Y9540962D01*
X26518958Y9983611D01*
X26461947Y10068934D01*
X26441927Y10169580D01*
X26461947Y10270226D01*
X26518958Y10355549D01*
X26890897Y10727488D01*
X26976220Y10784499D01*
X27076866Y10804519D01*
X27177512Y10784499D01*
G37*
%TD*%
%TO.C,R113*%
G36*
X32073437Y26287710D02*
G01*
X32158760Y26230699D01*
X32530699Y25858760D01*
X32587710Y25773437D01*
X32607730Y25672791D01*
X32587710Y25572145D01*
X32530699Y25486822D01*
X32088050Y25044173D01*
X32002727Y24987162D01*
X31902081Y24967142D01*
X31801435Y24987162D01*
X31716112Y25044173D01*
X31344173Y25416112D01*
X31287162Y25501435D01*
X31267142Y25602081D01*
X31287162Y25702727D01*
X31344173Y25788050D01*
X31786822Y26230699D01*
X31872145Y26287710D01*
X31972791Y26307730D01*
X32073437Y26287710D01*
G37*
G36*
X30836001Y25050274D02*
G01*
X30921324Y24993263D01*
X31293263Y24621324D01*
X31350274Y24536001D01*
X31370294Y24435355D01*
X31350274Y24334709D01*
X31293263Y24249386D01*
X30850614Y23806737D01*
X30765291Y23749726D01*
X30664645Y23729706D01*
X30563999Y23749726D01*
X30478676Y23806737D01*
X30106737Y24178676D01*
X30049726Y24263999D01*
X30029706Y24364645D01*
X30049726Y24465291D01*
X30106737Y24550614D01*
X30549386Y24993263D01*
X30634709Y25050274D01*
X30735355Y25070294D01*
X30836001Y25050274D01*
G37*
%TD*%
%TO.C,R111*%
G36*
X21292409Y19383890D02*
G01*
X21377732Y19326879D01*
X21749671Y18954940D01*
X21806682Y18869617D01*
X21826702Y18768971D01*
X21806682Y18668325D01*
X21749671Y18583002D01*
X21307022Y18140353D01*
X21221699Y18083342D01*
X21121053Y18063322D01*
X21020407Y18083342D01*
X20935084Y18140353D01*
X20563145Y18512292D01*
X20506134Y18597615D01*
X20486114Y18698261D01*
X20506134Y18798907D01*
X20563145Y18884230D01*
X21005794Y19326879D01*
X21091117Y19383890D01*
X21191763Y19403910D01*
X21292409Y19383890D01*
G37*
G36*
X22529845Y20621326D02*
G01*
X22615168Y20564315D01*
X22987107Y20192376D01*
X23044118Y20107053D01*
X23064138Y20006407D01*
X23044118Y19905761D01*
X22987107Y19820438D01*
X22544458Y19377789D01*
X22459135Y19320778D01*
X22358489Y19300758D01*
X22257843Y19320778D01*
X22172520Y19377789D01*
X21800581Y19749728D01*
X21743570Y19835051D01*
X21723550Y19935697D01*
X21743570Y20036343D01*
X21800581Y20121666D01*
X22243230Y20564315D01*
X22328553Y20621326D01*
X22429199Y20641346D01*
X22529845Y20621326D01*
G37*
%TD*%
%TO.C,R110*%
G36*
X28924979Y12928737D02*
G01*
X28981104Y12891235D01*
X29225763Y12646576D01*
X29263265Y12590451D01*
X29276434Y12524247D01*
X29263265Y12458043D01*
X29225763Y12401918D01*
X28945748Y12121903D01*
X28889623Y12084401D01*
X28823419Y12071232D01*
X28757215Y12084401D01*
X28701090Y12121903D01*
X28456431Y12366562D01*
X28418929Y12422687D01*
X28405760Y12488891D01*
X28418929Y12555095D01*
X28456431Y12611220D01*
X28736446Y12891235D01*
X28792571Y12928737D01*
X28858775Y12941906D01*
X28924979Y12928737D01*
G37*
G36*
X28239085Y13614631D02*
G01*
X28295210Y13577129D01*
X28539869Y13332470D01*
X28577371Y13276345D01*
X28590540Y13210141D01*
X28577371Y13143937D01*
X28539869Y13087812D01*
X28259854Y12807797D01*
X28203729Y12770295D01*
X28137525Y12757126D01*
X28071321Y12770295D01*
X28015196Y12807797D01*
X27770537Y13052456D01*
X27733035Y13108581D01*
X27719866Y13174785D01*
X27733035Y13240989D01*
X27770537Y13297114D01*
X28050552Y13577129D01*
X28106677Y13614631D01*
X28172881Y13627800D01*
X28239085Y13614631D01*
G37*
%TD*%
%TO.C,R109*%
G36*
X31054719Y27343992D02*
G01*
X31140042Y27286981D01*
X31511981Y26915042D01*
X31568992Y26829719D01*
X31589012Y26729073D01*
X31568992Y26628427D01*
X31511981Y26543104D01*
X31069332Y26100455D01*
X30984009Y26043444D01*
X30883363Y26023424D01*
X30782717Y26043444D01*
X30697394Y26100455D01*
X30325455Y26472394D01*
X30268444Y26557717D01*
X30248424Y26658363D01*
X30268444Y26759009D01*
X30325455Y26844332D01*
X30768104Y27286981D01*
X30853427Y27343992D01*
X30954073Y27364012D01*
X31054719Y27343992D01*
G37*
G36*
X29817283Y26106556D02*
G01*
X29902606Y26049545D01*
X30274545Y25677606D01*
X30331556Y25592283D01*
X30351576Y25491637D01*
X30331556Y25390991D01*
X30274545Y25305668D01*
X29831896Y24863019D01*
X29746573Y24806008D01*
X29645927Y24785988D01*
X29545281Y24806008D01*
X29459958Y24863019D01*
X29088019Y25234958D01*
X29031008Y25320281D01*
X29010988Y25420927D01*
X29031008Y25521573D01*
X29088019Y25606896D01*
X29530668Y26049545D01*
X29615991Y26106556D01*
X29716637Y26126576D01*
X29817283Y26106556D01*
G37*
%TD*%
%TO.C,R108*%
G36*
X22351507Y11297152D02*
G01*
X22436830Y11240141D01*
X22808769Y10868202D01*
X22865780Y10782879D01*
X22885800Y10682233D01*
X22865780Y10581587D01*
X22808769Y10496264D01*
X22366120Y10053615D01*
X22280797Y9996604D01*
X22180151Y9976584D01*
X22079505Y9996604D01*
X21994182Y10053615D01*
X21622243Y10425554D01*
X21565232Y10510877D01*
X21545212Y10611523D01*
X21565232Y10712169D01*
X21622243Y10797492D01*
X22064892Y11240141D01*
X22150215Y11297152D01*
X22250861Y11317172D01*
X22351507Y11297152D01*
G37*
G36*
X21114071Y10059716D02*
G01*
X21199394Y10002705D01*
X21571333Y9630766D01*
X21628344Y9545443D01*
X21648364Y9444797D01*
X21628344Y9344151D01*
X21571333Y9258828D01*
X21128684Y8816179D01*
X21043361Y8759168D01*
X20942715Y8739148D01*
X20842069Y8759168D01*
X20756746Y8816179D01*
X20384807Y9188118D01*
X20327796Y9273441D01*
X20307776Y9374087D01*
X20327796Y9474733D01*
X20384807Y9560056D01*
X20827456Y10002705D01*
X20912779Y10059716D01*
X21013425Y10079736D01*
X21114071Y10059716D01*
G37*
%TD*%
%TO.C,R107*%
G36*
X23447523Y10201136D02*
G01*
X23532846Y10144125D01*
X23904785Y9772186D01*
X23961796Y9686863D01*
X23981816Y9586217D01*
X23961796Y9485571D01*
X23904785Y9400248D01*
X23462136Y8957599D01*
X23376813Y8900588D01*
X23276167Y8880568D01*
X23175521Y8900588D01*
X23090198Y8957599D01*
X22718259Y9329538D01*
X22661248Y9414861D01*
X22641228Y9515507D01*
X22661248Y9616153D01*
X22718259Y9701476D01*
X23160908Y10144125D01*
X23246231Y10201136D01*
X23346877Y10221156D01*
X23447523Y10201136D01*
G37*
G36*
X22210087Y8963700D02*
G01*
X22295410Y8906689D01*
X22667349Y8534750D01*
X22724360Y8449427D01*
X22744380Y8348781D01*
X22724360Y8248135D01*
X22667349Y8162812D01*
X22224700Y7720163D01*
X22139377Y7663152D01*
X22038731Y7643132D01*
X21938085Y7663152D01*
X21852762Y7720163D01*
X21480823Y8092102D01*
X21423812Y8177425D01*
X21403792Y8278071D01*
X21423812Y8378717D01*
X21480823Y8464040D01*
X21923472Y8906689D01*
X22008795Y8963700D01*
X22109441Y8983720D01*
X22210087Y8963700D01*
G37*
%TD*%
%TO.C,R106*%
G36*
X30023437Y28368992D02*
G01*
X30108760Y28311981D01*
X30480699Y27940042D01*
X30537710Y27854719D01*
X30557730Y27754073D01*
X30537710Y27653427D01*
X30480699Y27568104D01*
X30038050Y27125455D01*
X29952727Y27068444D01*
X29852081Y27048424D01*
X29751435Y27068444D01*
X29666112Y27125455D01*
X29294173Y27497394D01*
X29237162Y27582717D01*
X29217142Y27683363D01*
X29237162Y27784009D01*
X29294173Y27869332D01*
X29736822Y28311981D01*
X29822145Y28368992D01*
X29922791Y28389012D01*
X30023437Y28368992D01*
G37*
G36*
X28786001Y27131556D02*
G01*
X28871324Y27074545D01*
X29243263Y26702606D01*
X29300274Y26617283D01*
X29320294Y26516637D01*
X29300274Y26415991D01*
X29243263Y26330668D01*
X28800614Y25888019D01*
X28715291Y25831008D01*
X28614645Y25810988D01*
X28513999Y25831008D01*
X28428676Y25888019D01*
X28056737Y26259958D01*
X27999726Y26345281D01*
X27979706Y26445927D01*
X27999726Y26546573D01*
X28056737Y26631896D01*
X28499386Y27074545D01*
X28584709Y27131556D01*
X28685355Y27151576D01*
X28786001Y27131556D01*
G37*
%TD*%
%TO.C,R104*%
G36*
X11238646Y25455980D02*
G01*
X11323969Y25398969D01*
X11380980Y25313646D01*
X11401000Y25213000D01*
X11401000Y24687000D01*
X11380980Y24586354D01*
X11323969Y24501031D01*
X11238646Y24444020D01*
X11138000Y24424000D01*
X10512000Y24424000D01*
X10411354Y24444020D01*
X10326031Y24501031D01*
X10269020Y24586354D01*
X10249000Y24687000D01*
X10249000Y25213000D01*
X10269020Y25313646D01*
X10326031Y25398969D01*
X10411354Y25455980D01*
X10512000Y25476000D01*
X11138000Y25476000D01*
X11238646Y25455980D01*
G37*
G36*
X12988646Y25455980D02*
G01*
X13073969Y25398969D01*
X13130980Y25313646D01*
X13151000Y25213000D01*
X13151000Y24687000D01*
X13130980Y24586354D01*
X13073969Y24501031D01*
X12988646Y24444020D01*
X12888000Y24424000D01*
X12262000Y24424000D01*
X12161354Y24444020D01*
X12076031Y24501031D01*
X12019020Y24586354D01*
X11999000Y24687000D01*
X11999000Y25213000D01*
X12019020Y25313646D01*
X12076031Y25398969D01*
X12161354Y25455980D01*
X12262000Y25476000D01*
X12888000Y25476000D01*
X12988646Y25455980D01*
G37*
%TD*%
%TO.C,R103*%
G36*
X21078715Y7832329D02*
G01*
X21164038Y7775318D01*
X21535977Y7403379D01*
X21592988Y7318056D01*
X21613008Y7217410D01*
X21592988Y7116764D01*
X21535977Y7031441D01*
X21093328Y6588792D01*
X21008005Y6531781D01*
X20907359Y6511761D01*
X20806713Y6531781D01*
X20721390Y6588792D01*
X20349451Y6960731D01*
X20292440Y7046054D01*
X20272420Y7146700D01*
X20292440Y7247346D01*
X20349451Y7332669D01*
X20792100Y7775318D01*
X20877423Y7832329D01*
X20978069Y7852349D01*
X21078715Y7832329D01*
G37*
G36*
X19841279Y6594893D02*
G01*
X19926602Y6537882D01*
X20298541Y6165943D01*
X20355552Y6080620D01*
X20375572Y5979974D01*
X20355552Y5879328D01*
X20298541Y5794005D01*
X19855892Y5351356D01*
X19770569Y5294345D01*
X19669923Y5274325D01*
X19569277Y5294345D01*
X19483954Y5351356D01*
X19112015Y5723295D01*
X19055004Y5808618D01*
X19034984Y5909264D01*
X19055004Y6009910D01*
X19112015Y6095233D01*
X19554664Y6537882D01*
X19639987Y6594893D01*
X19740633Y6614913D01*
X19841279Y6594893D01*
G37*
%TD*%
%TO.C,R102*%
G36*
X27956889Y30432433D02*
G01*
X28042212Y30375422D01*
X28414151Y30003483D01*
X28471162Y29918160D01*
X28491182Y29817514D01*
X28471162Y29716868D01*
X28414151Y29631545D01*
X27971502Y29188896D01*
X27886179Y29131885D01*
X27785533Y29111865D01*
X27684887Y29131885D01*
X27599564Y29188896D01*
X27227625Y29560835D01*
X27170614Y29646158D01*
X27150594Y29746804D01*
X27170614Y29847450D01*
X27227625Y29932773D01*
X27670274Y30375422D01*
X27755597Y30432433D01*
X27856243Y30452453D01*
X27956889Y30432433D01*
G37*
G36*
X26719453Y29194997D02*
G01*
X26804776Y29137986D01*
X27176715Y28766047D01*
X27233726Y28680724D01*
X27253746Y28580078D01*
X27233726Y28479432D01*
X27176715Y28394109D01*
X26734066Y27951460D01*
X26648743Y27894449D01*
X26548097Y27874429D01*
X26447451Y27894449D01*
X26362128Y27951460D01*
X25990189Y28323399D01*
X25933178Y28408722D01*
X25913158Y28509368D01*
X25933178Y28610014D01*
X25990189Y28695337D01*
X26432838Y29137986D01*
X26518161Y29194997D01*
X26618807Y29215017D01*
X26719453Y29194997D01*
G37*
%TD*%
%TO.C,R101*%
G36*
X26931585Y31457737D02*
G01*
X27016908Y31400726D01*
X27388847Y31028787D01*
X27445858Y30943464D01*
X27465878Y30842818D01*
X27445858Y30742172D01*
X27388847Y30656849D01*
X26946198Y30214200D01*
X26860875Y30157189D01*
X26760229Y30137169D01*
X26659583Y30157189D01*
X26574260Y30214200D01*
X26202321Y30586139D01*
X26145310Y30671462D01*
X26125290Y30772108D01*
X26145310Y30872754D01*
X26202321Y30958077D01*
X26644970Y31400726D01*
X26730293Y31457737D01*
X26830939Y31477757D01*
X26931585Y31457737D01*
G37*
G36*
X25694149Y30220301D02*
G01*
X25779472Y30163290D01*
X26151411Y29791351D01*
X26208422Y29706028D01*
X26228442Y29605382D01*
X26208422Y29504736D01*
X26151411Y29419413D01*
X25708762Y28976764D01*
X25623439Y28919753D01*
X25522793Y28899733D01*
X25422147Y28919753D01*
X25336824Y28976764D01*
X24964885Y29348703D01*
X24907874Y29434026D01*
X24887854Y29534672D01*
X24907874Y29635318D01*
X24964885Y29720641D01*
X25407534Y30163290D01*
X25492857Y30220301D01*
X25593503Y30240321D01*
X25694149Y30220301D01*
G37*
%TD*%
%TO.C,D101*%
G36*
X28090291Y24575274D02*
G01*
X28175614Y24518263D01*
X28618263Y24075614D01*
X28675274Y23990291D01*
X28695294Y23889645D01*
X28675274Y23788999D01*
X28618263Y23703676D01*
X28246324Y23331737D01*
X28161001Y23274726D01*
X28060355Y23254706D01*
X27959709Y23274726D01*
X27874386Y23331737D01*
X27431737Y23774386D01*
X27374726Y23859709D01*
X27354706Y23960355D01*
X27374726Y24061001D01*
X27431737Y24146324D01*
X27803676Y24518263D01*
X27888999Y24575274D01*
X27989645Y24595294D01*
X28090291Y24575274D01*
G37*
G36*
X29327727Y23337838D02*
G01*
X29413050Y23280827D01*
X29855699Y22838178D01*
X29912710Y22752855D01*
X29932730Y22652209D01*
X29912710Y22551563D01*
X29855699Y22466240D01*
X29483760Y22094301D01*
X29398437Y22037290D01*
X29297791Y22017270D01*
X29197145Y22037290D01*
X29111822Y22094301D01*
X28669173Y22536950D01*
X28612162Y22622273D01*
X28592142Y22722919D01*
X28612162Y22823565D01*
X28669173Y22908888D01*
X29041112Y23280827D01*
X29126435Y23337838D01*
X29227081Y23357858D01*
X29327727Y23337838D01*
G37*
%TD*%
%TO.C,C116*%
G36*
X27983882Y19872168D02*
G01*
X28040007Y19834666D01*
X28284666Y19590007D01*
X28322168Y19533882D01*
X28335337Y19467678D01*
X28322168Y19401474D01*
X28284666Y19345349D01*
X28004651Y19065334D01*
X27948526Y19027832D01*
X27882322Y19014663D01*
X27816118Y19027832D01*
X27759993Y19065334D01*
X27515334Y19309993D01*
X27477832Y19366118D01*
X27464663Y19432322D01*
X27477832Y19498526D01*
X27515334Y19554651D01*
X27795349Y19834666D01*
X27851474Y19872168D01*
X27917678Y19885337D01*
X27983882Y19872168D01*
G37*
G36*
X28669776Y19186274D02*
G01*
X28725901Y19148772D01*
X28970560Y18904113D01*
X29008062Y18847988D01*
X29021231Y18781784D01*
X29008062Y18715580D01*
X28970560Y18659455D01*
X28690545Y18379440D01*
X28634420Y18341938D01*
X28568216Y18328769D01*
X28502012Y18341938D01*
X28445887Y18379440D01*
X28201228Y18624099D01*
X28163726Y18680224D01*
X28150557Y18746428D01*
X28163726Y18812632D01*
X28201228Y18868757D01*
X28481243Y19148772D01*
X28537368Y19186274D01*
X28603572Y19199443D01*
X28669776Y19186274D01*
G37*
%TD*%
%TO.C,C114*%
G36*
X27363127Y8495242D02*
G01*
X27448450Y8438231D01*
X27891099Y7995582D01*
X27948110Y7910259D01*
X27968130Y7809613D01*
X27948110Y7708967D01*
X27891099Y7623644D01*
X27519160Y7251705D01*
X27433837Y7194694D01*
X27333191Y7174674D01*
X27232545Y7194694D01*
X27147222Y7251705D01*
X26704573Y7694354D01*
X26647562Y7779677D01*
X26627542Y7880323D01*
X26647562Y7980969D01*
X26704573Y8066292D01*
X27076512Y8438231D01*
X27161835Y8495242D01*
X27262481Y8515262D01*
X27363127Y8495242D01*
G37*
G36*
X26125691Y9732678D02*
G01*
X26211014Y9675667D01*
X26653663Y9233018D01*
X26710674Y9147695D01*
X26730694Y9047049D01*
X26710674Y8946403D01*
X26653663Y8861080D01*
X26281724Y8489141D01*
X26196401Y8432130D01*
X26095755Y8412110D01*
X25995109Y8432130D01*
X25909786Y8489141D01*
X25467137Y8931790D01*
X25410126Y9017113D01*
X25390106Y9117759D01*
X25410126Y9218405D01*
X25467137Y9303728D01*
X25839076Y9675667D01*
X25924399Y9732678D01*
X26025045Y9752698D01*
X26125691Y9732678D01*
G37*
%TD*%
%TO.C,C113*%
G36*
X18075074Y29636937D02*
G01*
X18160397Y29579926D01*
X18603046Y29137277D01*
X18660057Y29051954D01*
X18680077Y28951308D01*
X18660057Y28850662D01*
X18603046Y28765339D01*
X18231107Y28393400D01*
X18145784Y28336389D01*
X18045138Y28316369D01*
X17944492Y28336389D01*
X17859169Y28393400D01*
X17416520Y28836049D01*
X17359509Y28921372D01*
X17339489Y29022018D01*
X17359509Y29122664D01*
X17416520Y29207987D01*
X17788459Y29579926D01*
X17873782Y29636937D01*
X17974428Y29656957D01*
X18075074Y29636937D01*
G37*
G36*
X19312510Y28399501D02*
G01*
X19397833Y28342490D01*
X19840482Y27899841D01*
X19897493Y27814518D01*
X19917513Y27713872D01*
X19897493Y27613226D01*
X19840482Y27527903D01*
X19468543Y27155964D01*
X19383220Y27098953D01*
X19282574Y27078933D01*
X19181928Y27098953D01*
X19096605Y27155964D01*
X18653956Y27598613D01*
X18596945Y27683936D01*
X18576925Y27784582D01*
X18596945Y27885228D01*
X18653956Y27970551D01*
X19025895Y28342490D01*
X19111218Y28399501D01*
X19211864Y28419521D01*
X19312510Y28399501D01*
G37*
%TD*%
%TO.C,C112*%
G36*
X20246573Y4818992D02*
G01*
X20331896Y4761981D01*
X20774545Y4319332D01*
X20831556Y4234009D01*
X20851576Y4133363D01*
X20831556Y4032717D01*
X20774545Y3947394D01*
X20402606Y3575455D01*
X20317283Y3518444D01*
X20216637Y3498424D01*
X20115991Y3518444D01*
X20030668Y3575455D01*
X19588019Y4018104D01*
X19531008Y4103427D01*
X19510988Y4204073D01*
X19531008Y4304719D01*
X19588019Y4390042D01*
X19959958Y4761981D01*
X20045281Y4818992D01*
X20145927Y4839012D01*
X20246573Y4818992D01*
G37*
G36*
X21484009Y3581556D02*
G01*
X21569332Y3524545D01*
X22011981Y3081896D01*
X22068992Y2996573D01*
X22089012Y2895927D01*
X22068992Y2795281D01*
X22011981Y2709958D01*
X21640042Y2338019D01*
X21554719Y2281008D01*
X21454073Y2260988D01*
X21353427Y2281008D01*
X21268104Y2338019D01*
X20825455Y2780668D01*
X20768444Y2865991D01*
X20748424Y2966637D01*
X20768444Y3067283D01*
X20825455Y3152606D01*
X21197394Y3524545D01*
X21282717Y3581556D01*
X21383363Y3601576D01*
X21484009Y3581556D01*
G37*
%TD*%
%TO.C,C111*%
G36*
X19312511Y30874374D02*
G01*
X19397834Y30817363D01*
X19840483Y30374714D01*
X19897494Y30289391D01*
X19917514Y30188745D01*
X19897494Y30088099D01*
X19840483Y30002776D01*
X19468544Y29630837D01*
X19383221Y29573826D01*
X19282575Y29553806D01*
X19181929Y29573826D01*
X19096606Y29630837D01*
X18653957Y30073486D01*
X18596946Y30158809D01*
X18576926Y30259455D01*
X18596946Y30360101D01*
X18653957Y30445424D01*
X19025896Y30817363D01*
X19111219Y30874374D01*
X19211865Y30894394D01*
X19312511Y30874374D01*
G37*
G36*
X20549947Y29636938D02*
G01*
X20635270Y29579927D01*
X21077919Y29137278D01*
X21134930Y29051955D01*
X21154950Y28951309D01*
X21134930Y28850663D01*
X21077919Y28765340D01*
X20705980Y28393401D01*
X20620657Y28336390D01*
X20520011Y28316370D01*
X20419365Y28336390D01*
X20334042Y28393401D01*
X19891393Y28836050D01*
X19834382Y28921373D01*
X19814362Y29022019D01*
X19834382Y29122665D01*
X19891393Y29207988D01*
X20263332Y29579927D01*
X20348655Y29636938D01*
X20449301Y29656958D01*
X20549947Y29636938D01*
G37*
%TD*%
%TO.C,C110*%
G36*
X17467283Y21981556D02*
G01*
X17552606Y21924545D01*
X17924545Y21552606D01*
X17981556Y21467283D01*
X18001576Y21366637D01*
X17981556Y21265991D01*
X17924545Y21180668D01*
X17481896Y20738019D01*
X17396573Y20681008D01*
X17295927Y20660988D01*
X17195281Y20681008D01*
X17109958Y20738019D01*
X16738019Y21109958D01*
X16681008Y21195281D01*
X16660988Y21295927D01*
X16681008Y21396573D01*
X16738019Y21481896D01*
X17180668Y21924545D01*
X17265991Y21981556D01*
X17366637Y22001576D01*
X17467283Y21981556D01*
G37*
G36*
X18704719Y23218992D02*
G01*
X18790042Y23161981D01*
X19161981Y22790042D01*
X19218992Y22704719D01*
X19239012Y22604073D01*
X19218992Y22503427D01*
X19161981Y22418104D01*
X18719332Y21975455D01*
X18634009Y21918444D01*
X18533363Y21898424D01*
X18432717Y21918444D01*
X18347394Y21975455D01*
X17975455Y22347394D01*
X17918444Y22432717D01*
X17898424Y22533363D01*
X17918444Y22634009D01*
X17975455Y22719332D01*
X18418104Y23161981D01*
X18503427Y23218992D01*
X18604073Y23239012D01*
X18704719Y23218992D01*
G37*
%TD*%
%TO.C,C109*%
G36*
X28302422Y22312533D02*
G01*
X28387745Y22255522D01*
X28830394Y21812873D01*
X28887405Y21727550D01*
X28907425Y21626904D01*
X28887405Y21526258D01*
X28830394Y21440935D01*
X28458455Y21068996D01*
X28373132Y21011985D01*
X28272486Y20991965D01*
X28171840Y21011985D01*
X28086517Y21068996D01*
X27643868Y21511645D01*
X27586857Y21596968D01*
X27566837Y21697614D01*
X27586857Y21798260D01*
X27643868Y21883583D01*
X28015807Y22255522D01*
X28101130Y22312533D01*
X28201776Y22332553D01*
X28302422Y22312533D01*
G37*
G36*
X27064986Y23549969D02*
G01*
X27150309Y23492958D01*
X27592958Y23050309D01*
X27649969Y22964986D01*
X27669989Y22864340D01*
X27649969Y22763694D01*
X27592958Y22678371D01*
X27221019Y22306432D01*
X27135696Y22249421D01*
X27035050Y22229401D01*
X26934404Y22249421D01*
X26849081Y22306432D01*
X26406432Y22749081D01*
X26349421Y22834404D01*
X26329401Y22935050D01*
X26349421Y23035696D01*
X26406432Y23121019D01*
X26778371Y23492958D01*
X26863694Y23549969D01*
X26964340Y23569989D01*
X27064986Y23549969D01*
G37*
%TD*%
%TO.C,C108*%
G36*
X25906280Y32483042D02*
G01*
X25991603Y32426031D01*
X26363542Y32054092D01*
X26420553Y31968769D01*
X26440573Y31868123D01*
X26420553Y31767477D01*
X26363542Y31682154D01*
X25920893Y31239505D01*
X25835570Y31182494D01*
X25734924Y31162474D01*
X25634278Y31182494D01*
X25548955Y31239505D01*
X25177016Y31611444D01*
X25120005Y31696767D01*
X25099985Y31797413D01*
X25120005Y31898059D01*
X25177016Y31983382D01*
X25619665Y32426031D01*
X25704988Y32483042D01*
X25805634Y32503062D01*
X25906280Y32483042D01*
G37*
G36*
X24668844Y31245606D02*
G01*
X24754167Y31188595D01*
X25126106Y30816656D01*
X25183117Y30731333D01*
X25203137Y30630687D01*
X25183117Y30530041D01*
X25126106Y30444718D01*
X24683457Y30002069D01*
X24598134Y29945058D01*
X24497488Y29925038D01*
X24396842Y29945058D01*
X24311519Y30002069D01*
X23939580Y30374008D01*
X23882569Y30459331D01*
X23862549Y30559977D01*
X23882569Y30660623D01*
X23939580Y30745946D01*
X24382229Y31188595D01*
X24467552Y31245606D01*
X24568198Y31265626D01*
X24668844Y31245606D01*
G37*
%TD*%
%TO.C,C107*%
G36*
X20267104Y20409195D02*
G01*
X20352427Y20352184D01*
X20724366Y19980245D01*
X20781377Y19894922D01*
X20801397Y19794276D01*
X20781377Y19693630D01*
X20724366Y19608307D01*
X20281717Y19165658D01*
X20196394Y19108647D01*
X20095748Y19088627D01*
X19995102Y19108647D01*
X19909779Y19165658D01*
X19537840Y19537597D01*
X19480829Y19622920D01*
X19460809Y19723566D01*
X19480829Y19824212D01*
X19537840Y19909535D01*
X19980489Y20352184D01*
X20065812Y20409195D01*
X20166458Y20429215D01*
X20267104Y20409195D01*
G37*
G36*
X21504540Y21646631D02*
G01*
X21589863Y21589620D01*
X21961802Y21217681D01*
X22018813Y21132358D01*
X22038833Y21031712D01*
X22018813Y20931066D01*
X21961802Y20845743D01*
X21519153Y20403094D01*
X21433830Y20346083D01*
X21333184Y20326063D01*
X21232538Y20346083D01*
X21147215Y20403094D01*
X20775276Y20775033D01*
X20718265Y20860356D01*
X20698245Y20961002D01*
X20718265Y21061648D01*
X20775276Y21146971D01*
X21217925Y21589620D01*
X21303248Y21646631D01*
X21403894Y21666651D01*
X21504540Y21646631D01*
G37*
%TD*%
%TO.C,C106*%
G36*
X28982194Y29407128D02*
G01*
X29067517Y29350117D01*
X29439456Y28978178D01*
X29496467Y28892855D01*
X29516487Y28792209D01*
X29496467Y28691563D01*
X29439456Y28606240D01*
X28996807Y28163591D01*
X28911484Y28106580D01*
X28810838Y28086560D01*
X28710192Y28106580D01*
X28624869Y28163591D01*
X28252930Y28535530D01*
X28195919Y28620853D01*
X28175899Y28721499D01*
X28195919Y28822145D01*
X28252930Y28907468D01*
X28695579Y29350117D01*
X28780902Y29407128D01*
X28881548Y29427148D01*
X28982194Y29407128D01*
G37*
G36*
X27744758Y28169692D02*
G01*
X27830081Y28112681D01*
X28202020Y27740742D01*
X28259031Y27655419D01*
X28279051Y27554773D01*
X28259031Y27454127D01*
X28202020Y27368804D01*
X27759371Y26926155D01*
X27674048Y26869144D01*
X27573402Y26849124D01*
X27472756Y26869144D01*
X27387433Y26926155D01*
X27015494Y27298094D01*
X26958483Y27383417D01*
X26938463Y27484063D01*
X26958483Y27584709D01*
X27015494Y27670032D01*
X27458143Y28112681D01*
X27543466Y28169692D01*
X27644112Y28189712D01*
X27744758Y28169692D01*
G37*
%TD*%
%TO.C,C105*%
G36*
X29449092Y10581207D02*
G01*
X29534415Y10524196D01*
X29977064Y10081547D01*
X30034075Y9996224D01*
X30054095Y9895578D01*
X30034075Y9794932D01*
X29977064Y9709609D01*
X29605125Y9337670D01*
X29519802Y9280659D01*
X29419156Y9260639D01*
X29318510Y9280659D01*
X29233187Y9337670D01*
X28790538Y9780319D01*
X28733527Y9865642D01*
X28713507Y9966288D01*
X28733527Y10066934D01*
X28790538Y10152257D01*
X29162477Y10524196D01*
X29247800Y10581207D01*
X29348446Y10601227D01*
X29449092Y10581207D01*
G37*
G36*
X28211656Y11818643D02*
G01*
X28296979Y11761632D01*
X28739628Y11318983D01*
X28796639Y11233660D01*
X28816659Y11133014D01*
X28796639Y11032368D01*
X28739628Y10947045D01*
X28367689Y10575106D01*
X28282366Y10518095D01*
X28181720Y10498075D01*
X28081074Y10518095D01*
X27995751Y10575106D01*
X27553102Y11017755D01*
X27496091Y11103078D01*
X27476071Y11203724D01*
X27496091Y11304370D01*
X27553102Y11389693D01*
X27925041Y11761632D01*
X28010364Y11818643D01*
X28111010Y11838663D01*
X28211656Y11818643D01*
G37*
%TD*%
%TO.C,C104*%
G36*
X22777855Y18087710D02*
G01*
X22863178Y18030699D01*
X23305827Y17588050D01*
X23362838Y17502727D01*
X23382858Y17402081D01*
X23362838Y17301435D01*
X23305827Y17216112D01*
X22933888Y16844173D01*
X22848565Y16787162D01*
X22747919Y16767142D01*
X22647273Y16787162D01*
X22561950Y16844173D01*
X22119301Y17286822D01*
X22062290Y17372145D01*
X22042270Y17472791D01*
X22062290Y17573437D01*
X22119301Y17658760D01*
X22491240Y18030699D01*
X22576563Y18087710D01*
X22677209Y18107730D01*
X22777855Y18087710D01*
G37*
G36*
X24015291Y16850274D02*
G01*
X24100614Y16793263D01*
X24543263Y16350614D01*
X24600274Y16265291D01*
X24620294Y16164645D01*
X24600274Y16063999D01*
X24543263Y15978676D01*
X24171324Y15606737D01*
X24086001Y15549726D01*
X23985355Y15529706D01*
X23884709Y15549726D01*
X23799386Y15606737D01*
X23356737Y16049386D01*
X23299726Y16134709D01*
X23279706Y16235355D01*
X23299726Y16336001D01*
X23356737Y16421324D01*
X23728676Y16793263D01*
X23813999Y16850274D01*
X23914645Y16870294D01*
X24015291Y16850274D01*
G37*
%TD*%
%TO.C,C102*%
G36*
X21769706Y30750631D02*
G01*
X21855029Y30693620D01*
X22226968Y30321681D01*
X22283979Y30236358D01*
X22303999Y30135712D01*
X22283979Y30035066D01*
X22226968Y29949743D01*
X21784319Y29507094D01*
X21698996Y29450083D01*
X21598350Y29430063D01*
X21497704Y29450083D01*
X21412381Y29507094D01*
X21040442Y29879033D01*
X20983431Y29964356D01*
X20963411Y30065002D01*
X20983431Y30165648D01*
X21040442Y30250971D01*
X21483091Y30693620D01*
X21568414Y30750631D01*
X21669060Y30770651D01*
X21769706Y30750631D01*
G37*
G36*
X23007142Y31988067D02*
G01*
X23092465Y31931056D01*
X23464404Y31559117D01*
X23521415Y31473794D01*
X23541435Y31373148D01*
X23521415Y31272502D01*
X23464404Y31187179D01*
X23021755Y30744530D01*
X22936432Y30687519D01*
X22835786Y30667499D01*
X22735140Y30687519D01*
X22649817Y30744530D01*
X22277878Y31116469D01*
X22220867Y31201792D01*
X22200847Y31302438D01*
X22220867Y31403084D01*
X22277878Y31488407D01*
X22720527Y31931056D01*
X22805850Y31988067D01*
X22906496Y32008087D01*
X23007142Y31988067D01*
G37*
%TD*%
%TO.C,C101*%
G36*
X18745263Y7690908D02*
G01*
X18830586Y7633897D01*
X19202525Y7261958D01*
X19259536Y7176635D01*
X19279556Y7075989D01*
X19259536Y6975343D01*
X19202525Y6890020D01*
X18759876Y6447371D01*
X18674553Y6390360D01*
X18573907Y6370340D01*
X18473261Y6390360D01*
X18387938Y6447371D01*
X18015999Y6819310D01*
X17958988Y6904633D01*
X17938968Y7005279D01*
X17958988Y7105925D01*
X18015999Y7191248D01*
X18458648Y7633897D01*
X18543971Y7690908D01*
X18644617Y7710928D01*
X18745263Y7690908D01*
G37*
G36*
X19982699Y8928344D02*
G01*
X20068022Y8871333D01*
X20439961Y8499394D01*
X20496972Y8414071D01*
X20516992Y8313425D01*
X20496972Y8212779D01*
X20439961Y8127456D01*
X19997312Y7684807D01*
X19911989Y7627796D01*
X19811343Y7607776D01*
X19710697Y7627796D01*
X19625374Y7684807D01*
X19253435Y8056746D01*
X19196424Y8142069D01*
X19176404Y8242715D01*
X19196424Y8343361D01*
X19253435Y8428684D01*
X19696084Y8871333D01*
X19781407Y8928344D01*
X19882053Y8948364D01*
X19982699Y8928344D01*
G37*
%TD*%
D31*
X22250000Y15850000D03*
X16200000Y15800000D03*
X18100000Y17500000D03*
X14050000Y18800000D03*
X16250000Y20650000D03*
X14700000Y20650000D03*
X22842068Y12725000D03*
X25250000Y10325000D03*
X24475000Y12450000D03*
X25150000Y13125000D03*
X25825000Y12450000D03*
X25150000Y11775000D03*
X25150000Y12450000D03*
X25200000Y15200000D03*
X22450000Y18700000D03*
X29400000Y13075000D03*
X29400000Y11975000D03*
X28025000Y12325000D03*
X30025000Y10600000D03*
X30100000Y9275000D03*
X29425000Y8875000D03*
X29050000Y8225000D03*
X28350000Y7825000D03*
X28025000Y7175000D03*
X27325000Y6800000D03*
X26975000Y6150000D03*
X25700000Y6050000D03*
X26250000Y7875000D03*
X27300000Y8900000D03*
X28325000Y9950000D03*
X19275000Y11125000D03*
X18900000Y12800000D03*
X18550000Y11750000D03*
X19750000Y9400000D03*
X18950000Y10100000D03*
X19675000Y7000000D03*
X18625000Y5975000D03*
X20400000Y5350000D03*
X17950000Y7725000D03*
X19500000Y3525000D03*
X19525000Y4900000D03*
X21375000Y6125000D03*
X27425000Y11600000D03*
X28200000Y22800000D03*
X21800000Y21950000D03*
X19875000Y28375000D03*
X28775000Y27625000D03*
X25700000Y30700000D03*
X27775000Y28725000D03*
X26750000Y29700000D03*
X28875000Y29825000D03*
X29925000Y28850000D03*
X27900000Y30850000D03*
X26500000Y32500000D03*
X25150000Y32525000D03*
X24675000Y31725000D03*
X26750000Y21600000D03*
X27450000Y20900000D03*
X28975000Y21025000D03*
X26325000Y20075000D03*
X24700000Y18950000D03*
X26550000Y18775000D03*
X21200000Y19800000D03*
X20100000Y18700000D03*
X21850000Y18100000D03*
X19100000Y19375000D03*
X15700000Y21200000D03*
X16450000Y21950000D03*
X18625000Y29600000D03*
X19875000Y30850000D03*
X18575000Y30900000D03*
X17325000Y29650000D03*
X17400000Y28350000D03*
X26625000Y26975000D03*
X24875000Y21500000D03*
X25250000Y21150000D03*
X25625000Y20800000D03*
X25975000Y20425000D03*
X26675000Y19725000D03*
X26950000Y19175000D03*
X27325000Y18800000D03*
X27700000Y18400000D03*
X28100000Y18000000D03*
X28725000Y17650000D03*
X29350000Y17275000D03*
X26050000Y22275000D03*
X26400000Y21950000D03*
X27100000Y21250000D03*
X27800000Y20550000D03*
X28275000Y20325000D03*
X28625000Y19975000D03*
X29000000Y19625000D03*
X29350000Y19275000D03*
X29675000Y18875000D03*
X30100000Y18625000D03*
X30600000Y18625000D03*
X31100000Y18625000D03*
X31600000Y18625000D03*
X32100000Y18625000D03*
X32575000Y18600000D03*
X28975000Y16925000D03*
X28625000Y16575000D03*
X28250000Y16200000D03*
X27875000Y15850000D03*
X27525000Y15500000D03*
X27175000Y15150000D03*
X32600000Y16400000D03*
X32050000Y16300000D03*
X31525000Y16350000D03*
X31000000Y16350000D03*
X30500000Y16350000D03*
X30100000Y16025000D03*
X29725000Y15675000D03*
X29375000Y15300000D03*
X29000000Y14950000D03*
X28625000Y14575000D03*
X28250000Y14225000D03*
X27425000Y12750000D03*
X27325000Y12225000D03*
X24325000Y15100000D03*
X5325000Y20900000D03*
X5325000Y18500000D03*
X21750000Y28975000D03*
X17200000Y22450000D03*
X18450000Y24450000D03*
X17200000Y23700000D03*
X18385998Y25200000D03*
X25200000Y16700000D03*
X21950000Y16700000D03*
X12950000Y18200000D03*
X19200000Y18200000D03*
X24450000Y17700000D03*
X18950000Y26200000D03*
X23700000Y19950000D03*
X25700000Y19200000D03*
X28950000Y24700000D03*
X19700000Y2450000D03*
X8450000Y13200000D03*
X8450000Y21450000D03*
X14463909Y16686091D03*
X18200000Y16700000D03*
X13700000Y24950000D03*
X9450000Y24950000D03*
X9350000Y18600000D03*
X25075000Y9325000D03*
X5490872Y13880177D03*
X7525000Y18625000D03*
X6050000Y21775000D03*
X6275000Y21200000D03*
X6825000Y20950000D03*
X10800000Y18600000D03*
X11900000Y18600000D03*
X5975000Y13150000D03*
X6825000Y13300000D03*
X7575000Y13250000D03*
X9400000Y13300000D03*
X11450000Y13300000D03*
X12900000Y9750000D03*
X12950000Y11825000D03*
X11350000Y11300000D03*
X15350000Y9400000D03*
X15575000Y7025000D03*
X11650000Y20800000D03*
X13100000Y20675000D03*
X13250000Y22425000D03*
X15200000Y22675000D03*
X15675000Y24825000D03*
X17625000Y25750000D03*
X18100000Y27225000D03*
X13450000Y13350000D03*
X14975000Y13950000D03*
X17500000Y13925000D03*
X19125000Y13900000D03*
X15100000Y11900000D03*
X16775000Y10125000D03*
X17350000Y3200000D03*
X18625000Y1450000D03*
X16500000Y1550000D03*
X15550000Y2775000D03*
X15100000Y4650000D03*
X13500000Y6575000D03*
X11850000Y8225000D03*
X10200000Y10025000D03*
X19275000Y15900000D03*
X24150000Y4050000D03*
X22625000Y2650000D03*
X21300000Y31325000D03*
X23275000Y32425000D03*
X15975000Y27375000D03*
X14650000Y26300000D03*
X12050000Y23550000D03*
X10525000Y21850000D03*
X9300000Y20775000D03*
M02*
