M48
; DRILL file {KiCad 5.99.0-unknown-6252493~100~ubuntu19.10.1} date Thu Mar  5 21:15:05 2020
; FORMAT={-:-/ absolute / inch / decimal}
; #@! TF.CreationDate,2020-03-05T21:15:05+01:00
; #@! TF.GenerationSoftware,Kicad,Pcbnew,5.99.0-unknown-6252493~100~ubuntu19.10.1
; #@! TF.FileFunction,Plated,1,4,PTH
FMAT,2
INCH
T1C0.0061
T2C0.0079
T3C0.0118
T4C0.0866
T5C0.1260
%
G90
G05
T1
X0.8384Y0.9985
X0.8556Y1.0158
X0.8556Y0.9813
X0.8729Y1.0331
X0.8729Y0.9985
X0.8729Y0.964
X0.8901Y1.0503
X0.8901Y1.0158
X0.8901Y0.9813
X0.8901Y0.9468
X0.9074Y1.0676
X0.9074Y1.0331
X0.9074Y0.9985
X0.9074Y0.964
X0.9074Y0.9295
X0.9247Y1.0503
X0.9247Y1.0158
X0.9247Y0.9813
X0.9247Y0.9468
X0.9419Y1.0331
X0.9419Y0.9985
X0.9419Y0.964
X0.9592Y1.0158
X0.9592Y0.9813
X0.9764Y0.9985
T2
X0.2096Y0.8228
X0.2096Y0.7283
X0.2162Y0.5465
X0.2352Y0.5177
X0.2382Y0.8573
X0.247Y0.8346
X0.2687Y0.8248
X0.2687Y0.5236
X0.2963Y0.7333
X0.2982Y0.5217
X0.3327Y0.8445
X0.3327Y0.5197
X0.3661Y0.8179
X0.3681Y0.7323
X0.3701Y0.5236
X0.372Y0.9823
X0.4016Y0.3947
X0.4144Y0.8602
X0.4252Y0.7323
X0.4469Y0.4449
X0.4508Y0.5236
X0.4587Y0.8189
X0.4665Y0.3238
X0.4685Y0.7323
X0.4744Y0.9272
X0.5079Y0.3839
X0.5098Y0.7165
X0.5098Y0.4656
X0.5157Y0.814
X0.5217Y0.8829
X0.5295Y0.5256
X0.5315Y0.2589
X0.5394Y0.9823
X0.5531Y0.7402
X0.5694Y0.6569
X0.5768Y1.0354
X0.5787Y0.813
X0.5896Y0.5492
X0.5945Y0.4685
X0.5945Y0.1831
X0.5984Y0.8927
X0.6043Y0.3701
X0.6122Y0.1093
X0.6132Y0.2766
X0.6171Y0.9774
X0.6181Y0.8346
X0.6289Y1.0778
X0.6378Y0.622
X0.6398Y0.813
X0.6476Y0.8642
X0.6496Y0.061
X0.6604Y0.3986
X0.6772Y0.9331
X0.6772Y0.8839
X0.6821Y1.1673
X0.6831Y0.126
X0.685Y1.1161
X0.689Y0.5482
X0.6939Y1.0138
X0.7067Y0.3041
X0.7126Y1.0719
X0.7126Y0.689
X0.7165Y0.6575
X0.7239Y0.9921
X0.7264Y0.9626
X0.7303Y0.4626
X0.7313Y1.2165
X0.7333Y1.1654
X0.7333Y0.2352
X0.7333Y0.0571
X0.7441Y0.5039
X0.7461Y1.0315
X0.7461Y0.3976
X0.752Y0.7628
X0.753Y0.5472
X0.7559Y0.7165
X0.7589Y0.626
X0.7589Y0.438
X0.7677Y0.1388
X0.7687Y0.1929
X0.7746Y0.2756
X0.7756Y0.0965
X0.7776Y0.3701
X0.7825Y1.2146
X0.7825Y1.1171
X0.7913Y0.7362
X0.8031Y0.2106
X0.8346Y0.7795
X0.8386Y1.2333
X0.8415Y0.2411
X0.8563Y1.1407
X0.8583Y0.8642
X0.8602Y0.7126
X0.8642Y0.6575
X0.876Y0.624
X0.8839Y0.7362
X0.8907Y0.1043
X0.8993Y0.501
X0.9163Y1.2766
X0.9331Y0.7854
X0.9508Y0.1594
X0.9577Y0.5945
X0.9626Y0.6969
X0.9636Y0.4902
X0.9715Y1.249
X0.9724Y0.7461
X0.9793Y0.8465
X0.9872Y0.3671
X0.9902Y1.2805
X0.9902Y0.5167
X0.9902Y0.4902
X0.9902Y0.4636
X0.9921Y0.6575
X0.9921Y0.5984
X0.9941Y0.8327
X0.9941Y0.4065
X1.0089Y0.8189
X1.0118Y1.2087
X1.0118Y0.7559
X1.0118Y0.2382
X1.0167Y0.4902
X1.0226Y0.8041
X1.0256Y0.877
X1.0335Y0.31
X1.0364Y0.7904
X1.0394Y0.8642
X1.0433Y1.2795
X1.0453Y0.7392
X1.0482Y1.062
X1.0502Y0.7766
X1.0531Y1.1693
X1.0531Y0.8504
X1.061Y0.7549
X1.062Y0.2421
X1.0669Y0.8366
X1.0699Y0.5965
X1.0748Y0.3504
X1.0758Y0.7402
X1.0758Y0.4813
X1.0758Y0.2677
X1.0797Y0.502
X1.0797Y0.4567
X1.0807Y0.8228
X1.0837Y0.6102
X1.0906Y0.7244
X1.0935Y1.1309
X1.0945Y0.8091
X1.0974Y0.624
X1.0984Y1.2146
X1.1033Y0.4852
X1.1033Y0.2825
X1.1063Y0.7087
X1.1102Y0.8976
X1.1122Y0.6378
X1.1122Y0.56
X1.1132Y0.8002
X1.1152Y0.3917
X1.1161Y0.3081
X1.127Y0.7864
X1.127Y0.6526
X1.127Y0.5738
X1.1309Y0.6949
X1.1329Y1.0876
X1.1368Y1.1742
X1.1398Y0.9724
X1.1407Y0.8278
X1.1407Y0.6663
X1.1417Y0.7726
X1.1417Y0.5886
X1.1437Y0.3238
X1.1555Y0.7589
X1.1555Y0.6801
X1.1565Y0.6024
X1.1575Y0.5148
X1.1575Y0.4715
X1.1585Y0.3494
X1.1683Y0.7431
X1.1703Y0.6171
X1.1781Y1.1358
X1.1821Y0.4173
X1.185Y0.7333
X1.185Y0.6309
X1.185Y0.3652
X1.2008Y0.6437
X1.2047Y0.7333
X1.2205Y0.6437
X1.2244Y0.7333
X1.2411Y0.6437
X1.2441Y0.7333
X1.2618Y0.6417
X1.2638Y0.7333
X1.2825Y0.7323
X1.2835Y0.6457
T3
X1.311Y0.9311
X1.311Y0.9075
X1.311Y0.8839
X1.311Y0.8602
X1.311Y0.8366
X1.311Y0.813
X1.311Y0.7894
X1.311Y0.7657
X1.311Y0.7421
X1.311Y0.6358
X1.311Y0.6122
X1.311Y0.5886
X1.311Y0.565
X1.311Y0.5413
X1.311Y0.5177
X1.311Y0.4941
X1.311Y0.4705
X1.311Y0.4469
X1.3346Y0.9429
X1.3346Y0.813
X1.3346Y0.7894
X1.3346Y0.7657
X1.3346Y0.7421
X1.3346Y0.6358
X1.3346Y0.6122
X1.3346Y0.5886
X1.3346Y0.565
X1.3346Y0.435
X1.3583Y0.7894
X1.3583Y0.7657
X1.3583Y0.7421
X1.3583Y0.6358
X1.3583Y0.6122
X1.3583Y0.5886
X1.3819Y0.7894
X1.3819Y0.7657
X1.3819Y0.7421
X1.3819Y0.6358
X1.3819Y0.6122
X1.3819Y0.5886
X1.4055Y0.7894
X1.4055Y0.7657
X1.4055Y0.7421
X1.4055Y0.6358
X1.4055Y0.6122
X1.4055Y0.5886
X1.4291Y0.813
X1.4291Y0.7894
X1.4291Y0.7657
X1.4291Y0.7421
X1.4291Y0.6358
X1.4291Y0.6122
X1.4291Y0.5886
X1.4291Y0.565
X1.4528Y0.9311
X1.4528Y0.9075
X1.4528Y0.8602
X1.4528Y0.8366
X1.4528Y0.813
X1.4528Y0.7894
X1.4528Y0.7657
X1.4528Y0.7421
X1.4528Y0.6358
X1.4528Y0.6122
X1.4528Y0.5886
X1.4528Y0.565
X1.4528Y0.5413
X1.4528Y0.5177
X1.4528Y0.4705
X1.4528Y0.4469
X1.4764Y0.9311
X1.4764Y0.9075
X1.4764Y0.8839
X1.4764Y0.8602
X1.4764Y0.8366
X1.4764Y0.813
X1.4764Y0.7894
X1.4764Y0.7657
X1.4764Y0.7421
X1.4764Y0.6358
X1.4764Y0.6122
X1.4764Y0.5886
X1.4764Y0.565
X1.4764Y0.5413
X1.4764Y0.5177
X1.4764Y0.4941
X1.4764Y0.4705
X1.4764Y0.4469
T4
X1.3819Y0.876
X1.3819Y0.502
T5
X0.4213Y0.1772
X1.315Y1.2008
X0.4213Y1.2008
X1.315Y0.1772
T0
M30
